<?xml version="1.0" standalone="no"?>
<!DOCTYPE svg PUBLIC "-//W3C//DTD SVG 1.1//EN" "http://www.w3.org/Graphics/SVG/1.1/DTD/svg11.dtd" >
<svg xmlns="http://www.w3.org/2000/svg" xmlns:xlink="http://www.w3.org/1999/xlink" version="1.1">
<metadata>
Created by FontForge 20161003 at Mon Mar  4 15:26:44 2019
 By www-data
Copyright (c) 2012 by Avraham Cornfeld. All rights reserved.
</metadata>
<defs>
<font id="AlmoniDLAAA-Bold" horiz-adv-x="0" >
  <font-face 
    font-family="Almoni DL AAA"
    font-weight="700"
    font-stretch="normal"
    units-per-em="2048"
    panose-1="2 11 8 0 0 0 0 2 0 4"
    ascent="1638"
    descent="-410"
    x-height="928"
    cap-height="1278"
    bbox="-1.18822e+06 -615213 4.41679e+06 2.37043e+06"
    underline-thickness="90"
    underline-position="-291"
    unicode-range="U+0020-FFFC"
  />
<missing-glyph horiz-adv-x="524" 
 />
    <glyph glyph-name=".notdef" horiz-adv-x="524" 
 />
    <glyph glyph-name="numbersign" unicode="#" horiz-adv-x="1278" 
d="M1159 523h-229l-58 -184h234l-45 -118h-240l-71 -221h-143l71 221h-226l-70 -221h-144l71 221h-231l43 118h237l58 184h-240l43 121h248l81 219h143l-81 -219h225l81 219h146l-81 -219h223zM729 339l55 184h-223l-57 -184h225z" />
    <glyph glyph-name="percent" unicode="%" horiz-adv-x="1056" 
d="M292 0h-131l589 1062h131zM251 1070q88 0 134 -50t46 -143v-166q0 -95 -46 -144t-134 -49q-87 0 -133 49.5t-46 143.5v166q0 95 46 144t133 49zM251 603q32 0 48.5 25.5t16.5 57.5v216q0 32 -18.5 55t-47.5 23t-46 -23t-17 -55v-216q0 -32 16 -57.5t48 -25.5zM804 544
q87 0 133 -49.5t46 -143.5v-166q0 -95 -46 -144t-133 -49t-133.5 49.5t-46.5 143.5v166q0 95 46.5 144t133.5 49zM804 77q32 0 48 25.5t16 57.5v216q0 32 -18 55t-47 23q-30 0 -47 -23t-17 -55v-216q0 -32 16.5 -57.5t48.5 -25.5z" />
    <glyph glyph-name="quotesingle" unicode="'" horiz-adv-x="417" 
d="M90 729l60 475h184v-151l-146 -324h-98v0z" />
    <glyph glyph-name="parenleft" unicode="(" horiz-adv-x="686" 
d="M662 -190v-68q-7 -2 -22 -2.5t-31.5 -0.5t-31 0.5t-21.5 0.5q-101 0 -172.5 35.5t-116.5 125t-65.5 242t-20.5 385.5q0 156 9 273t28 202t49 140.5t71.5 88.5t95.5 46.5t122 13.5h21.5t31 -0.5t31.5 -1.5t22 -2v-74q-61 -3 -105.5 -17t-75.5 -44t-51 -79.5t-31 -125
t-15 -179t-4 -241.5q0 -137 4 -242.5t15 -183t31 -130.5t51 -86.5t75.5 -49.5t105.5 -20v-6z" />
    <glyph glyph-name="parenright" unicode=")" horiz-adv-x="673" 
d="M-5 -184q61 4 105.5 20t75.5 49.5t51 86.5t31 130.5t15 182.5t4 243t-4 241.5t-15 179t-31 125t-51 79.5t-75.5 43.5t-105.5 17.5v74q7 1 21.5 2t31 1.5t31.5 0.5h22q67 0 121.5 -13.5t96 -46.5t71.5 -88.5t49 -140.5t28 -202t9 -273q0 -233 -20.5 -385.5t-65.5 -242
t-116.5 -125t-172.5 -35.5q-7 0 -22 -0.5t-31.5 -0.5t-31 0.5t-21.5 2.5v68v6z" />
    <glyph glyph-name="asterisk" unicode="*" horiz-adv-x="811" 
d="M50 1157l60 178l212 -90l-22 230h188l-25 -227l218 88l57 -179l-229 -51l158 -172l-150 -108l-126 198l-121 -198l-146 107l152 174z" />
    <glyph glyph-name="plus" unicode="+" horiz-adv-x="956" 
d="M890 443h-314v-324h-184v324h-313v172h313v315h184v-315h314v-172z" />
    <glyph glyph-name="comma" unicode="," horiz-adv-x="487" 
d="M83 -323l66 553h201v-176l-159 -377h-108v0z" />
    <glyph glyph-name="hyphen" unicode="-" horiz-adv-x="817" 
d="M107 625h588v-176h-588v176z" />
    <glyph glyph-name="period" unicode="." horiz-adv-x="567" 
d="M157 0v260h256v-260h-256z" />
    <glyph glyph-name="slash" unicode="/" horiz-adv-x="606" 
d="M124 -260h-117l476 1539h117l-476 -1539v0z" />
    <glyph glyph-name="zero" unicode="0" horiz-adv-x="917" 
d="M458 1075q171 0 261.5 -98t90.5 -281v-325q0 -187 -90.5 -283t-261.5 -96t-262 97.5t-91 281.5v325q0 186 91 282.5t262 96.5zM458 176q63 0 95 41.5t32 104.5v423q0 31 -9.5 57t-27 44t-41 28t-51.5 10q-59 0 -92 -38t-33 -101v-423q0 -31 8 -57.5t24 -46t39.5 -31
t55.5 -11.5z" />
    <glyph glyph-name="one" unicode="1" horiz-adv-x="653" 
d="M63 189h172v530h-160v133q41 0 74 9t58.5 23.5t44 33t31.5 38.5q31 46 43 105h142v-872h114v-189h-519v189z" />
    <glyph glyph-name="two" unicode="2" horiz-adv-x="827" 
d="M738 196v-196h-655q20 33 53.5 87.5t73 119.5t81.5 135t80.5 134t69.5 116t48 82q22 37 29 72.5t-1.5 64.5t-32 47.5t-62.5 20.5q-50 1 -77.5 -13t-41 -40t-15.5 -61.5t0 -76.5h-226q-6 87 10 157.5t58.5 120.5t113.5 77.5t173 27.5q109 0 188.5 -42t118 -114t30 -167.5
t-74.5 -202.5q-32 -55 -67.5 -116t-64.5 -113q-34 -61 -68 -120h259z" />
    <glyph glyph-name="three" unicode="3" horiz-adv-x="839" 
d="M564 561q58 -8 97.5 -32t63.5 -60t34 -81.5t10 -94.5q0 -69 -25 -125t-71 -95.5t-111 -61t-145 -21.5q-81 0 -144 16t-106 53.5t-65 99.5t-21 154h234q0 -74 27 -103.5t83 -29.5q28 0 52 7t41 22.5t26.5 40.5t9.5 61q0 165 -199 165v137q32 4 62 15t52.5 30t36 46
t13.5 62q0 46 -25.5 79.5t-64.5 39.5q-61 9 -95.5 -31.5t-36.5 -118.5h-218q-5 76 14.5 138.5t62 107.5t106 69.5t146.5 24.5q81 0 142.5 -22.5t103 -61t62 -89t20.5 -107.5q0 -36 -8 -73.5t-28 -70t-53 -56.5t-83 -34z" />
    <glyph glyph-name="four" unicode="4" horiz-adv-x="897" 
d="M845 387v-186h-103v-201h-219v201h-514l358 860h226l-264 -678h194l2 219h217v-215h103v0z" />
    <glyph glyph-name="five" unicode="5" horiz-adv-x="852" 
d="M331 299q1 -34 10.5 -56t23.5 -35.5t32 -19t37 -5.5q24 0 48 3.5t43.5 21.5t32 55t12.5 104q0 64 -10 102.5t-26 60t-37.5 30t-43.5 12.5q-11 2 -29.5 1t-38 -8t-38 -22t-29.5 -41h-207v559h633v-188h-430v-195q15 25 43.5 43t64.5 26.5t77.5 6t84.5 -18.5
q53 -20 89.5 -55t58.5 -83t31.5 -108t9.5 -129q0 -84 -22.5 -152t-67 -116t-110 -74t-152.5 -26q-55 0 -110 13t-99.5 47t-72.5 93.5t-28 153.5h220z" />
    <glyph glyph-name="six" unicode="6" horiz-adv-x="827" 
d="M408 -10q-76 0 -140.5 24t-112.5 65.5t-77.5 97t-33.5 118.5q-3 34 -3.5 64t5 62.5t19.5 70.5t40 88q12 22 30 54.5t40 70.5t45.5 79t46.5 81q54 92 115 196h260l-281 -419q18 9 40.5 14t45.5 5.5t44.5 -1.5t37.5 -6q50 -11 93 -36.5t75 -66t50 -97.5t18 -130
q0 -75 -27 -137t-74.5 -105.5t-113 -67.5t-142.5 -24zM422 509q-36 0 -66.5 -13.5t-52.5 -37.5t-34.5 -55.5t-12.5 -67.5t10.5 -66.5t31 -53t49.5 -35t66 -12.5q34 0 62.5 12.5t49.5 35t32.5 53t11.5 66.5q0 35 -11 66.5t-30.5 55.5t-46.5 38t-59 14z" />
    <glyph glyph-name="seven" unicode="7" horiz-adv-x="766" 
d="M359 0h-239l321 874h-350v187h641l-373 -1061v0z" />
    <glyph glyph-name="eight" unicode="8" horiz-adv-x="852" 
d="M599 598q48 -16 84 -45t60 -66t36 -80t12 -88q0 -70 -27.5 -130.5t-77 -105t-117 -70t-148.5 -25.5q-80 0 -148 25.5t-117.5 70t-77.5 105t-28 130.5q0 45 13.5 88.5t39 81t61 66t79.5 43.5q-36 11 -62.5 33t-44.5 51t-26.5 62.5t-8.5 66.5q0 57 23.5 105.5t66 83.5
t101.5 55t129 20t128.5 -20t101 -55t66 -83.5t23.5 -105.5q0 -33 -8.5 -65t-26 -60.5t-44 -51t-62.5 -36.5zM421 902q-54 0 -82.5 -30t-28.5 -72q0 -22 8 -43.5t23 -39t35.5 -28t44.5 -10.5t45 10.5t36.5 28t24 39t8.5 43.5q0 42 -29.5 72t-84.5 30zM421 171q31 0 60.5 7.5
t51.5 25.5t35.5 47.5t13.5 72.5q0 42 -12 73.5t-33.5 52.5t-51 31.5t-64.5 10.5q-69 0 -111.5 -41.5t-42.5 -126.5q0 -43 12.5 -72.5t33.5 -47.5t49 -25.5t59 -7.5z" />
    <glyph glyph-name="nine" unicode="9" horiz-adv-x="852" 
d="M417 1070q76 0 140.5 -24t112.5 -65.5t77 -97t34 -118.5q3 -35 3.5 -65t-5 -62t-19.5 -70t-40 -88q-12 -22 -30.5 -54.5t-40 -70.5t-45.5 -79.5t-47 -80.5q-54 -93 -114 -196h-260l281 419q-18 -9 -40.5 -14t-45.5 -5.5t-44.5 1.5t-37.5 6q-50 11 -93 36.5t-75 66t-50 97
t-18 130.5q0 75 27 137t74.5 105.5t113 67.5t142.5 24zM403 557q36 0 66.5 12.5t52 35t33.5 53.5t12 67q0 72 -40.5 117.5t-114.5 45.5q-34 0 -62 -12t-48 -33.5t-31 -51.5t-11 -66q0 -35 10 -66t29 -53.5t45.5 -35.5t58.5 -13z" />
    <glyph glyph-name="colon" unicode=":" horiz-adv-x="657" 
d="M208 618v260h256v-260h-256zM210 0v260h256v-260h-256z" />
    <glyph glyph-name="semicolon" unicode=";" horiz-adv-x="657" 
d="M208 618v260h256v-260h-256zM226 192h206v-169l-163 -364h-110z" />
    <glyph glyph-name="less" unicode="&#x3c;" horiz-adv-x="978" 
d="M66 588l817 405v-217l-617 -246l617 -241v-215l-817 405v109z" />
    <glyph glyph-name="equal" unicode="=" horiz-adv-x="954" 
d="M119 448h712v-175h-712v175zM119 785h712v-175h-712v175z" />
    <glyph glyph-name="greater" unicode="&#x3e;" horiz-adv-x="960" 
d="M893 479l-817 -405v215l617 241l-617 246v217l817 -405v-109z" />
    <glyph glyph-name="bracketleft" unicode="[" horiz-adv-x="583" 
d="M509 1172h-144v-1311h144v-121h-303v1551h303v-119v0z" />
    <glyph glyph-name="backslash" unicode="\" horiz-adv-x="604" 
d="M469 -260l-476 1552h117l476 -1552h-117v0z" />
    <glyph glyph-name="bracketright" unicode="]" horiz-adv-x="583" 
d="M76 1172v119h303v-1551h-303v121h144v1311h-144v0z" />
    <glyph glyph-name="underscore" unicode="_" horiz-adv-x="1141" 
d="M1 195h1139v-195h-1139v195z" />
    <glyph glyph-name="grave" unicode="`" horiz-adv-x="458" 
d="M104 729l60 475h184v-151l-146 -324h-98v0z" />
    <glyph glyph-name="braceleft" unicode="{" horiz-adv-x="665" 
d="M443 721q0 -28 -7.5 -58t-25.5 -57t-47.5 -47t-72.5 -27q43 -7 72 -26.5t47 -46.5t26 -57t8 -58v-215q0 -76 2.5 -138t21 -106t59.5 -67t118 -21v-63q-78 -10 -143.5 0t-112.5 50t-73.5 114.5t-26.5 193.5v270q2 38 -9 68q-10 26 -35.5 47t-76.5 21v69q51 0 76.5 20.5
t35.5 46.5q11 30 9 68v271q0 119 26.5 193.5t73.5 114.5t112.5 50t143.5 0v-63q-77 2 -118 -21t-59.5 -67t-21 -106t-2.5 -138v-215v0z" />
    <glyph glyph-name="bar" unicode="|" horiz-adv-x="546" 
d="M333 -260h-113v1551h113v-1551z" />
    <glyph glyph-name="braceright" unicode="}" horiz-adv-x="632" 
d="M196 936q0 76 -2.5 138t-21 106t-59.5 67t-118 21v63q78 10 143.5 0t112.5 -50t73.5 -114.5t26.5 -193.5v-271q-2 -38 9 -68q10 -26 35 -46.5t77 -20.5v-69q-26 0 -45 -6t-32 -15.5t-21.5 -21.5t-13.5 -25q-11 -30 -9 -68v-270q0 -119 -26.5 -193.5t-73.5 -114.5
t-112.5 -50t-143.5 0v63q77 -2 118 21t59.5 67t21 106t2.5 138v215q0 28 8 58t26 57t47 46.5t72 26.5q-44 7 -73 27t-47 47t-25.5 57t-7.5 58v215z" />
    <glyph glyph-name="guillemotleft" unicode="&#xab;" horiz-adv-x="610" 
d="M111 1204h164v-149l-130 -319h-88zM373 1204h164v-149l-130 -319h-88z" />
    <glyph glyph-name="guillemotright" unicode="&#xbb;" horiz-adv-x="594" 
d="M111 1204h164v-149l-130 -319h-88zM373 1204h164v-149l-130 -319h-88z" />
    <glyph glyph-name="ellipsis" unicode="&#x2026;" horiz-adv-x="1763" 
d="M204 0v260h256v-260h-256zM745 0v260h256v-260h-256zM1324 0v260h256v-260h-256z" />
    <glyph glyph-name="endash" unicode="&#x2013;" horiz-adv-x="1108" 
d="M43 612h1025v-160h-1025v160z" />
    <glyph glyph-name="emdash" unicode="&#x2014;" horiz-adv-x="2177" 
d="M77 588h2068v-116h-2068v116z" />
    <glyph glyph-name="quotedblleft" unicode="&#x201c;" horiz-adv-x="610" 
d="M111 1204h164v-149l-130 -319h-88zM373 1204h164v-149l-130 -319h-88z" />
    <glyph glyph-name="quotedblright" unicode="&#x201d;" horiz-adv-x="610" 
d="M111 1204h164v-149l-130 -319h-88zM373 1204h164v-149l-130 -319h-88z" />
    <glyph glyph-name="quoteleft" unicode="&#x2018;" horiz-adv-x="442" 
d="M104 729l60 475h184v-151l-146 -324h-98v0z" />
    <glyph glyph-name="quoteright" unicode="&#x2019;" horiz-adv-x="440" 
d="M104 729l60 475h184v-151l-146 -324h-98v0z" />
    <glyph glyph-name="periodcentered" unicode="&#xb7;" horiz-adv-x="618" 
d="M190 428v260h256v-260h-256z" />
    <glyph glyph-name="quotesinglbase" unicode="&#x201a;" horiz-adv-x="442" 
d="M104 729l60 475h184v-151l-146 -324h-98v0z" />
    <glyph glyph-name="quotedblbase" unicode="&#x201e;" horiz-adv-x="610" 
d="M111 1204h164v-149l-130 -319h-88zM373 1204h164v-149l-130 -319h-88z" />
    <glyph glyph-name="minus" unicode="&#x2212;" horiz-adv-x="807" 
d="M107 625h588v-176h-588v176z" />
    <glyph glyph-name="arrowleft" unicode="&#x2190;" horiz-adv-x="2062" 
d="M553 823l-267 -229h1672v-121h-1672l269 -230h-162l-303 285l303 295h160z" />
    <glyph glyph-name="arrowright" unicode="&#x2192;" horiz-adv-x="2062" 
d="M1624 823l303 -295l-303 -285h-162l269 230h-1672v121h1672l-267 229h160z" />
    <glyph glyph-name="heart" unicode="&#x2665;" horiz-adv-x="1217" 
d="M606 133q-155 189 -236 290.5t-91 115.5q-31 48 -46.5 87t-15.5 81q0 73 53 124q53 52 129 52q78 0 138 -54q43 -37 69 -116q26 77 68 116q57 54 137 54q76 0 129 -51q53 -50 53 -119q0 -60 -32 -129q-32 -66 -355 -451z" />
    <glyph glyph-name="sheva" unicode="&#x5b0;" 
d="M-77 -206q0 32 22.5 54.5t54.5 22.5t55 -22.5t23 -54.5t-23 -55t-55 -23t-54.5 23t-22.5 55zM-77 -446q0 32 22.5 54.5t54.5 22.5t55 -22.5t23 -54.5t-23 -55t-55 -23t-54.5 23t-22.5 55z" />
    <glyph glyph-name="hatafsegol" unicode="&#x5b1;" 
d="M243 -206q0 32 22.5 54.5t54.5 22.5t55 -22.5t23 -54.5t-23 -55t-55 -23t-54.5 23t-22.5 55zM243 -446q0 32 22.5 54.5t54.5 22.5t55 -22.5t23 -54.5t-23 -55t-55 -23t-54.5 23t-22.5 55zM-37 -206q0 32 22.5 54.5t54.5 22.5t55 -22.5t23 -54.5t-23 -55t-55 -23t-54.5 23
t-22.5 55zM-307 -206q0 32 22.5 54.5t54.5 22.5t55 -22.5t23 -54.5t-23 -55t-55 -23t-54.5 23t-22.5 55zM-171 -410q0 32 22.5 54.5t54.5 22.5t55 -22.5t23 -54.5t-23 -55t-55 -23t-54.5 23t-22.5 55z" />
    <glyph glyph-name="hatafpatah" unicode="&#x5b2;" 
d="M243 -206q0 32 22.5 54.5t54.5 22.5t55 -22.5t23 -54.5t-23 -55t-55 -23t-54.5 23t-22.5 55zM243 -446q0 32 22.5 54.5t54.5 22.5t55 -22.5t23 -54.5t-23 -55t-55 -23t-54.5 23t-22.5 55zM-302 -251v102h424v-102h-424z" />
    <glyph glyph-name="hatafqamats" unicode="&#x5b3;" 
d="M243 -206q0 32 22.5 54.5t54.5 22.5t55 -22.5t23 -54.5t-23 -55t-55 -23t-54.5 23t-22.5 55zM243 -446q0 32 22.5 54.5t54.5 22.5t55 -22.5t23 -54.5t-23 -55t-55 -23t-54.5 23t-22.5 55zM-146 -439v188h-156v102h424v-102h-154v-188h-114z" />
    <glyph glyph-name="hiriq" unicode="&#x5b4;" 
d="M1 -140q19 0 36.5 -7.5t30.5 -20t20.5 -30t7.5 -37.5q0 -21 -7.5 -38t-20.5 -30t-30.5 -20t-36.5 -7q-42 0 -69.5 26.5t-27.5 68.5q0 17 6 34t18.5 30.5t30.5 22t42 8.5z" />
    <glyph glyph-name="tsere" unicode="&#x5b5;" 
d="M-130 -141q28 0 57 -21q27 -23 27 -63q0 -35 -24.5 -59.5t-59.5 -24.5q-39 0 -61.5 23.5t-22.5 60.5q0 36 23.5 60t60.5 24zM130 -141q21 0 36.5 -7.5t26 -19.5t16 -27t5.5 -30q0 -37 -23 -60.5t-61 -23.5q-14 0 -29 5.5t-27 16.5t-20 26.5t-8 35.5q0 16 6 31t17 27
t26.5 19t34.5 7z" />
    <glyph glyph-name="segol" unicode="&#x5b6;" 
d="M-130 -140q28 0 57 -21q27 -23 27 -63q0 -35 -24.5 -59.5t-59.5 -24.5q-39 0 -61.5 23.5t-22.5 60.5t23.5 60.5t60.5 23.5zM130 -140q21 0 36.5 -7.5t26 -19.5t16 -27t5.5 -30q0 -37 -23 -60.5t-61 -23.5q-14 0 -29 5.5t-27 16.5t-20 26.5t-8 35.5q0 16 6 31t17 27
t26.5 19t34.5 7zM1 -351q35 0 59.5 -24.5t24.5 -59.5q0 -18 -6.5 -33t-18 -26.5t-27 -18t-32.5 -6.5q-37 0 -61.5 24.5t-24.5 59.5t24.5 59.5t61.5 24.5z" />
    <glyph glyph-name="patah" unicode="&#x5b7;" 
d="M394 -251v102h424v-102h-424z" />
    <glyph glyph-name="qamats" unicode="&#x5b8;" 
d="M-56 -439v188h-156v102h424v-102h-154v-188h-114z" />
    <glyph glyph-name="holam" unicode="&#x5b9;" 
d="M-82 1248q0 37 25 62t62 25t62.5 -25t25.5 -62t-25.5 -62.5t-62.5 -25.5t-62 25.5t-25 62.5z" />
    <glyph glyph-name="qubuts" unicode="&#x5bb;" 
d="M-76 -326q0 32 22.5 54.5t54.5 22.5t55 -22.5t23 -54.5t-23 -55t-55 -23t-54.5 23t-22.5 55zM84 -456q0 32 22.5 54.5t54.5 22.5t55 -22.5t23 -54.5t-23 -55t-55 -23t-54.5 23t-22.5 55zM-236 -196q0 32 22.5 54.5t54.5 22.5t55 -22.5t23 -54.5t-23 -55t-55 -23t-54.5 23
t-22.5 55z" />
    <glyph glyph-name="dagesh" unicode="&#x5bc;" 
d="M0 662q15 0 30 -5.5t27 -16.5t19.5 -26.5t7.5 -35.5q0 -35 -24.5 -59.5t-59.5 -24.5t-59.5 23.5t-24.5 60.5q0 15 5.5 30t16 27t26 19.5t36.5 7.5z" />
    <glyph glyph-name="meteg" unicode="&#x5bd;" 
d="M-52 -111h104v-379h-104v379z" />
    <glyph glyph-name="maqaf" unicode="&#x5be;" horiz-adv-x="630" 
d="M60 1060h502v-191h-502v191z" />
    <glyph glyph-name="paseq" unicode="&#x5c0;" 
d="M-97 -1v1277h195v-1277h-195z" />
    <glyph glyph-name="shindot" unicode="&#x5c1;" 
d="M-82 1248q0 37 25 62t62 25t62.5 -25t25.5 -62t-25.5 -62.5t-62.5 -25.5t-62 25.5t-25 62.5z" />
    <glyph glyph-name="sindot" unicode="&#x5c2;" 
d="M-82 1248q0 37 25 62t62 25t62.5 -25t25.5 -62t-25.5 -62.5t-62.5 -25.5t-62 25.5t-25 62.5z" />
    <glyph glyph-name="alef" unicode="&#x5d0;" horiz-adv-x="1192" 
d="M824 0l-375 580q-31 -9 -50 -21.5t-29.5 -31t-14 -46t-3.5 -67.5v-414h-242v354q0 63 11.5 122.5t39 108t74.5 82.5t118 46l-235 348h264l323 -489q40 3 66 14.5t41.5 32t21.5 50t6 68.5v324h240v-299q0 -78 -19 -137.5t-54.5 -101.5t-85.5 -67.5t-112 -35.5l288 -420
h-273z" />
    <glyph glyph-name="bet" unicode="&#x5d1;" horiz-adv-x="1012" 
d="M945 195v-195h-856l2 195h481v671h-477v195h729v-866h121v0z" />
    <glyph glyph-name="gimel" unicode="&#x5d2;" horiz-adv-x="747" 
d="M425 279q-11 -73 -39 -126t-69.5 -87t-96 -50t-117.5 -16h-59v225h108q71 0 119 26t76 72.5t36.5 110t0.5 139.5q-5 39 -11.5 90t-12.5 96q-7 53 -15 107h-209v195h418l143 -1061h-222l-42 279h-8z" />
    <glyph glyph-name="dalet" unicode="&#x5d3;" horiz-adv-x="1001" 
d="M542 0v866h-494v195h869v-195h-117v-866h-258v0z" />
    <glyph glyph-name="he" unicode="&#x5d4;" horiz-adv-x="1122" 
d="M128 0v572h252v-572h-252zM120 1061h878v-1061h-254v866h-624v195z" />
    <glyph glyph-name="vav" unicode="&#x5d5;" horiz-adv-x="559" 
d="M149 1061h258v-1061h-258v1061v0z" />
    <glyph glyph-name="zayin" unicode="&#x5d6;" horiz-adv-x="811" 
d="M349 0q-22 102 -43 199q-9 41 -18.5 85t-18.5 86.5t-17.5 81t-14.5 68.5q-13 59 -15 113.5t9.5 99.5t39 79.5t72.5 53.5h-275v195h654v-195h-183q-39 -26 -54.5 -64t-16.5 -81.5t7.5 -88t17.5 -83.5q9 -40 18.5 -85t20 -90.5l21 -91t19.5 -87.5q22 -98 43 -195h-266v0z
" />
    <glyph glyph-name="het" unicode="&#x5d7;" horiz-adv-x="1210" 
d="M731 1061q108 0 175.5 -32.5t105.5 -91.5t51.5 -143t13.5 -186v-608h-254v592q0 59 -6 109.5t-25 87t-53 57t-90 20.5h-240v-866h-252v1061h574z" />
    <glyph glyph-name="tet" unicode="&#x5d8;" horiz-adv-x="1173" 
d="M1062 1061v-512q0 -155 -37 -260t-103.5 -169t-159.5 -92t-204 -28h-344l-131 1061h252l108 -866h45q51 0 96 3.5t82 17t66 40.5t49 74t30.5 118t10.5 173v245h-199v195h439z" />
    <glyph glyph-name="yod" unicode="&#x5d9;" horiz-adv-x="547" 
d="M150 1061h262v-596h-262v596v0z" />
    <glyph glyph-name="finalkaf" unicode="&#x5da;" horiz-adv-x="868" 
d="M742 1061v-1321h-260v1126h-426v195h686v0z" />
    <glyph glyph-name="kaf" unicode="&#x5db;" horiz-adv-x="950" 
d="M433 1061q217 0 318.5 -104.5t101.5 -321.5v-211q0 -215 -105.5 -319.5t-314.5 -104.5h-336v195h295q53 0 92 13.5t64.5 45.5t38 85t12.5 132v119q0 78 -12 131t-37.5 85.5t-64.5 46t-93 13.5h-299v195h340z" />
    <glyph glyph-name="lamed" unicode="&#x5dc;" horiz-adv-x="929" 
d="M898 1061l-395 -1061h-258l329 866h-504v412h240v-217h588z" />
    <glyph glyph-name="finalmem" unicode="&#x5dd;" horiz-adv-x="1144" 
d="M1037 0h-907v1061h551q101 0 169.5 -25t110 -75t59 -125.5t17.5 -176.5v-659zM802 627q0 54 -3.5 98t-22.5 75.5t-58 49t-111 17.5h-240v-673h435v433z" />
    <glyph glyph-name="mem" unicode="&#x5de;" horiz-adv-x="1132" 
d="M572 195h213v393q0 64 -10 115.5t-35 88t-69 56t-111 19.5h-68l-194 -867h-248l213 866h-172v195h514q120 0 201 -32t130.5 -96.5t70.5 -161t20 -226.5v-545h-455v195z" />
    <glyph glyph-name="finalnun" unicode="&#x5df;" horiz-adv-x="521" 
d="M134 1061h262v-1321h-262v1321v0z" />
    <glyph glyph-name="nun" unicode="&#x5e0;" horiz-adv-x="657" 
d="M207 195q34 0 53 5.5t29 20.5t12.5 43t2.5 73v529h-150v195h398v-786q0 -142 -65 -208.5t-195 -66.5h-244v195h159z" />
    <glyph glyph-name="samekh" unicode="&#x5e1;" horiz-adv-x="1132" 
d="M1033 1061v-512q0 -155 -38.5 -260t-107 -169t-163 -92t-205.5 -28h-313l-121 1061h948zM793 867h-448l88 -673h43q91 0 152 13.5t98 54t52 114.5t15 195v296z" />
    <glyph glyph-name="ayin" unicode="&#x5e2;" horiz-adv-x="1087" 
d="M980 1061v-440q0 -111 -13 -194.5t-53 -149t-115 -116t-199 -95.5q-24 -9 -59.5 -21t-77.5 -25.5t-88.5 -28.5t-91.5 -30q-106 -34 -224 -72l-52 191l283 84l-198 897h258l163 -828q63 24 104.5 48t66 62.5t34.5 98.5t10 156v463h252z" />
    <glyph glyph-name="finalpe" unicode="&#x5e3;" horiz-adv-x="1066" 
d="M958 -260h-258v854q0 78 -7 130.5t-27.5 84t-57.5 44.5t-97 13h-138v-401h-255v596h457q111 0 185 -24t118 -75t62 -129t18 -186v-907z" />
    <glyph glyph-name="pe" unicode="&#x5e4;" horiz-adv-x="1095" 
d="M576 1061q215 0 317.5 -104.5t102.5 -321.5v-211q0 -215 -106 -319.5t-314 -104.5h-442v195h401q52 0 92 12.5t66 43t39.5 82.5t13.5 130v143q0 79 -13 129.5t-39.5 80t-66 40.5t-92.5 11h-150v-386h-253v580h444z" />
    <glyph glyph-name="finaltsadi" unicode="&#x5e5;" horiz-adv-x="979" 
d="M873 1061l1 -283q0 -220 -109.5 -323.5t-315.5 -106.5l129 -608h-245l-283 1321h244l114 -532q60 1 102 11t68.5 37t39 75t12.5 124v285h243z" />
    <glyph glyph-name="tsadi" unicode="&#x5e6;" horiz-adv-x="1116" 
d="M978 758q0 -77 -15 -138t-49 -105t-88.5 -69.5t-132.5 -31.5l275 -414h-875v195h477l-536 866h268l294 -487q48 1 76 14.5t41.5 36.5t17 55t3.5 70v311h244v-303z" />
    <glyph glyph-name="qof" unicode="&#x5e7;" horiz-adv-x="1204" 
d="M1084 1061v-512q0 -155 -25.5 -260t-79.5 -169t-138.5 -92t-202.5 -28h-70v193h33q46 0 81 3.5t60.5 14.5t43 32t27.5 57t14.5 89t4.5 127v350h-700v195h952zM148 658h252v-918h-252v918z" />
    <glyph glyph-name="resh" unicode="&#x5e8;" horiz-adv-x="884" 
d="M427 1061q108 0 174.5 -35t103 -97.5t48.5 -148t12 -186.5v-594h-260v583q0 59 -6 110.5t-24 90t-51.5 60.5t-88.5 22h-293v195h385z" />
    <glyph glyph-name="shin" unicode="&#x5e9;" horiz-adv-x="1419" 
d="M1302 1061v-512q0 -275 -133.5 -412t-383.5 -137h-589l-99 1061h241l90 -866h263q81 0 150 9.5t119 41.5t78 93t28 163v559h236zM837 416h-238v645h238v-645z" />
    <glyph glyph-name="tav" unicode="&#x5ea;" horiz-adv-x="1235" 
d="M757 1061q108 0 176.5 -34t107.5 -94.5t53.5 -145t14.5 -185.5v-602h-256v590q0 59 -8 109.5t-29.5 87.5t-59.5 58t-98 21h-164v-866h-444v195h215v671h-129v195h621z" />
    <glyph glyph-name="newsheqelsign" unicode="&#x20aa;" horiz-adv-x="1732" 
d="M1204 375h-273v348q0 43 -7.5 71t-24 45t-43 24t-65.5 8h-363v-871h-265v1061h789q79 0 128 -26.5t76 -72.5t37 -106.5t11 -129.5v-351zM552 0v686h262v-496h375q30 0 55 6.5t43 21.5t28.5 38.5t10.5 57.5v747h255v-730q0 -73 -17 -133.5t-51 -104t-85 -68t-119 -25.5
h-757z" />
    <glyph glyph-name="vavshindot" unicode="&#xe801;" horiz-adv-x="602" 
d="M177 1061h258v-1061h-258v1061zM-92 1248q0 37 25 62t62 25t62.5 -25t25.5 -62t-25.5 -62.5t-62.5 -25.5t-62 25.5t-25 62.5z" />
    <glyph glyph-name="finalkafsheva" unicode="&#xe802;" horiz-adv-x="861" 
d="M746 -260h-260v1126h-426v195h686v-1321zM253 583q17 0 32.5 -6.5t27 -18t18 -26.5t6.5 -33q0 -37 -24.5 -60.5t-59.5 -23.5q-37 0 -61.5 23.5t-24.5 60.5q0 15 5.5 30t16 27t27 19.5t37.5 7.5zM253 321q17 0 32.5 -6.5t27 -18t18 -26.5t6.5 -33q0 -37 -24.5 -60.5
t-59.5 -23.5q-37 0 -61.5 23.5t-24.5 60.5t24.5 60.5t61.5 23.5z" />
    <glyph glyph-name="finalkafqamats" unicode="&#xe803;" horiz-adv-x="877" 
d="M749 1061v-1321h-260v1126h-426v195h686zM193 250v153h-107v75h296v-75h-105v-153h-84z" />
    <glyph glyph-name="lamedholam" unicode="&#xe804;" horiz-adv-x="943" 
d="M900 1061l-395 -1061h-258l329 866h-504v412h240v-217h588zM-106 1320q14 0 29 -6t27 -17t20 -26.5t8 -34.5q0 -18 -6.5 -33t-18 -26.5t-27 -18t-32.5 -6.5t-32.5 6.5t-27.5 18t-19 26.5t-7 33q0 34 24.5 59t61.5 25z" />
    <glyph glyph-name="lamedholamdagesh" unicode="&#xe805;" horiz-adv-x="924" 
d="M892 1061l-395 -1061h-258l329 866h-504v412h240v-217h588zM-130 1320q14 0 29 -6t27 -17t20 -26.5t8 -34.5q0 -18 -6.5 -33t-18 -26.5t-27 -18t-32.5 -6.5t-32.5 6.5t-27.5 18t-19 26.5t-7 33q0 34 24.5 59t61.5 25zM261 678q15 0 30 -5.5t27 -16.5t19.5 -26.5
t7.5 -35.5q0 -35 -24.5 -59.5t-59.5 -24.5t-59.5 23.5t-24.5 60.5q0 15 5.5 30t16 27t26 19.5t36.5 7.5z" />
    <glyph glyph-name="shinshindot" unicode="&#xfb2a;" horiz-adv-x="1409" 
d="M1298 1061v-512q0 -275 -133.5 -412t-383.5 -137h-589l-99 1061h236l90 -867h268q81 0 150 9.5t119 42t78 93.5t28 163v559h236zM829 416h-230v645h230v-645zM1182 1323q14 0 29 -6t27 -17t20 -26.5t8 -34.5q0 -18 -6.5 -33t-18 -26.5t-27 -18t-32.5 -6.5t-32.5 6.5
t-27.5 18t-19 26.5t-7 33q0 34 24.5 59t61.5 25z" />
    <glyph glyph-name="shinsindot" unicode="&#xfb2b;" horiz-adv-x="1395" 
d="M1286 1061v-512q0 -275 -133.5 -412t-383.5 -137h-589l-99 1061h236l90 -877h268q81 0 150 11.5t119 45.5t78 96.5t28 164.5v559h236zM817 416h-230v645h230v-645zM169 1324q14 0 29 -6t27 -17t20 -26.5t8 -34.5q0 -18 -6.5 -33t-18 -26.5t-27 -18t-32.5 -6.5t-32.5 6.5
t-27.5 18t-19 26.5t-7 33q0 34 24.5 59t61.5 25z" />
    <glyph glyph-name="shindageshshindot" unicode="&#xfb2c;" horiz-adv-x="1436" 
d="M721 450q14 0 28.5 -6t26.5 -17t20 -27t8 -35q0 -36 -24.5 -61t-58.5 -25q-17 0 -32.5 6.5t-27 18.5t-18.5 27.5t-7 33.5q0 35 24 60t61 25zM1304 1061v-512q0 -275 -133.5 -412t-383.5 -137h-589l-99 1061h236l90 -877h268q81 0 150 11.5t119 45.5t78 96.5t28 164.5v559
h236zM835 516h-230v545h230v-545zM1173 1350q14 0 29 -6t27 -17t20 -26.5t8 -34.5q0 -18 -6.5 -33t-18 -26.5t-27 -18t-32.5 -6.5t-32.5 6.5t-27.5 18t-19 26.5t-7 33q0 34 24.5 59t61.5 25z" />
    <glyph glyph-name="shindageshsindot" unicode="&#xfb2d;" horiz-adv-x="1439" 
d="M214 1337q14 0 29 -6t27 -17t20 -26.5t8 -34.5q0 -18 -6.5 -33t-18 -26.5t-27 -18t-32.5 -6.5t-32.5 6.5t-27.5 18t-19 26.5t-7 33q0 34 24.5 59t61.5 25zM732 450q14 0 28.5 -6t26.5 -17t20 -27t8 -35q0 -36 -24.5 -61t-58.5 -25q-17 0 -32.5 6.5t-27 18.5t-18.5 27.5
t-7 33.5q0 35 24 60t61 25zM1315 1061v-512q0 -275 -133.5 -412t-383.5 -137h-589l-99 1061h236l90 -877h268q81 0 150 11.5t119 45.5t78 96.5t28 164.5v559h236zM846 516h-230v545h230v-545z" />
    <glyph glyph-name="betdagesh" unicode="&#xfb31;" horiz-adv-x="1008" 
d="M951 195v-195h-856l2 195h481v671h-477v195h729v-866h121zM335 642q15 0 30 -5.5t27 -16.5t19.5 -26.5t7.5 -35.5q0 -35 -24.5 -59.5t-59.5 -24.5t-59.5 23.5t-24.5 60.5q0 15 5.5 30t16 27t26 19.5t36.5 7.5z" />
    <glyph glyph-name="gimeldagesh" unicode="&#xfb32;" horiz-adv-x="767" 
d="M427 279q-11 -73 -39 -126t-69.5 -87t-96 -50t-117.5 -16h-59v225h108q71 0 119 26t76 72.5t36.5 110t0.5 139.5q-5 39 -11.5 90t-12.5 96q-7 53 -15 107h-209v195h418l143 -1061h-222l-42 279h-8zM175 662q15 0 30 -5.5t27 -16.5t19.5 -26.5t7.5 -35.5
q0 -35 -24.5 -59.5t-59.5 -24.5t-59.5 23.5t-24.5 60.5q0 15 5.5 30t16 27t26 19.5t36.5 7.5z" />
    <glyph glyph-name="daletdagesh" unicode="&#xfb33;" horiz-adv-x="1013" 
d="M556 0v866h-494v195h869v-195h-117v-866h-258zM304 614q15 0 30 -5.5t27 -16.5t19.5 -26.5t7.5 -35.5q0 -35 -24.5 -59.5t-59.5 -24.5t-59.5 23.5t-24.5 60.5q0 15 5.5 30t16 27t26 19.5t36.5 7.5z" />
    <glyph glyph-name="hedagesh" unicode="&#xfb34;" horiz-adv-x="1159" 
d="M146 572h252v-572h-252v572zM1016 1061v-1061h-254v866h-624v195h878zM590 695q15 0 30 -5.5t27 -16.5t19.5 -26.5t7.5 -35.5q0 -35 -24.5 -59.5t-59.5 -24.5t-59.5 23.5t-24.5 60.5q0 15 5.5 30t16 27t26 19.5t36.5 7.5z" />
    <glyph glyph-name="vavdagesh" unicode="&#xfb35;" horiz-adv-x="641" 
d="M206 1061h258v-1061h-258v1061zM36 668q14 0 29 -6t27 -17t20 -26.5t8 -34.5q0 -18 -6.5 -33t-18 -26.5t-27 -18t-32.5 -6.5t-32.5 6.5t-27.5 18t-19 26.5t-7 33q0 34 24.5 59t61.5 25z" />
    <glyph glyph-name="zayindagesh" unicode="&#xfb36;" horiz-adv-x="781" 
d="M341 0q-22 102 -43 199q-9 41 -18.5 85t-18.5 86.5t-17.5 81t-14.5 68.5q-13 59 -15 113.5t9.5 99.5t39 79.5t72.5 53.5h-275v195h654v-195h-183q-39 -26 -54.5 -64t-16.5 -81.5t7.5 -88t17.5 -83.5q9 -40 18.5 -85t20 -90.5l21 -91t19.5 -87.5q22 -98 43 -195h-266z
M83 558q14 0 29 -6t27 -17t20 -26.5t8 -34.5q0 -18 -6.5 -33t-18 -26.5t-27 -18t-32.5 -6.5t-32.5 6.5t-27.5 18t-19 26.5t-7 33q0 34 24.5 59t61.5 25z" />
    <glyph glyph-name="tetdagesh" unicode="&#xfb38;" horiz-adv-x="1190" 
d="M1080 1061v-512q0 -155 -37 -260t-103.5 -169t-159.5 -92t-204 -28h-344l-131 1061h252l108 -875h45q51 0 96 4t82 18.5t66 42.5t49 76.5t30.5 120t10.5 173.5v245h-199v195h439zM630 668q15 0 30 -5.5t27 -16.5t19.5 -26.5t7.5 -35.5q0 -35 -24.5 -59.5t-59.5 -24.5
t-59.5 23.5t-24.5 60.5q0 15 5.5 30t16 27t26 19.5t36.5 7.5z" />
    <glyph glyph-name="yoddagesh" unicode="&#xfb39;" horiz-adv-x="663" 
d="M248 1061h262v-596h-262v596zM65 769q14 0 29 -6t27 -17t20 -26.5t8 -34.5q0 -18 -6.5 -33t-18 -26.5t-27 -18t-32.5 -6.5t-32.5 6.5t-27.5 18t-19 26.5t-7 33q0 34 24.5 59t61.5 25z" />
    <glyph glyph-name="finalkafdagesh" unicode="&#xfb3a;" horiz-adv-x="886" 
d="M738 -260h-260v1126h-426v195h686v-1321zM263 605q15 0 30 -5.5t27 -16.5t19.5 -26.5t7.5 -35.5q0 -35 -24.5 -59.5t-59.5 -24.5t-59.5 23.5t-24.5 60.5q0 15 5.5 30t16 27t26 19.5t36.5 7.5z" />
    <glyph glyph-name="kafdagesh" unicode="&#xfb3b;" horiz-adv-x="956" 
d="M425 1061q217 0 318.5 -104.5t101.5 -321.5v-211q0 -215 -105.5 -319.5t-314.5 -104.5h-336v195h295q53 0 92 13.5t64.5 45.5t38 85t12.5 132v119q0 78 -12 131t-37.5 85.5t-64.5 46t-93 13.5h-299v195h340zM288 637q15 0 30 -5.5t27 -16.5t19.5 -26.5t7.5 -35.5
q0 -35 -24.5 -59.5t-59.5 -24.5t-59.5 23.5t-24.5 60.5q0 15 5.5 30t16 27t26 19.5t36.5 7.5z" />
    <glyph glyph-name="lameddagesh" unicode="&#xfb3c;" horiz-adv-x="940" 
d="M896 1061l-395 -1061h-258l329 866h-504v412h240v-217h588zM244 683q15 0 30 -5.5t27 -16.5t19.5 -26.5t7.5 -35.5q0 -35 -24.5 -59.5t-59.5 -24.5t-59.5 23.5t-24.5 60.5q0 15 5.5 30t16 27t26 19.5t36.5 7.5z" />
    <glyph glyph-name="memdagesh" unicode="&#xfb3e;" horiz-adv-x="1155" 
d="M574 195h213v393q0 64 -10 117.5t-35 92t-69 60t-111 21.5h-68l-194 -879h-248l213 866h-172v195h514q120 0 201 -32t130.5 -96.5t70.5 -161t20 -226.5v-545h-455v195zM585 558q15 0 30 -5.5t27 -16.5t19.5 -26.5t7.5 -35.5q0 -35 -24.5 -59.5t-59.5 -24.5t-59.5 23.5
t-24.5 60.5q0 15 5.5 30t16 27t26 19.5t36.5 7.5z" />
    <glyph glyph-name="nundagesh" unicode="&#xfb40;" horiz-adv-x="702" 
d="M79 195h159q34 0 53 5.5t29 20.5t12.5 43t2.5 73v529h-150v195h398v-786q0 -142 -65 -208.5t-195 -66.5h-244v195zM128 647q15 0 30 -5.5t27 -16.5t19.5 -26.5t7.5 -35.5q0 -35 -24.5 -59.5t-59.5 -24.5t-59.5 23.5t-24.5 60.5q0 15 5.5 30t16 27t26 19.5t36.5 7.5z" />
    <glyph glyph-name="samekhdagesh" unicode="&#xfb41;" horiz-adv-x="1155" 
d="M604 651q14 0 29 -6t27 -17t20 -26.5t8 -34.5q0 -18 -6.5 -33t-18 -26.5t-27 -18t-32.5 -6.5t-32.5 6.5t-27.5 18t-19 26.5t-7 33q0 34 24.5 59t61.5 25zM1041 1061v-512q0 -155 -38.5 -260t-107 -169t-163 -92t-205.5 -28h-313l-121 1061h948zM801 867h-448l86 -673h45
q91 0 152 13.5t98 54t52 114.5t15 195v296z" />
    <glyph glyph-name="pedagesh" unicode="&#xfb44;" horiz-adv-x="1132" 
d="M594 1061q215 0 317.5 -104.5t102.5 -321.5v-211q0 -215 -106 -319.5t-314 -104.5h-442v195h401q52 0 92 12.5t66 43t39.5 82.5t13.5 130v143q0 79 -13 129.5t-39.5 80t-66 40.5t-92.5 11h-174v-386h-229v580h444zM565 651q14 0 29 -6t27 -17t20 -26.5t8 -34.5
q0 -18 -6.5 -33t-18 -26.5t-27 -18t-32.5 -6.5t-32.5 6.5t-27.5 18t-19 26.5t-7 33q0 34 24.5 59t61.5 25z" />
    <glyph glyph-name="tsadidagesh" unicode="&#xfb46;" horiz-adv-x="1128" 
d="M998 758q0 -77 -15 -138t-49 -105t-88.5 -69.5t-132.5 -31.5l275 -414h-875v195h489l-548 866h268l297 -488q48 1 75.5 14.5t40.5 37t16 55.5t3 70v311h244v-303zM236 500q15 0 30 -5.5t27 -16.5t19.5 -26.5t7.5 -35.5q0 -35 -24.5 -59.5t-59.5 -24.5t-59.5 23.5
t-24.5 60.5q0 15 5.5 30t16 27t26 19.5t36.5 7.5z" />
    <glyph glyph-name="qofdagesh" unicode="&#xfb47;" horiz-adv-x="1251" 
d="M1117 1061v-512q0 -155 -25.5 -260t-79.5 -169t-138.5 -92t-202.5 -28h-70v194h33q69 0 113.5 8.5t71 41t36.5 97t10 175.5v350h-700v195h952zM181 658h252v-918h-252v918zM621 703q15 0 30 -5.5t27 -16.5t19.5 -26.5t7.5 -35.5q0 -35 -24.5 -59.5t-59.5 -24.5
t-59.5 23.5t-24.5 60.5q0 15 5.5 30t16 27t26 19.5t36.5 7.5z" />
    <glyph glyph-name="shindagesh" unicode="&#xfb49;" horiz-adv-x="1395" 
d="M702 450q14 0 28.5 -6t26.5 -17t20 -27t8 -35q0 -36 -24.5 -61t-58.5 -25q-17 0 -32.5 6.5t-27 18.5t-18.5 27.5t-7 33.5q0 35 24 60t61 25zM1285 1061v-512q0 -275 -133.5 -412t-383.5 -137h-589l-99 1061h236l90 -877h268q81 0 150 11.5t119 45.5t78 96.5t28 164.5v559
h236zM816 516h-230v545h230v-545z" />
    <glyph glyph-name="tavdages" unicode="&#xfb4a;" horiz-adv-x="1260" 
d="M768 1061q108 0 176.5 -34t107.5 -94.5t53.5 -145t14.5 -185.5v-602h-256v590q0 59 -8 109.5t-29.5 87.5t-59.5 58t-98 21h-164v-866h-444v195h215v671h-129v195h621zM685 609q15 0 30 -5.5t27 -16.5t19.5 -26.5t7.5 -35.5q0 -35 -24.5 -59.5t-59.5 -24.5t-59.5 23.5
t-24.5 60.5q0 15 5.5 30t16 27t26 19.5t36.5 7.5z" />
    <glyph glyph-name="vavholam" unicode="&#xfb4b;" horiz-adv-x="622" 
d="M193 1061h258v-1061h-258v1061zM228 1248q0 37 25 62t62 25t62.5 -25t25.5 -62t-25.5 -62.5t-62.5 -25.5t-62 25.5t-25 62.5z" />
    <glyph glyph-name="uniFB1D" unicode="&#xfb1d;" horiz-adv-x="545" 
d="M142 1061h262v-596h-262v596zM276 361q15 0 30 -5.5t27 -16.5t19.5 -26.5t7.5 -35.5q0 -35 -24.5 -59.5t-59.5 -24.5t-59.5 23.5t-24.5 60.5q0 15 5.5 30t16 27t26 19.5t36.5 7.5z" />
    <glyph glyph-name="space" unicode=" " horiz-adv-x="524" 
 />
    <glyph glyph-name="exclam" unicode="!" horiz-adv-x="557" 
d="M413 1277v-513l-52 -318h-164l-52 318v513h268zM153 0v260h256v-260h-256z" />
    <glyph glyph-name="question" unicode="?" horiz-adv-x="902" 
d="M440 1280q97 0 168.5 -26t119 -72.5t71 -109.5t23.5 -137q0 -73 -21 -124.5t-52.5 -92t-68 -74t-67.5 -70t-51 -80t-19 -104.5h-208q-9 73 6 132t42.5 107.5t62 88t65 73.5t51 63.5t20.5 58.5q0 78 -37 125.5t-106 47.5q-40 0 -71.5 -12t-52.5 -38t-31 -66t-7 -97h-240
q-7 85 12.5 159.5t68 129.5t128.5 86.5t194 31.5zM319 0v224h243v-224h-243z" />
    <glyph glyph-name="dollar" unicode="$" horiz-adv-x="896" 
d="M809 285q0 -125 -79.5 -199.5t-239.5 -83.5v-135h-101v135q-74 2 -128 19.5t-91 52t-58.5 86t-29.5 122.5h195q13 -58 36 -89.5t76 -41.5v328q-52 29 -106 63t-97.5 73.5t-71 85t-27.5 98.5t16 100t52 82.5t93.5 57.5t140.5 24v135h101v-137q73 -4 131.5 -24.5t100 -57
t63.5 -88t24 -116.5l-209 1q-2 63 -30.5 92t-79.5 40v-269q54 -33 109 -63t100 -69t75 -92t35 -130zM286 807q0 -22 3.5 -38.5t14.5 -31.5t31 -30t54 -35v240q-59 -5 -81 -27.5t-22 -77.5zM490 153q66 2 99.5 28t33.5 89q0 32 -5.5 55t-20 42.5t-40.5 37.5t-67 41v-293z" />
    <glyph glyph-name="at" unicode="@" horiz-adv-x="1470" 
d="M859 -203q-140 -26 -258 -17.5t-214 44.5t-169.5 95t-123 134t-74.5 162.5t-25 179.5t24.5 179.5t70.5 164t112.5 140.5t150 110.5t182.5 72t211 25.5q159 0 291 -40.5t227 -116.5t147.5 -185.5t53.5 -246.5q0 -68 -15 -131t-42 -118.5t-63 -102t-78.5 -81t-88.5 -55.5
t-92 -26q-56 -6 -102 5.5t-80 35.5t-53.5 59.5t-22.5 77.5q-32 -38 -75.5 -57t-102.5 -17q-62 1 -116 22t-88.5 68.5t-44 123t17.5 185.5q21 85 54.5 143t78 92t99 47t116.5 9q71 -5 110 -34t52 -85q5 20 9 35.5t7 26.5q4 13 6 24h160q-27 -100 -46 -169t-32 -116.5t-21 -77
t-14 -51t-11 -39t-11 -40.5q-28 -98 -2.5 -140t96.5 -34q51 4 90 43.5t65 99t39 132.5t13 145q-1 132 -38 221.5t-105.5 144t-166.5 78t-221 23.5q-117 0 -216.5 -39t-173 -112.5t-115 -179.5t-41.5 -239t34 -235t110.5 -166.5t201 -87.5t304.5 2l10 -109zM873 442
q18 65 19.5 109t-12 71t-42 38.5t-71.5 11.5q-35 0 -62 -9t-49 -34t-40 -68t-36 -110q-35 -142 -9.5 -203t110.5 -58q43 2 71 15t48 42t36.5 76.5t36.5 118.5z" />
    <glyph glyph-name="ampersand" unicode="&#x26;" horiz-adv-x="1108" 
d="M411 -27q-48 3 -90 10t-78 22t-67.5 39.5t-58.5 62.5q-54 81 -58.5 161t30 157t102.5 148t160 134q-28 31 -59.5 74t-57.5 77q-59 83 -64.5 162t34 141t121.5 100t198 38q77 0 134.5 -22.5t95 -60t56 -85.5t17 -99t-22 -101t-60.5 -91q-43 -42 -95 -76t-93 -64l266 -329
q18 47 21 110t1 136h168q8 -97 -15 -191.5t-79 -172.5l197 -253h-219l-90 116q-79 -71 -178 -109.5t-216 -33.5zM514 1175q-51 0 -90.5 -22t-56.5 -61t-6 -94t61 -121q12 -15 25.5 -31.5t27.5 -35.5q35 29 65 56.5t51 50.5q41 44 53.5 90t0.5 83.5t-46 61t-85 23.5zM425 597
q-43 -33 -84 -75.5t-64.5 -92t-22 -105t43.5 -115.5q27 -39 74.5 -60.5t106 -22.5t122.5 20t125 68z" />
    <glyph glyph-name="A" unicode="A" horiz-adv-x="1207" 
d="M459 1278h309l486 -1278h-261l-131 387h-499l-131 -387h-261zM418 551h389l-195 575z" />
    <glyph glyph-name="B" unicode="B" horiz-adv-x="1114" 
d="M777 696q74 -11 124.5 -40t81.5 -74t44.5 -105t13.5 -133q0 -173 -97.5 -258.5t-289.5 -85.5h-524v1278h541q73 0 133.5 -21.5t103.5 -60t66.5 -92t23.5 -117.5q0 -62 -11 -110.5t-37 -85t-68.5 -60t-104.5 -35.5zM359 770h197q111 0 169 52.5t58 142.5q0 87 -52 122
t-167 35h-205v-352zM593 162q53 0 96 9t73.5 33t47 65t16.5 106q0 64 -17.5 108t-49 71t-76 38.5t-98.5 11.5h-226v-442h234z" />
    <glyph glyph-name="C" unicode="C" horiz-adv-x="1137" 
d="M601 167q118 0 179 61.5t75 180.5h240q-13 -110 -52 -188.5t-102 -129t-148.5 -74.5t-191.5 -24q-122 0 -215.5 31t-158.5 96.5t-100.5 166t-41.5 239.5q-1 31 -1.5 55.5t-0.5 49t0.5 53t1.5 68.5q9 267 140.5 400.5t375.5 133.5q102 0 186 -24.5t145.5 -75t100 -127.5
t49.5 -182h-233q-2 46 -20.5 88.5t-50.5 75t-77 52t-100 19.5q-138 0 -204.5 -79t-75.5 -236q-5 -72 -4.5 -153t4.5 -159q6 -159 73.5 -238.5t206.5 -79.5z" />
    <glyph glyph-name="D" unicode="D" horiz-adv-x="1210" 
d="M636 1278q105 0 182.5 -21.5t132 -61.5t89 -97t54 -128t26.5 -154.5t7 -176.5q0 -94 -7 -177.5t-26.5 -154.5t-54 -128t-89 -96.5t-132 -61t-182.5 -21.5h-463v1278h463zM562 158q87 0 145 16t94.5 45.5t55 72t26.5 96t8.5 117t0.5 134.5t-0.5 134t-8.5 116.5t-26.5 96
t-55 72.5t-95 46t-144.5 16h-153v-962h153z" />
    <glyph glyph-name="E" unicode="E" horiz-adv-x="962" 
d="M140 0v1278h774v-182h-532v-322h450v-180h-450v-414h532v-180h-774v0z" />
    <glyph glyph-name="F" unicode="F" horiz-adv-x="975" 
d="M140 1v1278h768l-2 -182h-524v-322h426v-180h-426v-594h-242v0z" />
    <glyph glyph-name="G" unicode="G" horiz-adv-x="1220" 
d="M1133 690v-79.5t-2 -84.5q-6 -139 -37 -240t-92.5 -167t-156.5 -97.5t-230 -31.5q-122 0 -216 31.5t-159 97.5t-100.5 167t-40.5 240q-2 31 -2.5 55.5t-0.5 49t0.5 53t2.5 68.5q9 267 140.5 402.5t375.5 135.5q102 0 189.5 -22t153 -68.5t106 -118t47.5 -170.5h-242
q-11 107 -77.5 156t-176.5 49q-70 0 -120.5 -20.5t-84.5 -60.5t-52.5 -100t-22.5 -138q-5 -72 -4 -153t4 -159q6 -159 73 -242.5t207 -83.5q79 0 135 23.5t92 70t52.5 115t17.5 158.5h-272v164h493z" />
    <glyph glyph-name="H" unicode="H" horiz-adv-x="1181" 
d="M824 733v545h244v-1278h-244v547h-450v-547h-242v1278h242v-545h450v0z" />
    <glyph glyph-name="I" unicode="I" horiz-adv-x="512" 
d="M134 0v1278h240v-1278h-240v0z" />
    <glyph glyph-name="J" unicode="J" horiz-adv-x="596" 
d="M218 1278h244v-983q0 -81 -15 -137.5t-44 -91.5t-71 -50.5t-96 -15.5h-239v180h108q31 0 53 2.5t35 16t19 41t6 77.5v961z" />
    <glyph glyph-name="K" unicode="K" horiz-adv-x="1132" 
d="M1111 1278l-492 -580l533 -698h-269l-507 674l507 604h228zM146 1278h228v-1278h-228v1278z" />
    <glyph glyph-name="L" unicode="L" horiz-adv-x="899" 
d="M404 1278v-1098h484v-180h-727v1278h243v0z" />
    <glyph glyph-name="M" unicode="M" horiz-adv-x="1523" 
d="M767 533l248 745h374v-1278h-215v1093l-301 -860h-213l-301 860v-1093h-217v1278h377l248 -745v0z" />
    <glyph glyph-name="N" unicode="N" horiz-adv-x="1290" 
d="M939 218v1060h221v-1278h-344l-465 1083v-1083h-223v1278h344l467 -1060v0z" />
    <glyph glyph-name="O" unicode="O" horiz-adv-x="1192" 
d="M595 1296q245 0 376 -137.5t140 -406.5q1 -40 2 -68.5t1 -53t-1 -49t-2 -55.5q-11 -278 -141.5 -411t-374.5 -133q-245 0 -374.5 133t-141.5 411q-1 31 -1.5 55.5t-0.5 49t0.5 53t1.5 68.5q9 269 139.5 406.5t376.5 137.5zM875 485q3 78 4 159t-4 153q-9 157 -75 241
t-205 84t-205.5 -84t-75.5 -241q-5 -72 -4 -153t4 -159q6 -158 74 -244.5t207 -86.5t206.5 86.5t73.5 244.5z" />
    <glyph glyph-name="P" unicode="P" horiz-adv-x="1050" 
d="M572 1278q93 0 172.5 -21.5t137.5 -68.5t91 -122.5t33 -184.5q0 -110 -34.5 -185t-93.5 -121.5t-138 -67t-168 -20.5h-213v-487h-239v1278h452zM537 651q45 0 90 8t81 32.5t58.5 69.5t22.5 120t-22 122t-58 73.5t-81 36t-91 9.5h-178v-471h178z" />
    <glyph glyph-name="Q" unicode="Q" horiz-adv-x="1204" 
d="M603 1296q246 0 376.5 -137.5t139.5 -406.5q1 -40 2 -68.5t1 -53t-1 -49t-2 -55.5q-11 -247 -119 -375.5t-301 -148.5q19 -2 40.5 -5.5t42 -7.5t39 -8.5t32.5 -9.5q22 -8 54 -19t61 -22q34 -12 71 -26l-55 -160q-90 36 -179 73q-38 16 -79.5 33t-83.5 34.5t-83 34.5
t-77 32q-62 26 -118 60t-109 77q-79 65 -120.5 174.5t-47.5 263.5q-1 31 -1.5 55.5t-0.5 49t0.5 53t1.5 68.5q9 269 140 406.5t376 137.5zM884 485q3 78 4 159t-4 153q-5 78 -23 139t-52 102t-85 62.5t-121 21.5q-138 0 -204.5 -84t-75.5 -241q-5 -72 -4 -153t4 -159
q6 -158 74 -244.5t206 -86.5q140 0 207.5 86.5t73.5 244.5z" />
    <glyph glyph-name="R" unicode="R" horiz-adv-x="1097" 
d="M1035 881q0 -92 -21.5 -160t-60 -114.5t-91 -73.5t-115.5 -37l266 -496h-244l-239 487h-148v-487h-236v1278h453q93 0 172.5 -21.5t138 -68.5t92 -122.5t33.5 -184.5zM564 651q45 0 90 8t81 32.5t58.5 69.5t22.5 120t-22.5 122t-58.5 73.5t-81 36t-90 9.5h-182v-471h182z
" />
    <glyph glyph-name="S" unicode="S" horiz-adv-x="995" 
d="M492 1296q111 0 194.5 -26.5t138.5 -76.5t81.5 -121t24.5 -159h-226q0 45 -13.5 87t-39.5 73.5t-66 50.5t-92 19q-38 0 -72.5 -11.5t-60 -32.5t-40.5 -49.5t-15 -62.5t10.5 -61.5t36 -53.5t69 -52.5t109.5 -57.5q102 -47 175.5 -91t121 -95t70 -113.5t22.5 -145.5
q0 -77 -33 -138t-91.5 -104.5t-139 -66.5t-176.5 -23q-78 0 -151 17t-130.5 59.5t-93.5 115t-39 183.5h226q0 -57 16 -96.5t42.5 -65t60.5 -37t69 -11.5q99 0 152 47.5t53 134.5q0 46 -16.5 81t-46.5 62.5t-71.5 50.5t-90.5 45q-92 43 -163.5 85t-120.5 90.5t-75 106
t-26 132.5q0 67 29 124t83.5 98.5t131.5 65t173 23.5z" />
    <glyph glyph-name="T" unicode="T" horiz-adv-x="860" 
d="M-3 1112v166h860v-166h-311v-1112h-246v1112h-303v0z" />
    <glyph glyph-name="U" unicode="U" horiz-adv-x="1204" 
d="M840 1278h248v-795q0 -123 -33.5 -215.5t-96.5 -153.5t-153.5 -91.5t-204.5 -30.5q-113 0 -203 30.5t-153 91.5t-97 153.5t-34 215.5v795h248v-780q0 -75 13 -136t42 -104t74 -66.5t110 -23.5q69 0 115.5 22.5t74 65.5t39 104t11.5 138v780z" />
    <glyph glyph-name="V" unicode="V" horiz-adv-x="1054" 
d="M529 267l297 1011h268l-444 -1278h-244l-444 1278h268l299 -1011v0z" />
    <glyph glyph-name="W" unicode="W" horiz-adv-x="1558" 
d="M1150 318l186 960h260l-320 -1278h-249l-244 993l-252 -993h-249l-312 1278h258l187 -960l225 960h285l225 -960v0z" />
    <glyph glyph-name="X" unicode="X" horiz-adv-x="1020" 
d="M748 1278h252l-350 -639l350 -639h-252l-233 474l-234 -474h-251l352 639l-352 639h251l234 -474l233 474v0z" />
    <glyph glyph-name="Y" unicode="Y" horiz-adv-x="948" 
d="M472 728l258 550h244l-385 -754v-524h-236v524l-383 754h244l258 -550v0z" />
    <glyph glyph-name="Z" unicode="Z" horiz-adv-x="868" 
d="M851 1278l-510 -1100h485v-178h-803l510 1104h-485v174h803v0z" />
    <glyph glyph-name="a" unicode="a" horiz-adv-x="999" 
d="M349 -12q-78 0 -132.5 20t-88.5 56t-49 85.5t-15 108.5t15.5 109t49.5 90t88 68.5t130 45.5q51 11 100 20.5t91.5 17.5t76 14.5t54.5 11.5q0 51 -12 79t-35 41t-57 15t-79 2q-18 0 -43.5 -1t-54 -2.5t-59 -3.5t-59.5 -4q-68 -5 -142 -11l-8 165q117 6 216 10l84 4t78 3.5
t63.5 2.5t39.5 1q97 0 155 -27t89 -78t41 -123.5t10 -162.5v-545h-225v121q-23 -35 -56 -60.5t-74.5 -41.5t-90 -23.5t-101.5 -7.5zM445 446q-85 -24 -132.5 -70t-47.5 -112q0 -33 15.5 -56t37.5 -37.5t47 -21t43 -6.5q63 0 112 21t82.5 55.5t51 80t17.5 93.5v111
q-60 -13 -120.5 -29t-105.5 -29z" />
    <glyph glyph-name="b" unicode="b" horiz-adv-x="1046" 
d="M345 0h-219v1278h219v-443q24 33 55 54.5t65.5 34.5t72 18t75.5 5q67 0 133 -22t118 -77.5t84 -150.5t32 -242q0 -148 -32 -238.5t-84 -140.5t-118 -67t-133 -17q-38 0 -79 7t-78 22t-66.5 39t-44.5 59v-119zM548 779q-43 0 -81 -16.5t-66.5 -54t-45 -98.5t-16.5 -151
q0 -86 16.5 -144t45 -93t66.5 -49.5t81 -14.5q44 0 82.5 11.5t67 44t45 91.5t16.5 154q0 96 -16.5 158t-45 98t-67 50t-82.5 14z" />
    <glyph glyph-name="c" unicode="c" horiz-adv-x="952" 
d="M892 301q-9 -86 -36 -146t-75 -97.5t-119 -54.5t-170 -17q-191 0 -295.5 97t-113.5 300q-2 23 -2.5 40.5t-0.5 35t0.5 38.5t2.5 50q3 97 31.5 170.5t80.5 123.5t127 75.5t170 25.5q93 0 163 -17.5t118.5 -55t77.5 -95t41 -137.5h-240q-9 78 -53.5 117t-106.5 39
q-44 0 -74.5 -13t-50.5 -39.5t-30.5 -66t-14.5 -92.5q-2 -48 -2 -103.5t2 -107.5q3 -54 13 -97.5t30.5 -74.5t51.5 -47.5t75 -16.5q73 0 113.5 45.5t48.5 120.5h238v0z" />
    <glyph glyph-name="d" unicode="d" horiz-adv-x="1011" 
d="M689 119q-15 -35 -45 -59t-67.5 -39t-78 -22t-77.5 -7q-68 0 -134 17t-118.5 67t-84.5 140.5t-32 238.5q0 147 32 242t84.5 150.5t118.5 77t134 21.5q37 0 74 -5t72 -18t66 -34.5t56 -54.5v444h211v-1278h-211v119zM484 158q43 0 81 14.5t66.5 49.5t45 93t16.5 144
q0 90 -16.5 151t-45 98.5t-66.5 53.5t-81 16q-44 0 -82.5 -14t-67 -49.5t-45 -97.5t-16.5 -158q0 -95 16.5 -154t45 -91.5t67 -44t82.5 -11.5z" />
    <glyph glyph-name="e" unicode="e" horiz-adv-x="991" 
d="M894 248q-8 -68 -42 -117t-87.5 -81.5t-121.5 -48t-144 -15.5q-200 0 -303.5 97t-116.5 300q-2 23 -2.5 40.5t-0.5 35t0.5 38.5t2.5 50q10 195 114.5 295t305.5 100q99 0 176.5 -27t131 -79.5t81.5 -130t28 -178.5v-100.5t-2 -47.5h-610q1 -58 14.5 -104.5t38.5 -79.5
t60.5 -50.5t81.5 -17.5q68 0 105 33.5t46 87.5h244zM499 801q-56 0 -93 -22.5t-60 -60t-33 -87.5t-11 -105h383q0 47 -6.5 94.5t-26 86.5t-56.5 65t-97 29z" />
    <glyph glyph-name="f" unicode="f" horiz-adv-x="620" 
d="M181 999q0 82 16.5 135.5t44 85.5t63 45t73.5 13h192v-160h-82q-21 0 -39.5 -3t-33 -14.5t-23 -33.5t-8.5 -59v-80h164v-164h-160v-764h-207v764h-129v164h129v71v0z" />
    <glyph glyph-name="g" unicode="g" horiz-adv-x="1026" 
d="M695 926h221l-2 -797q0 -91 -15 -170t-50 -139t-93 -96.5t-143 -42.5q-53 -5 -116 -4.5t-119 2.5q-65 2 -131 6l10 155q53 -2 107 -4q46 -2 97.5 -2t96.5 2q43 2 70 19.5t42 44.5t20 60t5 67v104q-15 -34 -45 -57.5t-67 -38.5t-78 -22t-78 -7q-44 0 -88.5 7.5t-85.5 26.5
t-76 52t-61 84.5t-41 124t-15 170.5t15 170.5t41 124.5t61 84.5t76 51.5t85 26t89 7q94 0 162.5 -42t105.5 -113v146zM494 178q44 0 82 13.5t65.5 46.5t43.5 89t16 140q0 73 -16 129t-43.5 93.5t-65.5 56.5t-82 19t-83 -15.5t-68 -50.5t-45.5 -92t-16.5 -140
q0 -91 16.5 -147.5t45.5 -88t68 -42.5t83 -11z" />
    <glyph glyph-name="h" unicode="h" horiz-adv-x="1079" 
d="M347 0h-227v1278h227v-447q46 50 113.5 77.5t156.5 27.5q88 0 156.5 -30t115.5 -82.5t71 -122.5t24 -150v-551h-217v516q0 60 -15.5 106t-44 77.5t-68 48t-87.5 16.5q-96 0 -150.5 -63.5t-54.5 -184.5v-516z" />
    <glyph glyph-name="i" unicode="i" horiz-adv-x="473" 
d="M355 1278v-191h-227v191h227zM355 928v-928h-227v928h227z" />
    <glyph glyph-name="j" unicode="j" horiz-adv-x="508" 
d="M382 1087h-228v191h228v-191zM226 -287q-33 -12 -74.5 -14.5t-84 3t-83.5 17t-73 27.5l35 135q8 -4 26 -10t40 -10t45.5 -4.5t43.5 6.5q25 9 39 40t14 97v928h228v-946q0 -114 -36.5 -177t-119.5 -92z" />
    <glyph glyph-name="k" unicode="k" horiz-adv-x="932" 
d="M590 496l381 -496h-252l-377 481l393 447h229zM120 1278h219v-1278h-219v1278z" />
    <glyph glyph-name="l" unicode="l" horiz-adv-x="503" 
d="M341 292q0 -38 6 -60.5t17 -34.5t27 -16t36 -4h67v-177h-180q-37 0 -72 8t-62.5 33.5t-44.5 74.5t-17 130v1032h223v-986v0z" />
    <glyph glyph-name="m" unicode="m" horiz-adv-x="1591" 
d="M1291 532q0 119 -50 183.5t-138 64.5t-139.5 -64.5t-51.5 -183.5v-532h-209v532q0 119 -50 183.5t-138 64.5t-138.5 -64.5t-50.5 -183.5v-532h-208v928h208v-107q36 54 95.5 84.5t146.5 30.5q58 0 105.5 -11.5t84 -32.5t64 -51t45.5 -67q42 74 115.5 118t173.5 44
q96 0 161.5 -30t106 -82.5t58.5 -122.5t18 -150v-551h-209v532v0z" />
    <glyph glyph-name="n" unicode="n" horiz-adv-x="1048" 
d="M750 532q0 59 -15.5 105.5t-43.5 78t-68 48t-88 16.5q-96 0 -150 -64.5t-54 -183.5v-532h-228v928h228v-123q34 62 98 96.5t166 34.5q104 0 175.5 -30t116 -82.5t64 -122.5t19.5 -150v-551h-220v532v0z" />
    <glyph glyph-name="o" unicode="o" horiz-adv-x="960" 
d="M888 547q1 -29 2 -50t1 -38.5t-1 -35t-2 -40.5q-8 -203 -111.5 -300t-296.5 -97q-194 0 -296 97t-111 300q-1 23 -1.5 40.5t-0.5 35t0.5 38.5t1.5 50q6 195 109 295t298 100t298 -100t110 -295zM662 360q2 53 2.5 108t-2.5 103q-6 107 -48.5 164.5t-133.5 57.5
q-90 0 -132 -57.5t-50 -164.5q-2 -48 -2 -103t2 -108q5 -108 48.5 -166.5t133.5 -58.5q91 0 134 58.5t48 166.5z" />
    <glyph glyph-name="p" unicode="p" horiz-adv-x="1030" 
d="M337 -260h-211v1188h211v-119q15 34 45 58.5t67.5 39.5t78.5 22t79 7q44 0 88.5 -7t85.5 -26t76 -52t61 -84.5t41 -123.5t15 -170q0 -147 -32.5 -243t-84.5 -152.5t-117.5 -79.5t-132.5 -23q-38 0 -75.5 5.5t-72.5 18t-66.5 34.5t-55.5 55v-348zM542 770q-43 0 -81 -15
t-66.5 -50t-45 -92.5t-16.5 -143.5q0 -90 16.5 -152t45 -101t66.5 -56t81 -17t81.5 15t67 52t45 100t16.5 159q0 95 -16.5 154t-45 91.5t-67 44t-81.5 11.5z" />
    <glyph glyph-name="q" unicode="q" horiz-adv-x="1015" 
d="M425 -17q-45 0 -89 9t-85 31t-76 58.5t-61 91t-41 128.5t-15 172t15 170t41 123.5t61 84.5t76 52t85 26t89 7q37 0 78.5 -7t79 -22t67.5 -39.5t45 -58.5v119h211v-1188h-211v348q-24 -33 -55.5 -53.5t-66.5 -32t-73 -15.5t-75 -4zM490 770q-44 0 -82 -11.5t-67 -44
t-45.5 -91.5t-16.5 -154q0 -96 16.5 -159t45.5 -100t67 -52t82 -15q43 0 81 17t66.5 56t45 101t16.5 152q0 86 -16.5 143.5t-45 92.5t-66.5 50t-81 15z" />
    <glyph glyph-name="r" unicode="r" horiz-adv-x="678" 
d="M339 0h-211v928h211v-199q13 34 35.5 68.5t54 64t72 49t88.5 23.5q18 2 34 1t27 -2q13 -2 25 -3l-13 -219q-16 1 -32 3q-14 1 -29.5 2t-26.5 1q-60 0 -104 -24t-73 -63.5t-43 -91.5t-15 -108v-430z" />
    <glyph glyph-name="s" unicode="s" horiz-adv-x="821" 
d="M410 131q53 0 83.5 21.5t35.5 70.5q2 25 -5 47t-26 42.5t-51.5 40.5t-81.5 42q-61 27 -119 56t-101 66.5t-65.5 86.5t-13.5 117q6 49 30.5 90t67 70.5t102.5 46t138 16.5t144 -16.5t114 -49.5t74 -84t25 -120h-217q0 27 -6.5 49.5t-21.5 39t-39.5 25.5t-61.5 9
q-63 0 -92 -25.5t-29 -79.5q0 -28 12 -47t35.5 -35.5t57.5 -32t79 -36.5q51 -25 101 -53.5t89 -64.5t63 -81.5t24 -105.5q0 -56 -22.5 -102.5t-67.5 -79.5t-112.5 -51.5t-156.5 -18.5q-81 0 -142.5 21t-104 58.5t-66.5 90t-29 114.5h232q1 -34 12 -59.5t28 -43t38.5 -26
t45.5 -8.5z" />
    <glyph glyph-name="t" unicode="t" horiz-adv-x="551" 
d="M142 772h-139v156h139v235h203v-235h168v-156h-168v-488q0 -38 6.5 -59.5t18 -32t28 -13t37.5 -2.5h102v-177h-192q-38 0 -74.5 8t-65 33.5t-46 74.5t-17.5 130v526z" />
    <glyph glyph-name="u" unicode="u" horiz-adv-x="1005" 
d="M679 113q-29 -57 -85 -89t-147 -32q-98 0 -162 30t-102.5 82.5t-54 122.5t-15.5 150v551h213v-533q0 -120 39.5 -179.5t128.5 -59.5q45 0 79.5 18.5t58 53t35.5 83.5t12 109v508h213v-928h-213v113v0z" />
    <glyph glyph-name="v" unicode="v" horiz-adv-x="723" 
d="M765 928l-299 -928h-211l-299 928h252l161 -670l144 670h252v0z" />
    <glyph glyph-name="w" unicode="w" horiz-adv-x="1231" 
d="M902 313l121 615h241l-276 -928h-178l-197 776l-197 -776h-179l-275 928h244l120 -615l146 615h285l145 -615v0z" />
    <glyph glyph-name="x" unicode="x" horiz-adv-x="811" 
d="M257 0h-256l281 489l-281 439h256l141 -277l141 277h256l-280 -439l280 -489h-256l-141 328l-141 -328v0z" />
    <glyph glyph-name="y" unicode="y" horiz-adv-x="747" 
d="M165 -260l133 387l-326 801h242l175 -558l138 558h236l-375 -1188h-223v0z" />
    <glyph glyph-name="z" unicode="z" horiz-adv-x="688" 
d="M662 0h-657l362 758h-337v170h657l-363 -751h338v-177v0z" />
    <glyph glyph-name="asciicircum" unicode="^" horiz-adv-x="1097" 
d="M638 1277l375 -583h-205l-258 435l-250 -435h-207l375 583h170z" />
    <glyph glyph-name="dieresis" unicode="&#xa8;" horiz-adv-x="571" 
d="M79 1271q0 35 22.5 58.5t57.5 23.5t58 -23.5t23 -58.5q0 -34 -23 -57t-58 -23t-57.5 23t-22.5 57zM331 1271q0 35 22.5 58.5t56.5 23.5q36 0 59 -23.5t23 -58.5q0 -34 -23 -57t-59 -23q-34 0 -56.5 23t-22.5 57z" />
    <glyph glyph-name="circumflex" unicode="&#x2c6;" horiz-adv-x="640" 
d="M363 1446l196 -273h-132l-98 162l-107 -162h-134l206 273h69z" />
    <glyph glyph-name="asciitilde" unicode="~" horiz-adv-x="567" 
d="M32 559q13 15 26.5 30t30 27.5t38 20.5t50.5 8q39 0 66.5 -12.5t50 -27.5t42.5 -27.5t44 -12.5q29 0 50 7.5t36.5 19.5t28 26t24.5 27v-146q-12 -14 -23 -29t-26 -27t-35 -20t-49 -8q-37 0 -59 14t-42.5 31t-44 31t-63.5 14q-32 0 -54 -9.5t-38.5 -24t-29 -30.5
t-23.5 -28v146z" />
    <glyph glyph-name="tilde" unicode="&#x2dc;" horiz-adv-x="563" 
d="M77 1286q11 15 22.5 32.5t25 32.5t31 25t41.5 10q32 0 55.5 -19t42 -41.5t35.5 -41t37 -18.5q24 0 41.5 12t30.5 29t23 36.5t20 34.5v-118q-6 -18 -15 -35.5t-22 -32t-31 -23.5t-42 -9q-20 0 -35 8.5t-27 21t-23 27.5t-23.5 27.5t-28.5 21t-38 8.5q-26 0 -44.5 -13
t-32 -30.5t-23.5 -36t-20 -28.5v120z" />
    <glyph glyph-name="Euro" unicode="&#x20ac;" horiz-adv-x="903" 
d="M-28 590h131v112h-131v129h131l2 105q0 88 32 154t87.5 109.5t130 65t158.5 21.5q103 0 177 -28.5t121 -73t69 -98.5t22 -105h-196q-9 40 -22.5 71t-35 52t-54.5 32t-81 11q-32 0 -68.5 -6t-67.5 -29t-51 -68t-20 -124v-89h213v-129h-213v-112h213v-129h-213v-80
q0 -83 17 -133.5t45.5 -77.5t66 -35.5t78.5 -8.5q48 0 81 11t55.5 32.5t35.5 54.5t21 77h198q-1 -56 -25 -112.5t-73 -101.5t-122 -73t-171 -28q-83 0 -157 22t-130 65.5t-88.5 108.5t-32.5 150v129h-133v129z" />
    <glyph glyph-name="florin" unicode="&#x192;" horiz-adv-x="641" 
d="M157 711h-144v159h144v144q0 82 21.5 133.5t55.5 80.5t75 39.5t79 10.5h209v-154h-139q-42 0 -71.5 -33.5t-29.5 -107.5v-113h193v-159h-195v-793q0 -81 -14 -136t-42 -88.5t-69.5 -48t-95.5 -14.5h-135v158h69q31 0 48.5 12t26.5 33.5t11.5 52t2.5 68.5v756z" />
    <glyph glyph-name="dagger" unicode="&#x2020;" horiz-adv-x="782" 
d="M-26 752h862q-106 -186 -213 -371.5t-219 -378.5zM605 618h-397l200 -366z" />
    <glyph glyph-name="daggerdbl" unicode="&#x2021;" horiz-adv-x="825" 
d="M834 227h-862l432 750zM204 360h397l-201 367z" />
    <glyph glyph-name="perthousand" unicode="&#x2030;" horiz-adv-x="1274" 
d="M140 0h-99l707 1062h97zM216 1070q88 0 133.5 -50t45.5 -143v-166q0 -95 -45.5 -144t-133.5 -49q-87 0 -133.5 49.5t-46.5 143.5v166q0 94 46.5 143.5t133.5 49.5zM216 603q32 0 48.5 25.5t16.5 57.5v216q0 32 -18.5 54.5t-47.5 22.5q-30 0 -46.5 -22.5t-16.5 -54.5v-216
q0 -32 16 -57.5t48 -25.5zM662 546q88 0 134 -50t46 -144v-166q0 -96 -46 -145t-134 -49t-134 50t-46 144v166q0 95 46 144.5t134 49.5zM662 77q32 0 48.5 26t16.5 58v216q0 32 -18.5 55t-47.5 23q-30 0 -47 -23t-17 -55v-216q0 -16 4 -31t12.5 -27t20.5 -19t28 -7z
M1051 546q88 0 134 -50t46 -144v-166q0 -96 -46 -145t-134 -49t-134 50t-46 144v166q0 95 46 144.5t134 49.5zM1051 77q32 0 48.5 26t16.5 58v216q0 32 -18.5 55t-47.5 23q-30 0 -47 -23t-17 -55v-216q0 -16 4 -31t12.5 -27t20.5 -19t28 -7z" />
    <glyph glyph-name="Scaron" unicode="&#x160;" horiz-adv-x="1046" 
d="M448 1385l-234 236h176l133 -174l129 174h176l-231 -236h-149zM504 1296q111 0 194.5 -26.5t138.5 -76.5t81.5 -121t24.5 -159h-226q0 45 -13.5 87t-39.5 73.5t-66 50.5t-92 19q-38 0 -72.5 -11.5t-60 -32.5t-40.5 -49.5t-15 -62.5t10.5 -61.5t36 -53.5t69 -52.5
t109.5 -57.5q102 -47 175.5 -91t121 -95t70 -113.5t22.5 -145.5q0 -77 -33 -138t-91.5 -104.5t-139 -66.5t-176.5 -23q-78 0 -151 17t-130.5 59.5t-93.5 115t-39 183.5h226q0 -57 16 -96.5t42.5 -65t60.5 -37t69 -11.5q99 0 152 47.5t53 134.5q0 46 -16.5 81t-46.5 62.5
t-71.5 50.5t-90.5 45q-92 43 -163.5 85t-120.5 90.5t-75 106t-26 132.5q0 67 29 124t83.5 98.5t131.5 65t173 23.5z" />
    <glyph glyph-name="guilsinglleft" unicode="&#x2039;" horiz-adv-x="956" 
d="M20 633l817 405v-217l-617 -246l617 -241v-215l-817 405v109z" />
    <glyph glyph-name="bullet" unicode="&#x2022;" horiz-adv-x="673" 
d="M105 534q0 47 17.5 88t48.5 71.5t72 48t88 17.5t88 -17.5t71.5 -48t48 -71.5t17.5 -88t-17.5 -88t-48 -71.5t-71.5 -48t-88 -17.5t-88 17.5t-72 48t-48.5 71.5t-17.5 88z" />
    <glyph glyph-name="trademark" unicode="&#x2122;" horiz-adv-x="1333" 
d="M64 1165v113h446v-113h-141v-407h-154v407h-151zM1022 1278h219v-520h-137v410l-106 -304h-160l-109 304v-410h-139v520h228l98 -295z" />
    <glyph glyph-name="scaron" unicode="&#x161;" horiz-adv-x="788" 
d="M332 1041l-233 235h176l133 -174l129 174h176l-231 -235h-150zM410 131q53 0 83.5 21.5t35.5 70.5q2 25 -5 47t-26 42.5t-51.5 40.5t-81.5 42q-61 27 -119 56t-101 66.5t-65.5 86.5t-13.5 117q6 49 30.5 90t67 70.5t102.5 46t138 16.5t144 -16.5t114 -49.5t74 -84
t25 -120h-217q0 27 -6.5 49.5t-21.5 39t-39.5 25.5t-61.5 9q-63 0 -92 -25.5t-29 -79.5q0 -28 12 -47t35.5 -35.5t57.5 -32t79 -36.5q51 -25 101 -53.5t89 -64.5t63 -81.5t24 -105.5q0 -56 -22.5 -102.5t-67.5 -79.5t-112.5 -51.5t-156.5 -18.5q-81 0 -142.5 21t-104 58.5
t-66.5 90t-29 114.5h232q1 -34 12 -59.5t28 -43t38.5 -26t45.5 -8.5z" />
    <glyph glyph-name="guilsinglright" unicode="&#x203a;" horiz-adv-x="955" 
d="M908 479l-817 -405v215l617 241l-617 246v217l817 -405v-109z" />
    <glyph glyph-name="OE" unicode="&#x152;" horiz-adv-x="1757" 
d="M595 1296q123 0 203.5 -47t134.5 -135v164h656v-182h-457v-322h387v-180h-387v-414h457v-180h-656v159q-53 -87 -134 -132t-204 -45q-227 0 -347.5 133t-131.5 411q-1 31 -1.5 55.5t-0.5 49t0.5 53t1.5 68.5q8 267 130 405.5t349 138.5zM866 485q2 78 3 159t-3 153
q-9 157 -75 241t-196 84q-128 0 -190 -84t-71 -241q-4 -72 -3 -153t3 -159q6 -158 69.5 -244.5t191.5 -86.5q130 0 197.5 86.5t73.5 244.5z" />
    <glyph glyph-name="oe" unicode="&#x153;" horiz-adv-x="1546" 
d="M1475 248q-8 -68 -40.5 -117t-83.5 -81.5t-116.5 -48t-138.5 -15.5q-51 0 -96.5 13.5t-84 37.5t-69.5 56.5t-52 71.5q-22 -39 -54 -71.5t-71.5 -56.5t-85.5 -37.5t-97 -13.5q-194 0 -296 97t-111 300q-1 23 -1.5 40.5t-0.5 35t0.5 38.5t1.5 50q6 195 109 295t298 100
q51 0 97 -14t85 -38t71 -57.5t54 -72.5q22 39 53 72.5t70 57.5t84.5 38t95.5 14q190 0 294.5 -105.5t104.5 -319.5l-1 -138h-587q1 -58 14.5 -104.5t37.5 -79.5t58.5 -50.5t78.5 -17.5q66 0 101.5 33.5t43.5 87.5h234zM671 360q3 53 3 108t-3 103q-6 107 -50 164.5
t-135 57.5q-90 0 -133 -57.5t-49 -164.5q-3 -48 -2.5 -103t2.5 -108q5 -108 48.5 -166.5t133.5 -58.5q91 0 134.5 58.5t50.5 166.5zM1096 801q-53 0 -89 -22.5t-58.5 -60t-32.5 -87.5t-11 -105h370q0 47 -6 94.5t-25 86.5t-54.5 65t-93.5 29z" />
    <glyph glyph-name="Ydieresis" unicode="&#x178;" horiz-adv-x="923" 
d="M730 1278h244l-385 -754v-524h-236v524l-383 754h244l258 -600zM269 1502q0 35 22.5 58.5t57.5 23.5t58 -23.5t23 -58.5q0 -34 -23 -57t-58 -23t-57.5 23t-22.5 57zM521 1502q0 35 22.5 58.5t56.5 23.5q36 0 59 -23.5t23 -58.5q0 -34 -23 -57t-59 -23q-34 0 -56.5 23
t-22.5 57z" />
    <glyph glyph-name="exclamdown" unicode="&#xa1;" horiz-adv-x="510" 
d="M132 -216v505l42 338h184l42 -338v-505h-268zM137 800v260h256v-260h-256z" />
    <glyph glyph-name="cent" unicode="&#xa2;" horiz-adv-x="882" 
d="M828 301q-8 -82 -31 -140t-63.5 -95.5t-100 -56.5t-141.5 -22v-114h-75v115q-159 10 -245 106.5t-94 288.5q-2 23 -2.5 40.5t-0.5 35t0.5 38.5t2.5 50q5 183 92 282.5t247 110.5v150h75v-149q154 -7 235 -80t101 -224h-222q-8 66 -38.5 103.5t-75.5 48.5v-650
q51 11 80 54t35 108h221zM299 371q5 -94 31.5 -155t86.5 -77v650q-60 -12 -85.5 -63.5t-32.5 -143.5q-2 -48 -2 -103.5t2 -107.5z" />
    <glyph glyph-name="sterling" unicode="&#xa3;" horiz-adv-x="659" 
d="M87 153h96v611h-120v164h120v71q0 82 15.5 135.5t41 85.5t58.5 45t68 13h179v-160h-76q-19 0 -36.5 -3t-31 -14.5t-21.5 -33.5t-8 -59v-80h153v-164h-149v-611h207v-154h-496v154z" />
    <glyph glyph-name="currency" unicode="&#xa4;" horiz-adv-x="952" 
d="M675 373q-44 -35 -95.5 -52t-105 -17.5t-106.5 15.5t-99 48l-110 -109l-60 59l107 109q-36 46 -55.5 100t-20 110t17 110t54.5 100l-113 112l63 62l111 -113q46 34 100 50t109 14.5t108.5 -20t98.5 -54.5l104 107l60 -64l-107 -106q31 -45 46.5 -96.5t15.5 -104
t-16 -103.5t-48 -94l104 -104l-61 -62zM331 502q28 -27 63 -41t71 -14t71.5 13.5t64.5 41.5q27 27 41 62t14.5 72.5t-13.5 73t-42 62.5q-27 28 -62.5 41.5t-73 13.5t-72.5 -13.5t-62 -41.5q-28 -29 -41.5 -63.5t-13.5 -70.5t14 -71.5t41 -64.5z" />
    <glyph glyph-name="yen" unicode="&#xa5;" horiz-adv-x="938" 
d="M124 541h229l-383 737h244l258 -600l258 600h244l-385 -737h221v-116h-221v-97h221v-116h-221v-212h-236v212h-229v116h229v97h-229v116z" />
    <glyph glyph-name="brokenbar" unicode="&#xa6;" horiz-adv-x="315" 
d="M212 692h-113v586h113v-586zM212 -259h-113v586h113v-586z" />
    <glyph glyph-name="section" unicode="&#xa7;" horiz-adv-x="776" 
d="M423 -88q39 0 65.5 11t42 28t21 38.5t2.5 41.5q-3 18 -24.5 43.5t-50.5 51.5t-60.5 51.5t-53.5 43.5q-24 20 -56 46.5t-66 56t-66 62t-57 65.5t-40 66t-14 63q-2 49 11 85t34.5 61.5t49.5 41.5t57 25q-29 26 -59 59t-54 69.5t-39.5 73.5t-15.5 72q-2 67 24.5 111.5
t71.5 71.5t104 38.5t124 11.5q75 0 138.5 -15.5t109 -48.5t70.5 -84.5t24 -123.5h-170q2 29 -4.5 57t-23.5 49.5t-46.5 35t-73.5 14.5q-75 2 -115.5 -30.5t-35.5 -92.5q3 -36 20.5 -67.5t44.5 -60t60 -55t67 -53.5q33 -25 73.5 -53.5t79.5 -59t71.5 -63t48.5 -65.5
q19 -39 24.5 -80t-5 -83t-39.5 -83t-79 -78q69 -48 98 -116.5t27 -143.5q-1 -57 -27.5 -101.5t-70.5 -74.5t-103 -46t-124 -16q-80 0 -147.5 21.5t-116 61.5t-74.5 98t-21 131h186q0 -79 45 -120.5t138 -41.5zM507 557q-15 14 -37.5 33t-46 38.5t-46 36.5t-38.5 27
q-56 -25 -78.5 -53.5t-5.5 -67.5q7 -16 25.5 -36.5t43.5 -43t52.5 -45t53 -42t45 -34.5t28.5 -22q44 30 61 56.5t14 51.5t-22.5 50t-48.5 51z" />
    <glyph glyph-name="copyright" unicode="&#xa9;" horiz-adv-x="1488" 
d="M62 641q0 138 46.5 259t135 211.5t215 143t287.5 52.5q160 0 287.5 -52.5t216 -143t135.5 -211.5t47 -259t-47 -259t-135.5 -211t-216 -142t-287.5 -52q-161 0 -287.5 52t-215 142t-135 211t-46.5 259zM222 639q0 -127 37 -228t105 -171.5t164.5 -108t215.5 -37.5
t215.5 37.5t165 108t105.5 171.5t37 228t-37 228t-105.5 171.5t-165 108t-215.5 37.5t-215.5 -37.5t-164.5 -108t-105 -171.5t-37 -228zM1062 508q-7 -68 -28 -115.5t-59 -77.5t-94.5 -43.5t-134.5 -13.5q-151 0 -233 76.5t-90 238.5q-1 18 -1.5 32t-0.5 27.5t0.5 29.5
t1.5 38q6 155 89 234.5t234 79.5q148 0 222.5 -58t93.5 -184h-189q-8 62 -42.5 92.5t-84.5 30.5q-69 0 -98.5 -41.5t-36.5 -124.5v-166q5 -86 35.5 -136t99.5 -50q57 0 89 35.5t40 95.5h187z" />
    <glyph glyph-name="ordfeminine" unicode="&#xaa;" horiz-adv-x="696" 
d="M249 679q-48 0 -81.5 12.5t-54.5 34.5t-30.5 53t-9.5 67q0 74 40 123.5t135 70.5q64 14 118.5 23.5t80.5 15.5q0 32 -7.5 49t-21.5 25t-35 9.5t-49 1.5q-23 0 -60.5 -2.5t-73.5 -4.5q-42 -3 -88 -6l-5 102q73 3 134 6q26 1 52 2.5t48 2.5t39 1.5t25 0.5q60 0 96 -17
t55.5 -48.5t25.5 -76t6 -100.5v-338h-139v75q-29 -44 -81.5 -63t-118.5 -19zM309 962q-53 -15 -82.5 -43t-29.5 -69q0 -21 9.5 -35t23.5 -23t29 -13t27 -4q39 0 69.5 13t51 34.5t31.5 49t11 57.5v69q-38 -8 -75 -18t-65 -18z" />
    <glyph glyph-name="logicalnot" unicode="&#xac;" horiz-adv-x="829" 
d="M16 1141v138h780v-346h-165v208h-615z" />
    <glyph glyph-name="registered" unicode="&#xae;" horiz-adv-x="1460" 
d="M62 641q0 138 46.5 259t135 211.5t215 143t287.5 52.5q160 0 287.5 -52.5t216 -143t135.5 -211.5t47 -259t-47 -259t-135.5 -211t-216 -142t-287.5 -52q-161 0 -287.5 52t-215 142t-135 211t-46.5 259zM222 639q0 -127 37 -228t105 -171.5t164.5 -108t215.5 -37.5
t215.5 37.5t165 108t105.5 171.5t37 228t-37 228t-105.5 171.5t-165 108t-215.5 37.5t-215.5 -37.5t-164.5 -108t-105 -171.5t-37 -228zM1021 778q0 -52 -14 -90.5t-38.5 -65t-58.5 -42t-74 -21.5l175 -280h-140l-157 276h-45v-276h-138v725h244q53 0 98 -12t78 -39
t51.5 -70t18.5 -105zM755 649q25 0 50.5 4.5t46 18t33.5 39t13 67.5q0 43 -12.5 70t-33 42t-46 20t-51.5 5h-86v-266h86z" />
    <glyph glyph-name="degree" unicode="&#xb0;" horiz-adv-x="745" 
d="M91 1001q0 59 22.5 111.5t61.5 91.5t91.5 61.5t111.5 22.5t111 -22.5t91 -61.5t61.5 -91.5t22.5 -111.5t-22.5 -111t-61.5 -91t-91 -61.5t-111 -22.5t-111.5 22.5t-91.5 61.5t-61.5 91t-22.5 111zM202 1001q0 -37 13.5 -68.5t36.5 -55t55 -37t69 -13.5t69 13.5t56 37
t37.5 55t13.5 68.5t-13.5 69.5t-37.5 56.5t-56 37.5t-69 13.5t-69 -13.5t-55 -37.5t-36.5 -56.5t-13.5 -69.5z" />
    <glyph glyph-name="plusminus" unicode="&#xb1;" horiz-adv-x="573" 
d="M25 621h195v188h137v-188h195v-129h-195v-199h-137v199h-195v129zM32 115h510v-115h-510v115z" />
    <glyph glyph-name="twosuperior" unicode="&#xb2;" horiz-adv-x="495" 
d="M424 789v-103h-362q11 19 30 49t41.5 66t46.5 74.5t45.5 74t39 64t27.5 45.5q12 20 15.5 41.5t-1.5 39.5t-18 30t-35 14q-27 1 -43 -8.5t-24.5 -26t-10 -38t-0.5 -44.5h-125q-3 48 6 87t32.5 67t62.5 43t96 15q60 0 104 -23.5t65 -63t16.5 -92.5t-41.5 -112
q-18 -31 -39.5 -65.5t-41.5 -64.5q-23 -35 -46 -69h160z" />
    <glyph glyph-name="threesuperior" unicode="&#xb3;" horiz-adv-x="463" 
d="M298 996q33 -4 55.5 -17.5t37 -33.5t21 -45.5t6.5 -52.5q0 -38 -14 -70t-39.5 -54.5t-61.5 -35t-81 -12.5t-80 9.5t-59 31t-36 56.5t-12 86h125q0 -46 16.5 -66.5t50.5 -20.5t52.5 22t18.5 64q0 48 -24.5 69.5t-81.5 21.5v77q36 0 61.5 23.5t25.5 62.5q0 32 -11 49.5
t-39 20.5q-45 7 -61 -16.5t-17 -65.5h-116q-6 85 41.5 134.5t140.5 49.5q45 0 79.5 -12.5t57.5 -34t34.5 -50t11.5 -59.5q0 -20 -5.5 -41t-17.5 -39t-31.5 -31.5t-47.5 -19.5z" />
    <glyph glyph-name="acute" unicode="&#xb4;" horiz-adv-x="563" 
d="M304 1332h215l-297 -162h-121z" />
    <glyph glyph-name="mu1" unicode="&#xb5;" horiz-adv-x="1001" 
d="M107 928h219v-533q0 -120 39.5 -179.5t128.5 -59.5q45 0 79.5 18.5t58 53t35.5 83.5t12 109v508h213v-928h-213v113q-29 -57 -76 -89t-116 -32q-18 0 -41 3.5t-46 11t-44 20t-34 31.5v-316h-215v1186z" />
    <glyph glyph-name="paragraph" unicode="&#xb6;" horiz-adv-x="929" 
d="M660 1118h-148v-1118h-128v649h-8q-70 0 -128 20t-100 58t-65 92.5t-23 124.5t23 124.5t65 92.5t100 58t128 20h518v-121h-107v-1118h-127v1118z" />
    <glyph glyph-name="cedilla" unicode="&#xb8;" horiz-adv-x="440" 
d="M154 -334v84h95q35 0 50 13.5t13.5 29.5t-17 29.5t-40.5 13.5h-115q-38 0 -56 23.5t-16.5 54t22 60.5t60.5 42q-28 -40 -20 -70t51 -30h115q31 0 54 -18.5t34.5 -46.5t10.5 -60t-17.5 -60t-49 -46.5t-83.5 -18.5h-91z" />
    <glyph glyph-name="onesuperior" unicode="&#xb9;" horiz-adv-x="456" 
d="M90 784h102v305h-95v69q47 0 74 18t42 40q17 26 24 58h80v-490h64v-100h-291v100z" />
    <glyph glyph-name="ordmasculine" unicode="&#xba;" horiz-adv-x="663" 
d="M579 1033q1 -18 1 -31v-24v-22t-1 -25q-5 -128 -69.5 -188t-185.5 -60t-184.5 60t-68.5 188q-1 14 -1.5 25t-0.5 22t0.5 24t1.5 31q3 121 67.5 183.5t185.5 62.5t185.5 -62.5t69.5 -183.5zM438 916q1 33 1.5 68t-1.5 64q-4 66 -30.5 102t-83.5 36q-56 0 -82 -36t-31 -102
q-1 -29 -1 -64t1 -68q2 -67 29.5 -103.5t83.5 -36.5q57 0 84 36.5t30 103.5z" />
    <glyph glyph-name="onequarter" unicode="&#xbc;" horiz-adv-x="1423" 
d="M96 575h340v119h-74v582h-93q-8 -39 -28 -69q-17 -26 -50 -47.5t-87 -21.5v-81h112v-363h-120v-119zM1299 251h-71v136h-128l-1 -139h-153l185 457h-150l-238 -571h356v-134h129v134h71v117zM488 0h-118l500 1277h118z" />
    <glyph glyph-name="onehalf" unicode="&#xbd;" horiz-adv-x="1427" 
d="M1088 124q28 41 55 82q23 35 49 76.5t48 78.5q43 71 48.5 134t-19.5 110.5t-77.5 75t-124.5 27.5q-68 0 -114.5 -18t-74.5 -51t-38.5 -80t-6.5 -104h149q-1 27 1 52.5t11.5 45t28.5 31t52 10.5q25 -2 41 -16t22 -35t2 -47t-19 -50q-11 -20 -32 -54.5t-47 -76.5t-54.5 -88
t-55.5 -89t-49.5 -79t-35.5 -58h432v123h-191zM137 575h340v119h-74v582h-93q-8 -39 -28 -69q-17 -26 -50 -47.5t-87 -21.5v-81h112v-363h-120v-119zM488 0h-118l500 1277h118z" />
    <glyph glyph-name="threequarters" unicode="&#xbe;" horiz-adv-x="1427" 
d="M402 950q38 -5 65 -21t44 -40t25 -53.5t8 -62.5q0 -45 -16.5 -82.5t-47 -64.5t-73.5 -42t-96 -15q-54 0 -95.5 11.5t-70 37t-43 67t-13.5 102.5h148q0 -55 19.5 -79.5t59.5 -24.5q41 0 63.5 26t22.5 76q0 57 -29 82.5t-98 25.5v91q43 0 73 27.5t30 73.5q0 38 -13 59
t-46 25q-54 8 -72.5 -19.5t-19.5 -77.5h-138q-4 50 9 90t40.5 68.5t69.5 43.5t97 15q54 0 94.5 -15t68 -40t41 -58.5t13.5 -70.5q0 -24 -6.5 -48.5t-20.5 -46t-37 -37.5t-56 -23zM1287 133h-71v-133h-128v133h-354l237 568h149l-184 -455h152l1 139h127v-136h71v-116zM488 0
h-118l500 1277h118z" />
    <glyph glyph-name="questiondown" unicode="&#xbf;" horiz-adv-x="907" 
d="M450 -220q114 0 194 31.5t128.5 86.5t68 129.5t12.5 159.5h-240q3 -57 -7 -97t-31 -66t-52.5 -38t-71.5 -12q-69 0 -106 47.5t-37 125.5q0 29 20.5 58.5t51 63.5t65 73.5t62 88t42.5 107.5t6 132h-208q1 -61 -19 -104.5t-51 -80t-67.5 -70t-68 -74t-52.5 -92t-21 -124.5
q0 -74 23.5 -137t71 -109.5t119 -72.5t168.5 -26zM571 1060v-224h-243v224h243z" />
    <glyph glyph-name="Agrave" unicode="&#xc0;" horiz-adv-x="1214" 
d="M457 1278h309l486 -1278h-261l-131 387h-499l-131 -387h-261zM416 551h389l-195 575zM812 1399h-121l-297 162h215z" />
    <glyph glyph-name="Aacute" unicode="&#xc1;" horiz-adv-x="1222" 
d="M460 1278h309l486 -1278h-261l-131 387h-499l-131 -387h-261zM419 551h389l-195 575zM675 1561h215l-297 -162h-121z" />
    <glyph glyph-name="Acircumflex" unicode="&#xc2;" horiz-adv-x="1203" 
d="M455 1278h309l486 -1278h-261l-131 387h-499l-131 -387h-261zM414 551h389l-195 575zM663 1677l196 -273h-132l-98 162l-107 -162h-134l206 273h69z" />
    <glyph glyph-name="Atilde" unicode="&#xc3;" horiz-adv-x="1208" 
d="M766 1278l486 -1278h-261l-131 387h-499l-131 -387h-261l488 1278h309zM805 551l-195 575l-194 -575h389zM453 1487q11 15 22.5 32.5t25 32.5t31 25t41.5 10q32 0 55.5 -19t42 -41.5t35.5 -41t37 -18.5q24 0 41.5 12t30.5 29t23 36.5t20 34.5v-118q-6 -18 -15 -35.5
t-22 -32t-31 -23.5t-42 -9q-21 0 -35.5 8.5t-26.5 21t-23 27.5t-23.5 27.5t-28.5 21t-38 8.5q-26 0 -44.5 -13t-32 -30.5t-23.5 -36t-20 -28.5v120z" />
    <glyph glyph-name="Adieresis" unicode="&#xc4;" horiz-adv-x="1203" 
d="M764 1278l486 -1278h-261l-131 387h-499l-131 -387h-261l488 1278h309zM803 551l-195 575l-194 -575h389zM402 1502q0 35 22.5 58.5t57.5 23.5t58 -23.5t23 -58.5q0 -34 -23 -57t-58 -23t-57.5 23t-22.5 57zM654 1502q0 35 22.5 58.5t56.5 23.5q36 0 59 -23.5t23 -58.5
q0 -34 -23 -57t-59 -23q-34 0 -56.5 23t-22.5 57z" />
    <glyph glyph-name="Aring" unicode="&#xc5;" horiz-adv-x="1209" 
d="M356 1471q0 51 19.5 96.5t53.5 79.5t79.5 54t96.5 20t96.5 -20t79.5 -54t54 -79.5t20 -96.5q0 -60 -25.5 -109.5t-69.5 -83.5h-309q-43 34 -69 83.5t-26 109.5zM456 1471q0 -31 12 -59t32 -49.5t47.5 -34t57.5 -12.5q31 0 58.5 12.5t48 34t32 49.5t11.5 59t-11.5 58.5
t-32 48t-48 32t-58.5 11.5q-30 0 -57.5 -11.5t-47.5 -32t-32 -48t-12 -58.5zM761 1278l486 -1278h-261l-131 387h-499l-131 -387h-261l488 1278h309zM800 551l-195 575l-194 -575h389z" />
    <glyph glyph-name="AE" unicode="&#xc6;" horiz-adv-x="1439" 
d="M599 1278h117v-178l-297 -615h297v-159h-353l-139 -326h-254zM715 0v1278h618v-182h-425v-322h360v-180h-360v-414h425v-180h-618z" />
    <glyph glyph-name="Ccedilla" unicode="&#xc7;" horiz-adv-x="1214" 
d="M611 154q117 0 178.5 68t75.5 187h240q-13 -110 -52 -190.5t-102 -133.5t-148.5 -79t-191.5 -26q-244 0 -374 134t-142 412q-1 31 -1.5 55.5t-0.5 49t0.5 53t1.5 68.5q9 269 140 406.5t376 137.5q102 0 186 -26t145.5 -78.5t100 -131t49.5 -183.5h-233q-2 46 -20.5 90
t-50.5 78.5t-77 55.5t-100 21q-138 0 -204.5 -84t-75.5 -241q-5 -72 -4.5 -153t4.5 -159q6 -158 74 -244.5t206 -86.5zM625 -364v84h95q35 0 50 13.5t13.5 29.5t-17 29.5t-40.5 13.5h-115q-38 0 -56 23.5t-16.5 54t22 60.5t60.5 42q-28 -40 -20 -70t51 -30h115
q31 0 54 -18.5t34.5 -46.5t10.5 -60t-17.5 -60t-49 -46.5t-83.5 -18.5h-91z" />
    <glyph glyph-name="Egrave" unicode="&#xc8;" horiz-adv-x="1028" 
d="M140 0v1278h774v-182h-532v-322h450v-180h-450v-414h532v-180h-774zM741 1399h-121l-297 162h215z" />
    <glyph glyph-name="Eacute" unicode="&#xc9;" horiz-adv-x="1065" 
d="M140 0v1278h774v-182h-532v-322h450v-180h-450v-414h532v-180h-774zM601 1561h215l-297 -162h-121z" />
    <glyph glyph-name="Ecircumflex" unicode="&#xca;" horiz-adv-x="1071" 
d="M140 0v1278h774v-182h-532v-322h450v-180h-450v-414h532v-180h-774zM539 1677l196 -273h-132l-98 162l-107 -162h-134l206 273h69z" />
    <glyph glyph-name="Edieresis" unicode="&#xcb;" horiz-adv-x="1058" 
d="M140 1278h774v-182h-532v-322h450v-180h-450v-414h532v-180h-774v1278zM358 1502q0 35 22.5 58.5t57.5 23.5t58 -23.5t23 -58.5q0 -34 -23 -57t-58 -23t-57.5 23t-22.5 57zM610 1502q0 35 22.5 58.5t56.5 23.5q36 0 59 -23.5t23 -58.5q0 -34 -23 -57t-59 -23
q-34 0 -56.5 23t-22.5 57z" />
    <glyph glyph-name="Igrave" unicode="&#xcc;" horiz-adv-x="506" 
d="M134 0v1278h240v-1278h-240zM395 1399h-121l-297 162h215z" />
    <glyph glyph-name="Iacute" unicode="&#xcd;" horiz-adv-x="512" 
d="M134 0v1278h240v-1278h-240zM253 1561h215l-297 -162h-121z" />
    <glyph glyph-name="Icircumflex" unicode="&#xce;" horiz-adv-x="506" 
d="M134 0v1278h240v-1278h-240zM307 1677l196 -273h-132l-98 162l-107 -162h-134l206 273h69z" />
    <glyph glyph-name="Idieresis" unicode="&#xcf;" horiz-adv-x="512" 
d="M134 1278h240v-1278h-240v1278zM68 1502q0 35 22.5 58.5t57.5 23.5t58 -23.5t23 -58.5q0 -34 -23 -57t-58 -23t-57.5 23t-22.5 57zM320 1502q0 35 22.5 58.5t56.5 23.5q36 0 59 -23.5t23 -58.5q0 -34 -23 -57t-59 -23q-34 0 -56.5 23t-22.5 57z" />
    <glyph glyph-name="Eth" unicode="&#xd0;" horiz-adv-x="1241" 
d="M11 732h211v546h426q145 0 234 -47.5t137 -132t64 -202t16 -257.5q0 -141 -16 -258t-64 -202t-137 -132t-234 -47h-426v566h-211v166zM580 158q79 0 132.5 16t87.5 45.5t51 72t24 96t7.5 117t0.5 134.5t-0.5 134t-7.5 116.5t-24 96t-51 72.5t-87.5 46t-132.5 16h-141
v-388h170v-166h-170v-408h141z" />
    <glyph glyph-name="Ntilde" unicode="&#xd1;" horiz-adv-x="1308" 
d="M953 1278h221v-1278h-344l-465 1143v-1143h-223v1278h344l467 -1120v1120zM466 1517q11 15 22.5 32.5t25 32.5t31 25t41.5 10q32 0 55.5 -19t42 -41.5t35.5 -41t37 -18.5q24 0 41.5 12t30.5 29t23 36.5t20 34.5v-118q-6 -18 -15 -35.5t-22 -32t-31 -23.5t-42 -9
q-21 0 -35.5 8.5t-26.5 21t-23 27.5t-23.5 27.5t-28.5 21t-38 8.5q-26 0 -44.5 -13t-32 -30.5t-23.5 -36t-20 -28.5v120z" />
    <glyph glyph-name="Ograve" unicode="&#xd2;" horiz-adv-x="1216" 
d="M597 1296q245 0 376 -137.5t140 -406.5q1 -40 2 -68.5t1 -53t-1 -49t-2 -55.5q-11 -278 -141.5 -411t-374.5 -133q-245 0 -374.5 133t-141.5 411q-1 31 -1.5 55.5t-0.5 49t0.5 53t1.5 68.5q9 269 139.5 406.5t376.5 137.5zM877 485q3 78 4 159t-4 153q-9 157 -75 241
t-205 84t-205.5 -84t-75.5 -241q-5 -72 -4 -153t4 -159q6 -158 74 -244.5t207 -86.5t206.5 86.5t73.5 244.5zM823 1399h-121l-297 162h215z" />
    <glyph glyph-name="Oacute" unicode="&#xd3;" horiz-adv-x="1204" 
d="M599 1296q245 0 376 -137.5t140 -406.5q1 -40 2 -68.5t1 -53t-1 -49t-2 -55.5q-11 -278 -141.5 -411t-374.5 -133q-245 0 -374.5 133t-141.5 411q-1 31 -1.5 55.5t-0.5 49t0.5 53t1.5 68.5q9 269 139.5 406.5t376.5 137.5zM879 485q3 78 4 159t-4 153q-9 157 -75 241
t-205 84t-205.5 -84t-75.5 -241q-5 -72 -4 -153t4 -159q6 -158 74 -244.5t207 -86.5t206.5 86.5t73.5 244.5zM664 1561h215l-297 -162h-121z" />
    <glyph glyph-name="Ocircumflex" unicode="&#xd4;" horiz-adv-x="1204" 
d="M599 1296q245 0 376 -137.5t140 -406.5q1 -40 2 -68.5t1 -53t-1 -49t-2 -55.5q-11 -278 -141.5 -411t-374.5 -133q-245 0 -374.5 133t-141.5 411q-1 31 -1.5 55.5t-0.5 49t0.5 53t1.5 68.5q9 269 139.5 406.5t376.5 137.5zM879 485q3 78 4 159t-4 153q-9 157 -75 241
t-205 84t-205.5 -84t-75.5 -241q-5 -72 -4 -153t4 -159q6 -158 74 -244.5t207 -86.5t206.5 86.5t73.5 244.5zM637 1677l196 -273h-132l-98 162l-107 -162h-134l206 273h69z" />
    <glyph glyph-name="Otilde" unicode="&#xd5;" horiz-adv-x="1208" 
d="M599 1296q245 0 376 -137.5t140 -406.5q1 -40 2 -68.5t1 -53t-1 -49t-2 -55.5q-11 -278 -141.5 -411t-374.5 -133q-245 0 -374.5 133t-141.5 411q-1 31 -1.5 55.5t-0.5 49t0.5 53t1.5 68.5q9 269 139.5 406.5t376.5 137.5zM879 485q3 78 4 159t-4 153q-9 157 -75 241
t-205 84t-205.5 -84t-75.5 -241q-5 -72 -4 -153t4 -159q6 -158 74 -244.5t207 -86.5t206.5 86.5t73.5 244.5zM404 1517q11 15 22.5 32.5t25 32.5t31 25t41.5 10q32 0 55.5 -19t42 -41.5t35.5 -41t37 -18.5q24 0 41.5 12t30.5 29t23 36.5t20 34.5v-118q-6 -18 -15 -35.5
t-22 -32t-31 -23.5t-42 -9q-21 0 -35.5 8.5t-26.5 21t-23 27.5t-23.5 27.5t-28.5 21t-38 8.5q-26 0 -44.5 -13t-32 -30.5t-23.5 -36t-20 -28.5v120z" />
    <glyph glyph-name="Odieresis" unicode="&#xd6;" horiz-adv-x="1204" 
d="M599 1296q245 0 376 -137.5t140 -406.5q1 -40 2 -68.5t1 -53t-1 -49t-2 -55.5q-11 -278 -141.5 -411t-374.5 -133q-245 0 -374.5 133t-141.5 411q-1 31 -1.5 55.5t-0.5 49t0.5 53t1.5 68.5q9 269 139.5 406.5t376.5 137.5zM879 485q3 78 4 159t-4 153q-9 157 -75 241
t-205 84t-205.5 -84t-75.5 -241q-5 -72 -4 -153t4 -159q6 -158 74 -244.5t207 -86.5t206.5 86.5t73.5 244.5zM380 1502q0 35 22.5 58.5t57.5 23.5t58 -23.5t23 -58.5q0 -34 -23 -57t-58 -23t-57.5 23t-22.5 57zM632 1502q0 35 22.5 58.5t56.5 23.5q36 0 59 -23.5t23 -58.5
q0 -34 -23 -57t-59 -23q-34 0 -56.5 23t-22.5 57z" />
    <glyph glyph-name="multiply" unicode="&#xd7;" horiz-adv-x="782" 
d="M204 835l188 -189l188 189l121 -121l-188 -189l188 -188l-121 -121l-188 188l-188 -188l-121 121l188 188l-188 189z" />
    <glyph glyph-name="Oslash" unicode="&#xd8;" horiz-adv-x="1138" 
d="M560 1296q60 0 112.5 -8.5t99.5 -25.5l66 147l99 -45l-68 -151q97 -66 149 -181t58 -280q1 -40 2 -68.5t1 -53t-1 -49t-2 -55.5q-11 -278 -141.5 -411t-374.5 -133q-131 0 -227 37l-74 -164l-98 47l76 169q-90 65 -138 177.5t-55 277.5q-1 31 -1.5 55.5t-0.5 49t0.5 53
t1.5 68.5q9 269 139.5 406.5t376.5 137.5zM840 485q3 78 4 159t-4 153q-5 69 -19 123.5t-40 95.5l-371 -825q59 -37 150 -37q139 0 206.5 86.5t73.5 244.5zM279 485q2 -64 14.5 -116.5t35.5 -92.5l367 817q-56 29 -136 29q-139 0 -205.5 -84t-75.5 -241q-5 -72 -4 -153
t4 -159z" />
    <glyph glyph-name="Ugrave" unicode="&#xd9;" horiz-adv-x="1144" 
d="M816 1278h248v-795q0 -123 -33.5 -215.5t-96.5 -153.5t-153.5 -91.5t-204.5 -30.5q-113 0 -203 30.5t-153 91.5t-97 153.5t-34 215.5v795h248v-780q0 -75 13 -136t42 -104t74 -66.5t110 -23.5q69 0 115.5 22.5t74 65.5t39 104t11.5 138v780zM733 1399h-121l-297 162h215z
" />
    <glyph glyph-name="Uacute" unicode="&#xda;" horiz-adv-x="1161" 
d="M816 1278h248v-795q0 -123 -33.5 -215.5t-96.5 -153.5t-153.5 -91.5t-204.5 -30.5q-113 0 -203 30.5t-153 91.5t-97 153.5t-34 215.5v795h248v-780q0 -75 13 -136t42 -104t74 -66.5t110 -23.5q69 0 115.5 22.5t74 65.5t39 104t11.5 138v780zM693 1561h215l-297 -162h-121
z" />
    <glyph glyph-name="Ucircumflex" unicode="&#xdb;" horiz-adv-x="1149" 
d="M816 1278h248v-795q0 -123 -33.5 -215.5t-96.5 -153.5t-153.5 -91.5t-204.5 -30.5q-113 0 -203 30.5t-153 91.5t-97 153.5t-34 215.5v795h248v-780q0 -75 13 -136t42 -104t74 -66.5t110 -23.5q69 0 115.5 22.5t74 65.5t39 104t11.5 138v780zM629 1677l196 -273h-132
l-98 162l-107 -162h-134l206 273h69z" />
    <glyph glyph-name="Udieresis" unicode="&#xdc;" horiz-adv-x="1144" 
d="M816 1278h248v-795q0 -123 -33.5 -215.5t-96.5 -153.5t-153.5 -91.5t-204.5 -30.5q-113 0 -203 30.5t-153 91.5t-97 153.5t-34 215.5v795h248v-780q0 -75 13 -136t42 -104t74 -66.5t110 -23.5q69 0 115.5 22.5t74 65.5t39 104t11.5 138v780zM378 1502q0 35 22.5 58.5
t57.5 23.5t58 -23.5t23 -58.5q0 -34 -23 -57t-58 -23t-57.5 23t-22.5 57zM630 1502q0 35 22.5 58.5t56.5 23.5q36 0 59 -23.5t23 -58.5q0 -34 -23 -57t-59 -23q-34 0 -56.5 23t-22.5 57z" />
    <glyph glyph-name="Yacute" unicode="&#xdd;" horiz-adv-x="864" 
d="M437 678l258 600h244l-385 -754v-524h-236v524l-383 754h244zM519 1561h215l-297 -162h-121z" />
    <glyph glyph-name="Thorn" unicode="&#xde;" horiz-adv-x="1050" 
d="M124 1279h220v-291q80 34 193 34q195 0 298 -100t110 -295q1 -29 2 -61.5t1 -64.5t-1 -61.5t-2 -52.5q-8 -203 -111.5 -300t-296.5 -97q-111 0 -193 32v-282h-220v1539zM719 364q1 26 1.5 65.5t0.5 80.5t-0.5 79t-1.5 62q-6 107 -48.5 164.5t-133.5 57.5
q-90 0 -132 -57.5t-50 -164.5q-1 -24 -1.5 -62t-0.5 -79t0.5 -80.5t1.5 -65.5q5 -108 48.5 -166.5t133.5 -58.5q91 0 134 58.5t48 166.5z" />
    <glyph glyph-name="germandbls" unicode="&#xdf;" horiz-adv-x="1169" 
d="M351 0h-217v915q0 94 33 162.5t90 113t135 66t168 21.5q74 0 143 -15.5t122.5 -52t85.5 -97t32 -150.5q0 -54 -15 -88.5t-37.5 -57t-49 -37.5t-49 -29t-37.5 -31.5t-15 -45.5q0 -26 24.5 -46t61.5 -39.5t81 -42.5t83 -55t67.5 -77t34.5 -109q9 -85 -12 -143.5
t-71.5 -94.5t-130.5 -51.5t-191 -15.5h-92v162h53q62 0 107 6.5t72.5 23.5t37 48t0.5 79q-6 35 -29 62t-54 51t-66 46t-64 47.5t-48 55.5t-19 70q-5 33 5 58t28.5 47t41 43t43 45.5t34 55.5t13.5 73q0 33 -10.5 60t-33.5 46.5t-59.5 30.5t-88.5 12q-56 1 -95.5 -15.5
t-64.5 -52t-37 -90t-12 -130.5z" />
    <glyph glyph-name="agrave" unicode="&#xe0;" horiz-adv-x="1011" 
d="M349 -12q-78 0 -132.5 20t-88.5 56t-49 85.5t-15 108.5t15.5 109t49.5 90t88 68.5t130 45.5q51 11 100 20.5t91.5 17.5t76 14.5t54.5 11.5q0 51 -12 79t-35 41t-57 15t-79 2q-18 0 -43.5 -1t-54 -2.5t-59 -3.5t-59.5 -4q-68 -5 -142 -11l-8 165q117 6 216 10l84 4t78 3.5
t63.5 2.5t39.5 1q97 0 155 -27t89 -78t41 -123.5t10 -162.5v-545h-225v121q-23 -35 -56 -60.5t-74.5 -41.5t-90 -23.5t-101.5 -7.5zM445 446q-85 -24 -132.5 -70t-47.5 -112q0 -33 15.5 -56t37.5 -37.5t47 -21t43 -6.5q63 0 112 21t82.5 55.5t51 80t17.5 93.5v111
q-60 -13 -120.5 -29t-105.5 -29zM655 1115h-121l-297 162h215z" />
    <glyph glyph-name="aacute" unicode="&#xe1;" horiz-adv-x="1001" 
d="M349 -12q-78 0 -132.5 20t-88.5 56t-49 85.5t-15 108.5t15.5 109t49.5 90t88 68.5t130 45.5q51 11 100 20.5t91.5 17.5t76 14.5t54.5 11.5q0 51 -12 79t-35 41t-57 15t-79 2q-18 0 -43.5 -1t-54 -2.5t-59 -3.5t-59.5 -4q-68 -5 -142 -11l-8 165q117 6 216 10l84 4t78 3.5
t63.5 2.5t39.5 1q97 0 155 -27t89 -78t41 -123.5t10 -162.5v-545h-225v121q-23 -35 -56 -60.5t-74.5 -41.5t-90 -23.5t-101.5 -7.5zM445 446q-85 -24 -132.5 -70t-47.5 -112q0 -33 15.5 -56t37.5 -37.5t47 -21t43 -6.5q63 0 112 21t82.5 55.5t51 80t17.5 93.5v111
q-60 -13 -120.5 -29t-105.5 -29zM519 1262h215l-297 -162h-121z" />
    <glyph glyph-name="acircumflex" unicode="&#xe2;" horiz-adv-x="991" 
d="M349 -12q-78 0 -132.5 20t-88.5 56t-49 85.5t-15 108.5t15.5 109t49.5 90t88 68.5t130 45.5q51 11 100 20.5t91.5 17.5t76 14.5t54.5 11.5q0 51 -12 79t-35 41t-57 15t-79 2q-18 0 -43.5 -1t-54 -2.5t-59 -3.5t-59.5 -4q-68 -5 -142 -11l-8 165q117 6 216 10l84 4t78 3.5
t63.5 2.5t39.5 1q97 0 155 -27t89 -78t41 -123.5t10 -162.5v-545h-225v121q-23 -35 -56 -60.5t-74.5 -41.5t-90 -23.5t-101.5 -7.5zM445 446q-85 -24 -132.5 -70t-47.5 -112q0 -33 15.5 -56t37.5 -37.5t47 -21t43 -6.5q63 0 112 21t82.5 55.5t51 80t17.5 93.5v111
q-60 -13 -120.5 -29t-105.5 -29zM537 1318l196 -273h-132l-98 162l-107 -162h-134l206 273h69z" />
    <glyph glyph-name="atilde" unicode="&#xe3;" horiz-adv-x="1001" 
d="M349 -12q-78 0 -132.5 20t-88.5 56t-49 85.5t-15 108.5t15.5 109t49.5 90t88 68.5t130 45.5q51 11 100 20.5t91.5 17.5t76 14.5t54.5 11.5q0 51 -12 79t-35 41t-57 15t-79 2q-18 0 -43.5 -1t-54 -2.5t-59 -3.5t-59.5 -4q-68 -5 -142 -11l-8 165q117 6 216 10l84 4t78 3.5
t63.5 2.5t39.5 1q97 0 155 -27t89 -78t41 -123.5t10 -162.5v-545h-225v121q-23 -35 -56 -60.5t-74.5 -41.5t-90 -23.5t-101.5 -7.5zM445 446q-85 -24 -132.5 -70t-47.5 -112q0 -33 15.5 -56t37.5 -37.5t47 -21t43 -6.5q63 0 112 21t82.5 55.5t51 80t17.5 93.5v111
q-60 -13 -120.5 -29t-105.5 -29zM308 1204q11 15 22.5 32.5t25 32.5t31 25t41.5 10q32 0 55.5 -19t42 -41.5t35.5 -41t37 -18.5q24 0 41.5 12t30.5 29t23 36.5t20 34.5v-118q-6 -18 -15 -35.5t-22 -32t-31 -23.5t-42 -9q-20 0 -35 8.5t-27 21t-23 27.5t-23.5 27.5t-28.5 21
t-38 8.5q-26 0 -44.5 -13t-32 -30.5t-23.5 -36t-20 -28.5v120z" />
    <glyph glyph-name="adieresis" unicode="&#xe4;" horiz-adv-x="995" 
d="M349 -12q-78 0 -132.5 20t-88.5 56t-49 85.5t-15 108.5t15.5 109t49.5 90t88 68.5t130 45.5q51 11 100 20.5t91.5 17.5t76 14.5t54.5 11.5q0 51 -12 79t-35 41t-57 15t-79 2q-18 0 -43.5 -1t-54 -2.5t-59 -3.5t-59.5 -4q-68 -5 -142 -11l-8 165q117 6 216 10l84 4t78 3.5
t63.5 2.5t39.5 1q97 0 155 -27t89 -78t41 -123.5t10 -162.5v-545h-225v121q-23 -35 -56 -60.5t-74.5 -41.5t-90 -23.5t-101.5 -7.5zM445 446q-85 -24 -132.5 -70t-47.5 -112q0 -33 15.5 -56t37.5 -37.5t47 -21t43 -6.5q63 0 112 21t82.5 55.5t51 80t17.5 93.5v111
q-60 -13 -120.5 -29t-105.5 -29zM276 1181q0 35 22.5 58.5t57.5 23.5t58 -23.5t23 -58.5q0 -34 -23 -57t-58 -23t-57.5 23t-22.5 57zM528 1181q0 35 22.5 58.5t56.5 23.5q36 0 59 -23.5t23 -58.5q0 -34 -23 -57t-59 -23q-34 0 -56.5 23t-22.5 57z" />
    <glyph glyph-name="aring" unicode="&#xe5;" horiz-adv-x="1005" 
d="M269 1259q0 46 18 87.5t48.5 72.5t72 49.5t88.5 18.5q46 0 87.5 -18.5t72.5 -49.5t49 -72.5t18 -87.5q0 -47 -18 -88t-49 -72t-72.5 -49t-87.5 -18q-47 0 -88.5 18t-72 49t-48.5 72t-18 88zM360 1259q0 -28 11 -52.5t29.5 -43t43 -29t52.5 -10.5t53 10.5t43.5 29t29 43
t10.5 52.5q0 29 -10.5 54t-29 43.5t-43.5 29t-53 10.5t-52.5 -10.5t-43 -29t-29.5 -43.5t-11 -54zM349 -12q-78 0 -132.5 20t-88.5 56t-49 85.5t-15 108.5t15.5 109t49.5 90t88 68.5t130 45.5q51 11 100 20.5t91.5 17.5t76 14.5t54.5 11.5q0 51 -12 79t-35 41t-57 15t-79 2
q-18 0 -43.5 -1t-54 -2.5t-59 -3.5t-59.5 -4q-68 -5 -142 -11l-8 165q117 6 216 10l84 4t78 3.5t63.5 2.5t39.5 1q97 0 155 -27t89 -78t41 -123.5t10 -162.5v-545h-225v121q-23 -35 -56 -60.5t-74.5 -41.5t-90 -23.5t-101.5 -7.5zM445 446q-85 -24 -132.5 -70t-47.5 -112
q0 -33 15.5 -56t37.5 -37.5t47 -21t43 -6.5q63 0 112 21t82.5 55.5t51 80t17.5 93.5v111q-60 -13 -120.5 -29t-105.5 -29z" />
    <glyph glyph-name="ae" unicode="&#xe6;" horiz-adv-x="1540" 
d="M1430 250q-8 -68 -40 -118t-82 -82.5t-114 -48t-135 -15.5q-52 0 -99 10.5t-87 33t-72 57t-54 82.5q-36 -50 -76.5 -84.5t-88.5 -56.5t-105.5 -31.5t-128.5 -8.5q-74 1 -124.5 21t-82.5 56t-46 85t-14 108t14.5 109t46.5 90t82.5 68.5t122.5 45.5q48 11 94 20.5
t85.5 17.5t71 14.5t51.5 11.5q0 51 -11 79t-33 41t-54 15t-74 2q-17 0 -41 -1t-51 -2.5t-55.5 -3.5t-55.5 -4q-64 -5 -133 -11l-8 165q111 6 203 10q39 2 78.5 4t73.5 3.5t59.5 2.5t37.5 1q37 0 66.5 -8.5t53 -23t42 -33t34.5 -38.5q20 24 50 44.5t66.5 36.5t77.5 25t84 9
q93 0 166 -27t123 -80t76.5 -131t26.5 -180q0 -29 -0.5 -50.5t-0.5 -39t-0.5 -31.5t-0.5 -28h-573q1 -58 14 -105t36 -80t56.5 -50.5t76.5 -17.5q64 0 99 33.5t43 88.5h229zM439 446q-80 -24 -124.5 -70t-44.5 -112q0 -33 14.5 -56t35.5 -37.5t44 -21t40 -6.5q59 0 105 21
t77.5 55.5t48 80t16.5 93.5v111q-57 -13 -113.5 -29t-98.5 -29zM1059 806q-52 0 -87 -22.5t-56.5 -60.5t-31 -88.5t-10.5 -105.5h360q0 48 -6 96t-25 87t-53 65t-91 29z" />
    <glyph glyph-name="ccedilla" unicode="&#xe7;" horiz-adv-x="975" 
d="M892 301q-9 -86 -36 -146t-75 -97.5t-119 -54.5t-170 -17q-191 0 -295.5 97t-113.5 300q-2 23 -2.5 40.5t-0.5 35t0.5 38.5t2.5 50q3 97 31.5 170.5t80.5 123.5t127 75.5t170 25.5q93 0 163 -17.5t118.5 -55t77.5 -95t41 -137.5h-240q-9 78 -53.5 117t-106.5 39
q-44 0 -74.5 -13t-50.5 -39.5t-30.5 -66t-14.5 -92.5q-2 -48 -2 -103.5t2 -107.5q3 -54 13 -97.5t30.5 -74.5t51.5 -47.5t75 -16.5q73 0 113.5 45.5t48.5 120.5h238zM364 -347v84h95q35 0 50 13.5t13.5 29.5t-17 29.5t-40.5 13.5h-115q-38 0 -56 23.5t-16.5 54t22 60.5
t60.5 42q-28 -40 -20 -70t51 -30h115q31 0 54 -18.5t34.5 -46.5t10.5 -60t-17.5 -60t-49 -46.5t-83.5 -18.5h-91z" />
    <glyph glyph-name="egrave" unicode="&#xe8;" horiz-adv-x="991" 
d="M894 248q-8 -68 -42 -117t-87.5 -81.5t-121.5 -48t-144 -15.5q-200 0 -303.5 97t-116.5 300q-2 23 -2.5 40.5t-0.5 35t0.5 38.5t2.5 50q10 195 114.5 295t305.5 100q99 0 176.5 -27t131 -79.5t81.5 -130t28 -178.5v-100.5t-2 -47.5h-610q1 -58 14.5 -104.5t38.5 -79.5
t60.5 -50.5t81.5 -17.5q68 0 105 33.5t46 87.5h244zM499 801q-56 0 -93 -22.5t-60 -60t-33 -87.5t-11 -105h383q0 47 -6.5 94.5t-26 86.5t-56.5 65t-97 29zM661 1083h-121l-297 162h215z" />
    <glyph glyph-name="eacute" unicode="&#xe9;" horiz-adv-x="987" 
d="M894 248q-8 -68 -42 -117t-87.5 -81.5t-121.5 -48t-144 -15.5q-200 0 -303.5 97t-116.5 300q-2 23 -2.5 40.5t-0.5 35t0.5 38.5t2.5 50q10 195 114.5 295t305.5 100q99 0 176.5 -27t131 -79.5t81.5 -130t28 -178.5v-100.5t-2 -47.5h-610q1 -58 14.5 -104.5t38.5 -79.5
t60.5 -50.5t81.5 -17.5q68 0 105 33.5t46 87.5h244zM499 801q-56 0 -93 -22.5t-60 -60t-33 -87.5t-11 -105h383q0 47 -6.5 94.5t-26 86.5t-56.5 65t-97 29zM530 1251h215l-297 -162h-121z" />
    <glyph glyph-name="ecircumflex" unicode="&#xea;" horiz-adv-x="987" 
d="M894 248q-8 -68 -42 -117t-87.5 -81.5t-121.5 -48t-144 -15.5q-200 0 -303.5 97t-116.5 300q-2 23 -2.5 40.5t-0.5 35t0.5 38.5t2.5 50q10 195 114.5 295t305.5 100q99 0 176.5 -27t131 -79.5t81.5 -130t28 -178.5v-100.5t-2 -47.5h-610q1 -58 14.5 -104.5t38.5 -79.5
t60.5 -50.5t81.5 -17.5q68 0 105 33.5t46 87.5h244zM499 801q-56 0 -93 -22.5t-60 -60t-33 -87.5t-11 -105h383q0 47 -6.5 94.5t-26 86.5t-56.5 65t-97 29zM525 1329l196 -273h-132l-98 162l-107 -162h-134l206 273h69z" />
    <glyph glyph-name="edieresis" unicode="&#xeb;" horiz-adv-x="987" 
d="M894 248q-8 -68 -42 -117t-87.5 -81.5t-121.5 -48t-144 -15.5q-200 0 -303.5 97t-116.5 300q-2 23 -2.5 40.5t-0.5 35t0.5 38.5t2.5 50q10 195 114.5 295t305.5 100q99 0 176.5 -27t131 -79.5t81.5 -130t28 -178.5v-100.5t-2 -47.5h-610q1 -58 14.5 -104.5t38.5 -79.5
t60.5 -50.5t81.5 -17.5q68 0 105 33.5t46 87.5h244zM499 801q-56 0 -93 -22.5t-60 -60t-33 -87.5t-11 -105h383q0 47 -6.5 94.5t-26 86.5t-56.5 65t-97 29zM282 1148q0 35 22.5 58.5t57.5 23.5t58 -23.5t23 -58.5q0 -34 -23 -57t-58 -23t-57.5 23t-22.5 57zM534 1148
q0 35 22.5 58.5t56.5 23.5q36 0 59 -23.5t23 -58.5q0 -34 -23 -57t-59 -23q-34 0 -56.5 23t-22.5 57z" />
    <glyph glyph-name="igrave" unicode="&#xec;" horiz-adv-x="463" 
d="M388 1085h-121l-297 162h215zM114 0v934h240v-934h-240z" />
    <glyph glyph-name="iacute" unicode="&#xed;" horiz-adv-x="483" 
d="M234 1241h215l-297 -162h-121zM114 0v934h240v-934h-240z" />
    <glyph glyph-name="icircumflex" unicode="&#xee;" horiz-adv-x="467" 
d="M262 1330l196 -273h-132l-98 162l-107 -162h-134l206 273h69zM114 0v934h240v-934h-240z" />
    <glyph glyph-name="idieresis" unicode="&#xef;" horiz-adv-x="473" 
d="M32 1183q0 35 22.5 58.5t57.5 23.5t58 -23.5t23 -58.5q0 -34 -23 -57t-58 -23t-57.5 23t-22.5 57zM284 1183q0 35 22.5 58.5t56.5 23.5q36 0 59 -23.5t23 -58.5q0 -34 -23 -57t-59 -23q-34 0 -56.5 23t-22.5 57zM114 934h240v-934h-240v934z" />
    <glyph glyph-name="eth" unicode="&#xf0;" horiz-adv-x="848" 
d="M546 894q25 -43 48.5 -81t46 -74t43 -72t39.5 -76q24 -51 37 -89.5t18.5 -71.5t5 -64t-2.5 -65q-5 -64 -33 -119t-75 -96t-111.5 -64.5t-140.5 -23.5q-77 0 -142.5 24t-113.5 68.5t-75.5 106.5t-27.5 137q0 73 19 130t51.5 98t75.5 67.5t92 38.5q13 3 34 4.5t44.5 0
t48 -6.5t45.5 -15l-100 150l-130 -81l-42 62l124 84l-93 127l187 110l81 -144l123 76l40 -70zM425 528q-31 0 -58 -13t-47.5 -36.5t-32.5 -56.5t-12 -72q0 -44 11.5 -78.5t31 -59t46.5 -37.5t59 -13q75 0 121.5 49.5t46.5 136.5q0 42 -14 75.5t-37.5 57t-53.5 35.5t-61 12z
" />
    <glyph glyph-name="ntilde" unicode="&#xf1;" horiz-adv-x="1061" 
d="M750 532q0 59 -15.5 105.5t-43.5 78t-68 48t-88 16.5q-96 0 -150 -64.5t-54 -183.5v-532h-228v928h228v-123q34 62 98 96.5t166 34.5q104 0 175.5 -30t116 -82.5t64 -122.5t19.5 -150v-551h-220v532zM357 1173q11 15 22.5 32.5t25 32.5t31 25t41.5 10q32 0 55.5 -19
t42 -41.5t35.5 -41t37 -18.5q24 0 41.5 12t30.5 29t23 36.5t20 34.5v-118q-6 -18 -15 -35.5t-22 -32t-31 -23.5t-42 -9q-21 0 -35.5 8.5t-26.5 21t-23 27.5t-23.5 27.5t-28.5 21t-38 8.5q-26 0 -44.5 -13t-32 -30.5t-23.5 -36t-20 -28.5v120z" />
    <glyph glyph-name="ograve" unicode="&#xf2;" horiz-adv-x="970" 
d="M894 547q1 -29 2 -50t1 -38.5t-1 -35t-2 -40.5q-8 -203 -111.5 -300t-296.5 -97q-194 0 -296 97t-111 300q-1 23 -1.5 40.5t-0.5 35t0.5 38.5t1.5 50q6 195 109 295t298 100t298 -100t110 -295zM668 360q2 53 2.5 108t-2.5 103q-6 107 -48.5 164.5t-133.5 57.5
q-90 0 -132 -57.5t-50 -164.5q-2 -48 -2 -103t2 -108q5 -108 48.5 -166.5t133.5 -58.5q91 0 134 58.5t48 166.5zM640 1067h-121l-297 162h215z" />
    <glyph glyph-name="oacute" unicode="&#xf3;" horiz-adv-x="975" 
d="M894 547q1 -29 2 -50t1 -38.5t-1 -35t-2 -40.5q-8 -203 -111.5 -300t-296.5 -97q-194 0 -296 97t-111 300q-1 23 -1.5 40.5t-0.5 35t0.5 38.5t1.5 50q6 195 109 295t298 100t298 -100t110 -295zM668 360q2 53 2.5 108t-2.5 103q-6 107 -48.5 164.5t-133.5 57.5
q-90 0 -132 -57.5t-50 -164.5q-2 -48 -2 -103t2 -108q5 -108 48.5 -166.5t133.5 -58.5q91 0 134 58.5t48 166.5zM499 1209h215l-297 -162h-121z" />
    <glyph glyph-name="ocircumflex" unicode="&#xf4;" horiz-adv-x="970" 
d="M894 547q1 -29 2 -50t1 -38.5t-1 -35t-2 -40.5q-8 -203 -111.5 -300t-296.5 -97q-194 0 -296 97t-111 300q-1 23 -1.5 40.5t-0.5 35t0.5 38.5t1.5 50q6 195 109 295t298 100t298 -100t110 -295zM668 360q2 53 2.5 108t-2.5 103q-6 107 -48.5 164.5t-133.5 57.5
q-90 0 -132 -57.5t-50 -164.5q-2 -48 -2 -103t2 -108q5 -108 48.5 -166.5t133.5 -58.5q91 0 134 58.5t48 166.5zM518 1315l196 -273h-132l-98 162l-107 -162h-134l206 273h69z" />
    <glyph glyph-name="otilde" unicode="&#xf5;" horiz-adv-x="975" 
d="M894 547q1 -29 2 -50t1 -38.5t-1 -35t-2 -40.5q-8 -203 -111.5 -300t-296.5 -97q-194 0 -296 97t-111 300q-1 23 -1.5 40.5t-0.5 35t0.5 38.5t1.5 50q6 195 109 295t298 100t298 -100t110 -295zM668 360q2 53 2.5 108t-2.5 103q-6 107 -48.5 164.5t-133.5 57.5
q-90 0 -132 -57.5t-50 -164.5q-2 -48 -2 -103t2 -108q5 -108 48.5 -166.5t133.5 -58.5q91 0 134 58.5t48 166.5zM293 1171q11 15 22.5 32.5t25 32.5t31 25t41.5 10q32 0 55.5 -19t42 -41.5t35.5 -41t37 -18.5q24 0 41.5 12t30.5 29t23 36.5t20 34.5v-118q-6 -18 -15 -35.5
t-22 -32t-31 -23.5t-42 -9q-20 0 -35 8.5t-27 21t-23 27.5t-23.5 27.5t-28.5 21t-38 8.5q-26 0 -44.5 -13t-32 -30.5t-23.5 -36t-20 -28.5v120z" />
    <glyph glyph-name="odieresis" unicode="&#xf6;" horiz-adv-x="970" 
d="M894 547q1 -29 2 -50t1 -38.5t-1 -35t-2 -40.5q-8 -203 -111.5 -300t-296.5 -97q-194 0 -296 97t-111 300q-1 23 -1.5 40.5t-0.5 35t0.5 38.5t1.5 50q6 195 109 295t298 100t298 -100t110 -295zM668 360q2 53 2.5 108t-2.5 103q-6 107 -48.5 164.5t-133.5 57.5
q-90 0 -132 -57.5t-50 -164.5q-2 -48 -2 -103t2 -108q5 -108 48.5 -166.5t133.5 -58.5q91 0 134 58.5t48 166.5zM286 1163q0 35 22.5 58.5t57.5 23.5t58 -23.5t23 -58.5q0 -34 -23 -57t-58 -23t-57.5 23t-22.5 57zM538 1163q0 35 22.5 58.5t56.5 23.5q36 0 59 -23.5
t23 -58.5q0 -34 -23 -57t-59 -23q-34 0 -56.5 23t-22.5 57z" />
    <glyph glyph-name="divide" unicode="&#xf7;" horiz-adv-x="709" 
d="M222 719v260h256v-260h-256zM224 0v260h256v-260h-256zM26 591h641v-194h-641v194z" />
    <glyph glyph-name="oslash" unicode="&#xf8;" horiz-adv-x="917" 
d="M861 547q1 -29 2 -50t1 -38.5t-1 -35t-2 -40.5q-8 -203 -111.5 -300t-296.5 -97q-48 0 -89 5.5t-77 16.5l-59 -133l-67 33l57 130q-162 91 -172 345q-1 23 -1.5 40.5t-0.5 35t0.5 38.5t1.5 50q6 195 109 295t298 100q86 0 155 -21l44 99l68 -31l-42 -96q174 -91 183 -346
zM635 360q2 53 2.5 108t-2.5 103q-3 45 -11.5 81t-24.5 64l-245 -555q40 -26 99 -26q91 0 134 58.5t48 166.5zM271 360q3 -82 30 -136l242 548q-38 21 -90 21q-90 0 -132 -57.5t-50 -164.5q-2 -48 -2 -103t2 -108z" />
    <glyph glyph-name="ugrave" unicode="&#xf9;" horiz-adv-x="1018" 
d="M679 113q-29 -57 -85 -89t-147 -32q-98 0 -162 30t-102.5 82.5t-54 122.5t-15.5 150v551h213v-533q0 -120 39.5 -179.5t128.5 -59.5q45 0 79.5 18.5t58 53t35.5 83.5t12 109v508h213v-928h-213v113zM653 1084h-121l-297 162h215z" />
    <glyph glyph-name="uacute" unicode="&#xfa;" horiz-adv-x="1028" 
d="M679 113q-29 -57 -85 -89t-147 -32q-98 0 -162 30t-102.5 82.5t-54 122.5t-15.5 150v551h213v-533q0 -120 39.5 -179.5t128.5 -59.5q45 0 79.5 18.5t58 53t35.5 83.5t12 109v508h213v-928h-213v113zM546 1244h215l-297 -162h-121z" />
    <glyph glyph-name="ucircumflex" unicode="&#xfb;" horiz-adv-x="1022" 
d="M679 113q-29 -57 -85 -89t-147 -32q-98 0 -162 30t-102.5 82.5t-54 122.5t-15.5 150v551h213v-533q0 -120 39.5 -179.5t128.5 -59.5q45 0 79.5 18.5t58 53t35.5 83.5t12 109v508h213v-928h-213v113zM550 1355l196 -273h-132l-98 162l-107 -162h-134l206 273h69z" />
    <glyph glyph-name="udieresis" unicode="&#xfc;" horiz-adv-x="1032" 
d="M679 113q-29 -57 -85 -89t-147 -32q-98 0 -162 30t-102.5 82.5t-54 122.5t-15.5 150v551h213v-533q0 -120 39.5 -179.5t128.5 -59.5q45 0 79.5 18.5t58 53t35.5 83.5t12 109v508h213v-928h-213v113zM305 1177q0 35 22.5 58.5t57.5 23.5t58 -23.5t23 -58.5q0 -34 -23 -57
t-58 -23t-57.5 23t-22.5 57zM557 1177q0 35 22.5 58.5t56.5 23.5q36 0 59 -23.5t23 -58.5q0 -34 -23 -57t-59 -23q-34 0 -56.5 23t-22.5 57z" />
    <glyph glyph-name="yacute" unicode="&#xfd;" horiz-adv-x="757" 
d="M184 -260l133 387l-326 801h242l178 -525l135 525h236l-375 -1188h-223zM438 1232h215l-297 -162h-121z" />
    <glyph glyph-name="thorn" unicode="&#xfe;" horiz-adv-x="871" 
d="M126 1062h180v-263q32 28 74.5 42t87.5 14q159 0 239 -80.5t86 -235.5q3 -68 -14 -128t-56.5 -104.5t-102.5 -70.5t-152 -26q-45 0 -87.5 13.5t-74.5 40.5v-264h-180v1062zM460 329q50 0 80.5 19.5t46.5 51.5t20.5 72t1.5 82q-5 85 -40 133t-109 48q-73 0 -110.5 -50
t-37.5 -147q0 -65 9.5 -105.5t28 -63.5t46.5 -31.5t64 -8.5z" />
    <glyph glyph-name="ydieresis" unicode="&#xff;" horiz-adv-x="772" 
d="M298 127l-326 801h242l168 -588l145 588h236l-375 -1188h-223zM190 1161q0 35 22.5 58.5t57.5 23.5t58 -23.5t23 -58.5q0 -34 -23 -57t-58 -23t-57.5 23t-22.5 57zM442 1161q0 35 22.5 58.5t56.5 23.5q36 0 59 -23.5t23 -58.5q0 -34 -23 -57t-59 -23q-34 0 -56.5 23
t-22.5 57z" />
    <glyph glyph-name="quotedbl" unicode="&#x22;" horiz-adv-x="626" 
d="M125 1205h164v-150l-130 -320h-87zM376 1203h164v-149l-130 -320h-87z" />
    <glyph glyph-name="alefalefalef" unicode="&#xf8ff;" horiz-adv-x="2978" 
d="M-2 965h958v-959h-958v959zM516 504q-2 14 -19.5 31.5t-33.5 37.5q-5 6 -18.5 20.5t-31 34t-38.5 43t-41 46.5q-25 26 -52 56.5t-57 64.5h-47v-56l154 -153q-45 -17 -68.5 -44.5t-42.5 -60.5q-22 -44 -4 -99q10 -27 22 -54t27 -54q33 -54 10 -102h-120q-6 -6 -9.5 -25.5
t9.5 -42.5h166q18 42 26.5 70.5t6 56t-16.5 59.5t-41 81q-10 18 -11.5 43t7 49.5t29 44.5t53.5 29l385 -455h45v51l-47.5 57t-42.5 52q-17 20 -34 39.5t-33 37.5q-16 19 -26 31t-14 17q-28 34 -28 59t14 47q12 24 32.5 57t45 63.5t50 51.5t46.5 21h35v39q0 12 -5 21t-30 9
h-125l-27 60h-45l-8 -117q11 -5 23 -6q10 -2 26.5 -3t38.5 -1q-66 -81 -98.5 -130t-32.5 -77h-4zM1008 965h958v-959h-958v959zM1526 504q-4 14 -20.5 31.5t-32.5 37.5q-6 6 -19 20.5t-30.5 34t-38 42.5t-42.5 47q-26 26 -53.5 56.5t-56.5 64.5h-49v-56l155 -153
q-45 -17 -68.5 -44.5t-39.5 -60.5q-12 -23 -13 -48t6 -51t20.5 -53.5t31.5 -54.5q16 -28 18 -53.5t-8 -48.5h-125q-4 -6 -7 -25.5t7 -42.5h170q19 41 27.5 70t5.5 56.5t-17.5 60t-39.5 80.5q-12 19 -13.5 44t7.5 49t29 44t52 29l387 -455h46v51q-26 30 -49.5 57t-43.5 52
q-17 20 -33.5 39.5t-33.5 37.5q-33 37 -39 48q-15 17 -22 31.5t-8 27.5t3 24.5t10 22.5q12 24 33 57t45.5 63.5t50 51.5t48.5 21h32v39q0 12 -4 21t-28 9h-125l-27 60h-43l-10 -117q11 -5 22 -6q20 -4 66 -4q-66 -81 -97.5 -130t-31.5 -77h-4zM2021 965h963v-959h-963v959z
M2540 504q-5 14 -20 31.5t-34 37.5l-17.5 21t-30 34.5t-38 42.5t-41.5 46q-25 26 -52 56.5t-56 64.5h-51v-56l155 -153q-45 -17 -69.5 -44.5t-40.5 -60.5q-11 -23 -11 -48t6.5 -51t19.5 -53.5t30 -54.5q18 -28 19 -53.5t-9 -48.5h-123q-4 -6 -7 -25.5t7 -42.5h170
q18 40 26 69t5 57t-17.5 60.5t-40.5 80.5q-10 18 -11.5 43t7 49.5t29 44.5t53.5 29l385 -455h45l2 51q-26 30 -49 57t-43 52q-34 40 -68 77q-33 39 -38 48q-31 34 -30 59t15 47q10 24 30.5 57t45.5 63.5t51 51.5t47 21h35v39q0 12 -6 21t-29 9h-125l-26 60h-45l-8 -117
q11 -5 22 -6q17 -4 66 -4q-66 -81 -99.5 -130t-33.5 -77h-2z" />
    <glyph glyph-name="nonbreakingspace" unicode="&#xa0;" horiz-adv-x="515" 
 />
    <glyph glyph-name="peace" unicode="&#x262e;" horiz-adv-x="931" 
d="M-11 -211q-182 -4 -187.5 -84.5t-90 -82.5t-90 -77.5t-52 -77.5t419.5 322zM-530.5 -684q-42.5 -2 -48 -62t-32.5 -62t-32.5 -7t-27 -7t-29 -3t-51.5 -3t-49.5 -2t-26.5 -1.5t-26.5 -108.5t-25.5 -108.5t-25.5 -106.5t-21 -106.5t-21 -98t-17 -98t-17 -97t-13.5 -97
t-13.5 -51.5t-11.5 -51.5t-11 -12.5t-124 -17.5t-124 -72t-117.5 -66t-117.5 -100.5t-114.5 -100.5t-117 -99.5t-41.5 -105.5t-39 -69t-111 -63t-111 -72.5t-105.5 -72.5t-105.5 -72t-104.5 -72t-104.5 -71.5t-99 -71.5t-99 -69.5t-88.5 -75.5t-88.5 -68.5t-68 -62.5
t-68 -69t-65.5 -69t-65.5 -68.5t-45 -68.5t-45 -68t-40.5 -68t-40.5 -66t-39.5 -66t-42 -51.5t-20.5 -51.5t-18 -50.5t-34 -50.5t-34 -50t-28 -50t-28 -49.5t-13 -49t-13 -114.5t-8 -114.5t1533.5 1830.5t1494 1828.5zM-3670 -4571q-100 0 -104.5 -113.5t-103.5 -113.5
t-106.5 -102t-12 -102t-9 -100.5t-103 -100.5t-103 -99.5t-100.5 -99.5t-100.5 -98.5t-99.5 -98.5t-99.5 -94t-97.5 -94t-97.5 -93t-95.5 -93t-95.5 -92t-94.5 -92t-97.5 -88l-7.5 -88l-4.5 -87.5t-94 -87.5t-96.5 -87t-134.5 -87t-132 -85t-93 -85t-93 -84.5t-90.5 -84.5
t-90.5 -84t-90 -84t-90 -35.5t-85.5 -35.5t-85.5 -35t-65 -35t-65 -34.5t-60.5 -34.5t-60.5 -32t-50 -32t-50 -31t-44.5 -31t-44.5 -57.5t-36.5 -57.5t-36.5 -30t-32 -30.5t-34.5 -52t-121.5 -51.5t-119 -30.5t-29.5 -30.5t1815.5 1647t1740.5 1647zM-7280.5 -7925
q-20.5 0 -25 -47t-18 -53.5t-18 -9.5t-14.5 -10.5t-14.5 -104t-12.5 -102.5t-12 -95.5t-125 -97t-125 -103.5t-123 -102t-123 -92.5t-95 -94t-95 -103t-84 -101.5t-84 -91.5t-83 -91.5t-83 -85.5t-81 -85.5t-81 -64.5t-69.5 -66t-69.5 -96t-62 -94.5t-62 -61.5t-47.5 -61.5
t-47.5 -24.5t-45 -24.5t-45 -6.5t-37 -8t-65.5 -79t-160 -77t-131.5 -113t-34 -115t1081.5 1177t1091 1184.5zM-9519.5 -10410.5q-28.5 -5.5 -32.5 -60.5t-25 -62.5t-25 -61t-12 -59t-12 -54.5t-8.5 -56.5t-8.5 -57t-7.5 -55t-7 -45.5t-129 -45.5t-129 -34.5t-118 -34
t-118 -116t-106.5 -116t-106.5 -29t-99 -29t-99 -21t-97.5 -20.5t-97.5 -71t-93.5 -71t-93.5 -26t-91.5 -26t-91.5 -10.5t-64 -10t-64 -114t-63 -117t-63 -103t-53 -100t-53 -55t-50.5 -54.5t1000 858.5t1018.5 856.5zM-11667 -12367.5q-68 -3.5 -71.5 -120t-37 -120
t-37 -61.5t-34.5 -61.5t-34.5 -29.5t-34 -29t-33.5 -14t-123 -13.5t-123 -10t-121 -40t-121 -145t-102 -115t-102 -9t-101 -8.5t-101 -83.5t-92 -88t-96 -84t-49.5 -78.5t-45.5 -117.5t-64.5 -117.5t-64.5 -117t-53 -117t-53 -107t-52.5 -107t-52.5 -105t10240 255
t20234 717t17418 2098t8453.5 2097t-3195 713.5t-27752.5 -1811t-23599 -2171zM19598.5 -4214.5q-5629.5 339.5 9733 678.5t27525 677.5t23941 2073.5t14212.5 2055.5t-8188 640.5t-21372 639.5t-22268 638t-6908 636.5t8068 635.5t6276 622t5379.5 607t-12285 604
t-4093 537t21251 470.5t20739 469.5t20355 468.5t19080 414t-4472.5 214t-20734 213.5t-14846 1846t-15998 3291.5t-17662 3247t-19070 3243t-19966.5 3236t-11135.5 3209t-11008 3185t14546 -16650.5t18900.5 -17902zM14952 36573q12416 1536 24576 3051t23936 3002
t23296 2949.5t22912 2919t22528 2904t21504 2884t20480 2827t19840 2694t19200 2599t-1024 2513.5t-1145.5 2391t17037 2330.5t11150 2291t-2034.5 2241t-7538.5 2188.5t-9970.5 2161.5t-17010.5 2155t-17778.5 2138t-21620 2076.5t-370.5 2024.5t-755 1965t-13429 1895.5
t-3445 1882t-14579 2798t2189 2781.5t25485 1846t25101 1843.5t24077 1805.5t22413 2723.5t17035 2687t10635 1674t8845 1648t14861 1643.5t14091 2654.5t5003 2653t3338.5 1598.5t-1011.5 2598t6540.5 2586t-148906 -45196.5t-145455 -44427zM319450 129099
q8837 647 4236.5 1293t3596.5 1284t1292.5 1273t1164.5 1228t906 1185t-15987.5 963.5t-3571.5 742.5t21514 732.5t31628.5 721t19340.5 718t13194 716t14986 713.5t7690 694t2828.5 657t2316 636t-5620 621t-5748 606t-6004 603t-6388 534.5t-7156 458.5t-7284 403.5
t-7543 355t-19319 289.5t-23159 225.5t3211.5 224.5t13451.5 223.5t-22164.5 -9318.5t-11412 -8783zM394772 147606q14468.5 97.5 25993 194.5t19593 192t13195.5 189.5t1163.5 181t-375 172.5t6025 171.5t4360.5 169t8 113t-4344 58.5t-12024 57.5t-22008 56.5t-25080 72
t-25845 71.5t-20981 28t7304 180t30088 207t25355 75t907 1714t-1656 3291.5t14984 3247t8200 3243t1799.5 3236t10.5 3209t-11381.5 3185t-13945 3145t-12153 3090t-18681 3051t-20213.5 3002t2435.5 -17106.5t27265 -18496zM342693 189076q15623 1456.5 1674.5 2904
t1415 2884t27911 2827t21002.5 2694t-7029.5 2599t-7417 2513.5t15750.5 2391t5510 2330.5t-9722 2291t-17658 2241t2438 2188.5t22662 2161.5t19973.5 2155t5513.5 2138t1417.5 2076.5t773 2024.5t-10742.5 1965t-2806.5 1895.5t-41671 -21397t-28994.5 -20882.5z
M459320 236036q12034.5 1858 23941 2781.5t23556.5 1846t772 1843.5t-21884 1805.5t-22140 2723.5t-22780 2687t-23415.5 1674t-14839.5 1648t11784.5 1643.5t9864.5 2654.5t-1404 2653t6276 1598.5t5128.5 2598t-3704 2586t-9725 1511t-18557 1391.5t-30077 1293
t-4477 1284t20995 1273t20355 1228t18819 1185t17538.5 963.5t1282 742.5t-17662.5 732.5t-11391 721t-14847 718t-27519 716t-27775 713.5t257 694t28289 657t28033 636t27777 621t14659.5 -24688.5t12869.5 -23134.5zM473778 285068q1024.5 301 1921 534.5t1665 458.5
t1408.5 403.5t13696 355t25984 289.5t25728 225.5t12750.5 112.5t-49.5 -112t-49 -112t-49 -111.5t-48 -111.5t-48 -98t-44 -98t-44 -97.5t-43 -97.5t-43 -97t-42.5 -97t-42.5 -95t-42 -95t-42 -94.5t-41795.5 -729t-40771 -333.5zM556261 285950q0 -86.5 -41 -86.5t-41 -86
t-40 -86t-40 -85.5t-78.5 -85.5t-78.5 -83.5t-36 -83.5t-36 -29.5t-88.5 -29.5t-88.5 -29t-36.5 -29t-36.5 -28.5t-36 -28.5t-36 -28t-47 -28t-53.5 -44t-44.5 -44t-44.5 -27.5t448 500.5t454.5 441.5zM555276 284952q-7.5 -27.5 -120 -27.5t-119 -0.5t-26.5 -0.5
t-26.5 -43.5t-21 -43.5h-21h-10t-11 -0.5t-115 -0.5t-113.5 -27.5t-133 -27.5t-133 -0.5t-131.5 -0.5t-131.5 -37.5t557 100t555.5 110zM553910 284640q-7.5 -37.5 -112 -125.5t-110.5 -97t-118 -49t-119.5 -84t-111 -76.5t-109.5 -160t-115.5 -127.5h-117h-110h-108.5
h-113.5t-140 -19.5t680 378.5t705 360.5zM552230 283863q-7.5 -19 -109.5 -19h-108h-111.5t-113 -41t-106.5 -47t-105 -127.5t-103.5 -127.5t-105 -84t-106 -84t-104.5 -79t-102.5 -79t-102.5 -77t-96 -77t-97.5 -76t-98.5 -76t-97 -72t-69.5 -72t-71 -20t903.5 581.5
t903.5 576.5zM550238 282675q-6 -4 -48.5 -9.5t-50 -130.5t-91.5 -130.5t-90 -129.5t-45.5 -129.5t-47 -80.5t185.5 269.5t187 340.5zM549686 281906q-6 -73 -43.5 -78.5t-43.5 -71.5t-41 -71.5t-42.5 -42.5t-89.5 -42.5t-88 -24t-39.5 -23.5t-41 -132.5t-84.5 -132.5
t-83 -62.5t-16.5 -62.5t-16 -59t-128.5 -59t-128.5 -58t-127.5 -58t-129.5 -7t570.5 528t572 457zM548388 280801q-5.5 -109 -111 -113.5t-111 -105.5t-108.5 -105.5t-108.5 -74.5t-105.5 -74.5t-107.5 -7t-74.5 -9.5t-72.5 -105.5t-102 -102.5t-104 -89t-73 -92t-71 -95
t-97 -92t-97 -5.5t671.5 589.5t671.5 482zM546922 279636q-5.5 -85.5 -40.5 -89t-40.5 -88t-32 -87.5t-32 -125.5t-26 -125.5t-25.5 -109.5t-113.5 -109.5t-113.5 -47.5t212 411.5t211.5 370.5zM546277 278695q-5 -109 -107.5 -111.5t-107.5 -97t-89.5 -97t-92 -75.5
t197 208.5t199.5 172.5zM545814 278180q-5 -56 -89 -58.5t-89 -31.5t-85.5 -31.5t-85.5 -24t-84.5 -23.5t-84.5 -96t-80 -96t-80 -95.5t339 209.5t339 247zM545024 277548q-5 -78.5 -44.5 -80.5t-47 -79t-22.5 -79t-20 -41t-40 -41t-40 -29t-37.5 -28.5t-37.5 -126
t144.5 229t144.5 275zM544664 276800q-5 -106 -33.5 -107.5t-33.5 -119.5t-14.5 -124.5t-14.5 -87t-5 -82t-4.5 -2t-130.5 -7t-130.5 -83.5t-127.5 -78t-127.5 -115.5t-121.5 -115.5t-121.5 -111.5t-117.5 -111.5t-117.5 -110.5t-110.5 -110.5t-110.5 -33t-102.5 -33
t-105.5 -32.5t-9.5 -32.5t-6.5 -31.5t772.5 802t772 726.5zM542920 275224q-7.5 -14.5 -8.5 -15.5t-5.5 -15t-96 -15t-99 -14.5t-8 -14.5t-5 -14t112.5 45t109.5 43.5zM542508 275108q-4.5 -12.5 -93.5 -13.5t-93.5 -13t-92.5 -13t-95 -12.5t-133.5 -12.5t-131 -12
t-10624 251t-26231 523.5t-5239 522.5t20491.5 521.5t6795.5 520.5t3849 519.5t13961 518.5t13064.5 517.5t-4574 -1773.5t-10854.5 -2044.5zM539268 279873q-8825 229 -15861 457.5t-15989 434t-16373 410.5t-17912 409.5t-22136 1930t-25592 1918.5t-28408 385.5
t-29176 384.5t-30453 383.5t-23413 382.5t-23544 381.5t-632 380.5t27144 379.5t23563 346.5t2699 313.5t2312 312.5t106932 -4641.5t86839 -4568.5zM369199 292828q-9340 144.5 -760 288.5t15499 287.5t-2933 286.5t-4341 285.5t-4597 284.5t-7928.5 283.5t8290 -859.5
t-3229.5 -856.5zM354684 295108q-6521 140.5 -18037.5 280.5t-19705 1860.5t-20213.5 1803.5t-25205.5 165.5t-28153 164.5t775 163.5t29959 162.5t28170.5 161.5t-245.5 160.5t-2041.5 159.5t11398 158t-1658 156.5t-3578 155.5t-9974 154t5258 102.5t1798 51t5382 49
t31750 46.5t30982 44.5t27270 43.5t23558 42t12554 81.5t7689.5 80.5t5253 1677.5t-8827 3272.5t-14843 3224t-22907 3217t-30971 3214t-9467 3209t8453 3153t4485 3091t4228.5 3074t-4604 3066t-13564 3016t-16252 2965t-19452 2956t13573 -22024t17162 -23358z
M287349 346778q5250 1959.5 10244 3367.5t9732 2743t9220 2668.5t6659.5 2616t515 2544t6531 2515t16130.5 2476t6018 2377.5t-10494 2263.5t-17406 2133.5t-17918 2897.5t-19071 2854.5t-7697.5 -16217t7536.5 -15239.5zM248470 383942q-9856 981 -20736 1872
t-20985.5 1766t-243 1688t18701 1562.5t9868.5 1484.5t524 1448.5t-2292 1383t-11380 1276t6540 2391.5t25227.5 2374.5t7947 1098.5t-2549 1010.5t-1084.5 -9917.5t-9538 -9438zM258094 404937q14469.5 370 29069 736t27149 653t21642.5 553.5t4234 524.5t-11251.5 1988
t652.5 1960t-3958 434t-23030 393t-35502 -3711.5t-9005.5 -3530.5zM252574 412818q-13435 139.5 -246 216.5t21642 153t16394 97t11018 41t5642 48.5t3850 47.5t1417.5 37t-247 37.5t-1527 38.5t-3831 66t-6388 1733.5t-1908 3361t-3700.5 3688t-6772.5 3625t-11592 -5859
t-23751.5 -7331zM262592 432852q6916.5 2012.5 8585 3621t2056.5 3212.5t-1272 3190t-5368 3169t-7313 -6811t3311.5 -6381.5zM240113 452660q-7676 1982 -15480 3471.5t-15736 3464t-16632 3434.5t-17784 3432t-19704 3425t-22136 2897.5t-25336 3408t-28152 3388
t77152 -13739t83808 -13181.5zM20033 485782q-15612 1959 -245 3365t6667 3359t3336 3337t23816 3334t22792 3323t18059 3321t-3445.5 3315t-12921 3311t-6393 3294.5t-12537 3294t-17913 3293t-21113 3289.5t-23673 3281.5t-27001 2678.5t775 2671.5t30215 3268
t24766.5 -25880.5t-5185 -25855zM53201 543378q10243 1306.5 9606 2599.5t-1786 2572.5t-2810 2557t-3578 2546t-8314 2533t-13306 2528t-14074 2497.5t-16762 3149.5t-19962 3136t-21238 3128t266 3088.5t27398 2281t31750 2197t27654 2186t24202 2176t22282 2971.5
t-20664 -20784.5t-20664 -21362.5zM137677 591412q9347 1871 18438 2846.5t9093.5 2846t-251 2844t-1915 1860.5t-4342.5 9334.5t2441.5 10270.5t-2043 2601t-14557 1555.5t-7517 2592.5t-9595 2569t-20726.5 1507.5t-7798.5 1450t16442 -21726t22330.5 -20551.5z
M75243.5 636446q3330.5 668.5 -12155 1336t-9207 1330t6152.5 1254t-1532 1144t-7932 1104.5t-13308 1092t-13948 1050t-14588 965t-15100 904t-16892 879.5t-19196 2180t-25084 2154t62178.5 -7828.5t80611 -7564.5zM-99666 656109q14466 380 28676 705.5t27268 650
t-28676 -705.5t-27268 -650zM-14786 658756q5122 322 9988 638.5t7172 606t2947.5 573.5t-1149 560.5t-6781 552t3331 549t16387 546.5t9986.5 544.5t-22541.5 -2310.5t-19340.5 -2260zM16732 663779q-8703 23 -17662 72.5t-22142.5 67.5t-8703.5 35.5t-3584 35t-17792 35.5
t-25088 59.5t44157.5 -143.5t50814.5 -162zM-68000 669881q8448 1687 -1664 3716.5t-1536 3704.5t20615.5 3286t-1651 3624t-16117 3623.5t-12533 3218.5t-22261 3620t-25845 3616.5t-28661 3612t-30453.5 3594t48087.5 -17858t72018.5 -17757.5zM-211510 712680
q-2811 1583.5 -12022 3577.5t138 3519.5t14476.5 3014.5t7564.5 2948.5t7049.5 2912t3721 2896.5t-3063 2868t-16375 2832.5t-28788.5 2814t-16884.5 2789t22347.5 -15186t21836 -14986zM-218812 748348q12292.5 1366.5 16008.5 2716.5t-6264 2699t-20725 2690
t-20341 2677.5t-2040.5 2646t3847 3241.5t-11129 3239t-20853.5 2600.5t-28661.5 2586t-6393 2571.5t46547.5 -13877.5t50004.5 -13790zM-305618 781116q135 1268 15114 2532t14854 2527t-15114 -2532t-14854 -2527zM-304182 791140q-9725 1233.5 -20218 2453.5
t-21498 2400.5t20218 -2453.5t21498 -2400.5zM-402718 800470q-15357 1096.5 -31098 2185t-31738 2175t31098 -2185t31738 -2175zM-458110 809023q9091 975 15754 1948t15498 1859.5t14474 1663.5t14346 1553.5t14090 1529.5t13962 1450t13706 1392t12682 1363t8837.5 1335
t5 1329t-66861.5 -7868t-56493 -7555zM-347802 827021q-8189.5 591 -18294.5 1181t-7286.5 2365.5t18294.5 -1181t7286.5 -2365.5zM-329724 834000q10370.5 551.5 19333 1091t17796.5 1078t4868 1048t-8316 965t-13308 910t-22652 857.5t-27900 781.5t-4348 703.5t19460 649
t10627.5 647.5t-2453 -4479.5t6892 -4251.5zM-341838 844017q-5630.5 316 -11773 592t6403 551t15106.5 549.5t514 548.5t-7934 545t6273.5 297.5t4481 52t-15487 50t-3455.5 48t-3968 42t-17792 62.5t1280 61.5t21367 -1849t4984.5 -1550.5zM-343084 852453
q-2554.5 1671 -12789 3649t-22517 3447.5t-26101 3386.5t-28917 3143.5t-30709.5 3130t-18294 3064.5t69599.5 -10165.5t69728 -9655.5zM-500310 876376q-9336.5 934.5 -5235.5 2778.5t13578 2716t14474 2702t7946 2633t4105.5 2632.5t-13175 2631.5t-1015 2622
t25483.5 2589.5t8331.5 1538.5t11.5 2582.5t-20660.5 -12273.5t-33844 -13152.5zM-448854 906914q1799 1812.5 -2804.5 2553.5t-4084.5 2542t-4725 2492.5t-6773 1382.5t-7413 1324t-9464 1265t-13688 2418.5t-20984 2389.5t28630.5 -8788.5t41305.5 -7579zM-525552 928004
q-10748.5 564 -14329 2334.5t-7417 2273.5t-11381.5 2272.5t-19189.5 2270.5t-20085.5 982t-20213.5 2239t-20985 2214.5t-22773.5 2211.5t-28405.5 2191t-4473 2190.5t19079 2189.5t8967 2179t266.5 2127.5t14858 766t13834 2126t13706 2125.5t13194 755.5t13066 727.5
t48813 -17193t23469.5 -16983zM-593343 963576q-6525 346.5 -13558 638t5770 582.5t3590 580t-18682 575t-19318 571.5t2826 569t2438 507t-10410 222.5l6 -17152l-169 -219q54032 12779 47507 13125.5zM-640850 950668q-14 0 -59.5 -108.5t-48.5 -108.5t-72 -108t-72 -108
t-70.5 -106.5t-74.5 -106.5t-52 -106t-48 -106t-70 -105.5t-74 -105.5t-51.5 -105t-47.5 -105t740 1279zM-641732 949180q-7 0 -46 -27t-42 -27t-40 -17t-44 -17t-45.5 -35.5t-41.5 -35.5t-39 -16t-39 -16t-30.5 -15.5t-30.5 -15.5t-7.5 -17.5t-7 -17.5t208.5 128.5
t204 128.5zM-642404 948891q-2.5 0 -125 -47.5t-125 -55t-123 -126.5t-127.5 -125.5t-32 -58t-27.5 -58t280 232t280 238.5zM-643206 948388q-2.5 -6.5 -98 -13t-102.5 -14t-26 -111.5t-21.5 -110t-94 -116.5t-94 -116.5t-90.5 -112t-95 -113.5t-24.5 -95.5t-20 -94
t-87 -57.5t-87 -57.5t-42.5 -49t-47 -50.5t-12 -91t-7.5 -89.5t-38 -44.5t-38 -44.5t512.5 690.5t512.5 690zM-644303 946928q-2 -6 -124 -36t-124 -36t-114 -28t-118.5 -29.5t-131 -78t-126.5 -76t-113.5 -110t-118 -112t-130.5 -76.5t-126 -74.5t-102.5 -107t-107 -107
t-130 -100.5t-125.5 -100.5t-101.5 -98.5t-106 -100.5t947 634.5t951.5 636zM-646456 945522q-2 -5.5 -100.5 -84t-100.5 -84t-94.5 -70.5t-99 -70.5t-125.5 -66.5t-121 -68.5t320.5 221t320.5 223zM-647244 944968q-6.5 -5.5 -122 -40t-117.5 -40t-59 -37.5t-63.5 -37
t-121.5 -125t-117 -125t302.5 202.5t298 202zM-647961 944312q-2 -7.5 -52.5 -43.5t-52.5 -41t-40 -120t-40 -122.5t-39 -43t-43.5 -40.5t-114 -119t-109.5 -119t-5 -87.5t-4.5 -90t-122 -34t-127 -31.5t-108 -87t-103 -86.5t-110.5 -114.5t-110.5 -114.5t591 648.5
t590.5 645.5zM-649244 942842q-1.5 -4.5 -12 -83t-17 -83t12 83t17 83zM-649448 942520q-1.5 -4.5 -9.5 -13t-14.5 -12.5t9.5 13t14.5 12.5zM-649636 942379q-1 -4 -122.5 -55.5t-128 -55t-79 -110t-73.5 -139t-78 -160t-77 -131t-96 -74.5t-96 -74.5t-61 -42.5t-61 -42.5
t-91.5 -41.5t-91.5 -41t-30.5 -106.5t-63 -106.5t558.5 590.5t590 589.5zM-651072 941124q0 -3 -33 -36.5t-33 -36.5t-91.5 -3.5t-91.5 -3t-47 -127.5t-53 -127.5t-82 -127t-82 -127t-70 -105t-70 -105t-38 -103t-38 -107.5t-35 -23.5t-34.5 -19t-119.5 -82.5t-119.5 -82.5
t-77.5 -82t-77.5 -82t-141.5 -150.5l-11 1424q-25 -5 -32.5 -76t685 57.5t692.5 125.5zM-652512 940814q-5 -50.5 -78.5 -57.5t-81 -14.5t-28.5 -10t-26 -47.5t-69.5 -47.5t-69.5 -47t-22.5 -47t-22 -17.5t-128.5 -17.5t-128.5 -16.5t-123.5 -20.5t-126 -133.5t451 200
t453 276.5zM-653676 940086q-4.5 -121.5 -76 -128t-76 -133t-48.5 -128.5t-48.5 -122.5t-47.5 -122.5t-47.5 -92.5t172 379t172 348zM-654097 939212q-4 -51.5 -120.5 -53t-120.5 -120t-56.5 -120t-56.5 -118t-19 -118t-19 -73.5t-18 -78.5t-17.5 -100t-129.5 -95
t-129.5 -67t-83.5 -67t-83.5 -53t427 531.5t426.5 531.5zM-655006 938044q-3.5 -50.5 -23.5 -57t-23.5 -96t-22.5 -91t-22.5 -48.5t-16.5 -48.5t-16 -21.5t-130 -21.5t-130 -21t-129 -21t-129 -20t-97 -19.5t-97 -128t418.5 258.5t418 335zM-656001 937196
q-3 -125.5 -62 -126.5t-62 -124.5t-55.5 -124.5t-55.5 -124t-29.5 -124t-29.5 -123t-28.5 -123t-28.5 -118t-27.5 -118t-27.5 -98.5t-24.5 -98.5t-24.5 -92t227.5 714.5t227.5 680zM-656503 935619q-3 -90 -22.5 -91t-22.5 -35.5t-18.5 -35.5t-18.5 -35t-17.5 -35
t-17.5 -33.5t58.5 161.5t58.5 104zM-656653 935290q-3 -29 -15.5 -30t-15 -29.5t-87.5 -29.5t-87.5 -28t-61.5 -27.5t-61.5 -96.5t-15.5 -96.5t-15 -95.5t-121 -95.5t-121 -94.5t-120 -94t-120 -111t-108 -117.5t-108 -63.5t529 490.5t528 518.5zM-657924 934117
q-2 -107 -77 -107t-77 -103.5t-76 -103.5t-76 -16.5t-75 -16.5t-75 -54.5t-74 -54.5t-74 -15.5t-61.5 -22t-61.5 -57.5t-6.5 -57t-6.5 -116t-5.5 -116t-5.5 -112.5t-2.5 -114t-2 -102.5t-129 -101t-129 -90.5t507 691.5t506.5 669zM-659154 932609q-1.5 -51 -107 -57
t-107 -49.5t-106 -49.5t-106 -44t-105 -44t-105 -40.5t-97.5 -40.5t-97.5 -36.5t-96.5 -36.5t-96.5 -28.5t-50 -28t-50 -109.5t-11 -109.5t-10.5 -107.5t-105.5 -107.5t-105.5 -106.5t-48 -106.5t-47.5 -101t-100 -101t-100 -99t-197.5 -104.5l-1 156q1852 1402 1850.5 1351
zM-661145 931269l-1 131l-140 11l-1 105zM-661426 931527l-1 68l-134 11l-1 65l-133 15l-1 74l-132 10l-1 241l-36 10v229l203 10v227l200 10v166l198 10v163zM-661077 932845v221v2473v2472v-5166zM-661077 940482v2464v2463v2462v2458v2305v2156v2152v1992v1935v1871v1812
v1531q185 5 185 121.5t34 119t-219 -25841.5zM-660792 966558q31.5 2.5 31.5 83.5t44 83.5t44 81.5t61 74q-12 -149 -88.5 -151.5t-100 -88t8 -83zM-660854 966578q-64.5 -2.5 -70.5 -74t-38.5 -74t-38.5 -46.5t-35.5 -46.5t-35 -18t-120 -18t-120 -17t-78 -17t-78 -13.5
t-74 -13.5t-74 -12.5t-18.5 -11.5t-18 -113t-78 -111.5t-78 -28t-69 -29.5t512 322.5t511.5 321.5zM-661994 965712q-44.5 0 -49 -102.5t-48 -102.5t49 102.5t48 102.5zM-662179 965474q-35 -1.5 -39 -112t-121 -110.5t39 112t121 110.5zM-662566 965152
q-96.5 -6.5 -100.5 -7t-57 -8t-60 -113.5t-99 -112t-96 -125t-44 -125t-44 -100t-19.5 -100t300.5 345.5t219.5 345zM-663124 964281q-14.5 -6 -18 -75t-130 -75t18 75t130 75zM-663522 963985q-116 -6 -119.5 -71t-84 -71t-84 -42t-50 -43.5t-50 -77t-48 -75t253.5 190
t182 189.5zM-664036 963388q-27 -7.5 -30.5 -62.5t-29 -60.5t-29 -58.5t-28 -58t-28 -77t-24 -77t87.5 198t81 195.5zM-664252 962858q-19.5 -7.5 -23 -18.5t-17 -16t23 18.5t17 16zM-664438 962764q-126.5 -4.5 -133.5 -125t-63.5 -127.5t133.5 125t63.5 127.5z
M-664814 962248q-117 -4.5 -124 -82.5t-58 -82.5t-54 -38t-97.5 -37.5t-97.5 -84.5t-80 -84t275.5 205t235.5 204zM-665466 961632q-58.5 -3.5 -61.5 -87t-56 -87t-56 -81.5t-30 -81.5t-30 -79.5t-28 -79.5t147.5 248t114 248zM-665775 960984q-16 -3.5 -19 -60t-18 -60
t-18 -20.5t-17 -20t-17 -111.5t-16 -111.5t-15.5 -59t-107.5 -59t-112 -51t-25 -50.5t-20.5 -83t-88 -82.5t202 385t271.5 383.5zM-666352 960184q-13.5 -6.5 -15.5 -109.5t-128.5 -104.5t15.5 109.5t128.5 104.5zM-666750 959738q-123.5 -6.5 -125.5 -109t-121.5 -104
t125.5 109t121.5 104zM-667240 959300q-118.5 -1.5 -120.5 -103t-108.5 -103t120.5 103t108.5 103zM-667684 958894q-105.5 -1.5 -107.5 -99.5t-77.5 -99.5t-77.5 -99t-75.5 -98.5t185 198.5t153 198zM-668160 958355q-60 -1 -62 -7.5t-7 -13t-7 -71.5t-3 -65.5t69 79
t10 78.5zM-668244 958004l-1.5 -110.5t-108.5 -110.5t-108.5 -110t-211.5 -110l3 -10496q-193 -208 -194.5 -208t-97 -103t-97 -103t-51.5 -25.5t-51.5 -25.5t-12.5 -102.5t-17.5 -109t-72 -62t-66 -62t-100.5 -61t-100.5 -61t-99.5 -60t644 5933zM-669806 945966
q-62.5 -52.5 -63 -59t-72.5 -54t-72.5 -54t-72 -51t-72 -51t-71.5 -43.5t-71.5 -43.5t-69.5 -43t-75.5 -43t-68.5 -40t354.5 250.5t354 231.5zM-670646 945406q-68.5 -31.5 -69 -38t-68.5 -15.5t-68.5 -16.5t-68 -116t137.5 54.5t136.5 131.5zM-671054 945097
q-65.5 -1 -66 -7t-51.5 -124.5t-51.5 -124.5t-50.5 -120t-50.5 -121.5t-50 -105t168 253t152 349.5zM-671473 944290q-49 -94.5 -49.5 -100.5t-19 -75.5t49.5 100.5t19 75.5zM-671674 943966q-114.5 -67.5 -114.5 -75t-114 -99t114.5 75t114 99zM-672130 943622
q-113.5 -65.5 -113.5 -71.5t-102 -65t-102 -65t-101 -63t-101 -63t-100.5 -62t316.5 199.5t303.5 190zM-672950 943112q-99.5 -52.5 -99.5 -58.5t-98.5 -54.5t99.5 58.5t98.5 54.5zM-673341 942854q-94 -82.5 -94 -88.5t-93 -42.5t-93 -42t-92 -126.5t-92 -126.5t-88 -112
t279 257t273 281zM-674068 942108q-87.5 -90 -87.5 -95.5t-87 -68.5t-87 -68.5t-85 -64t-85 -64t-84.5 -63.5t259.5 228t256.5 196zM-674753 941492q-84 -124 -84 -129t-35.5 -128.5t-35.5 -128.5t-35 -100.5t-35 -100.5t-34.5 -77.5t-34.5 -77.5t-32.5 -67.5t189 435.5
t137.5 374zM-675144 940586q-32 -24.5 -32 -29.5t-31 -26.5t32 29.5t31 26.5zM-675292 940478q-54 -20.5 -54 -25.5t-30 -21.5t54 25.5t30 21.5zM-675458 940390q-51.5 -8.5 -51.5 -13.5t-30.5 -16t-30.5 -16t-30 -12t82 29.5t60.5 28zM-675678 940197
q-47 -120 -53.5 -127.5t-9.5 -14t53.5 127.5t9.5 14zM-675856 939934q-96.5 -105.5 -102.5 -110t-95.5 -109t102.5 110t95.5 109zM-676254 939524q-96 -77.5 -102 -84.5t-92.5 -131.5t-94 -129t-103 -78t-101.5 -78t-91.5 -67.5t-91.5 -67.5t-85.5 -54.5t-85.5 -57
t-64.5 -123.5t-73.5 -125.5l-20212 -68q21293 1142 21197 1064.5zM-697568 938425q-6 -26 -24.5 -30.5t-24.5 -20.5t24.5 30.5t24.5 20.5zM-697632 938244q-7.5 -100 -79 -104t-77 -94t79 104t77 94zM-698014 937867q-5.5 -81 -85 -85t-87 -53.5t85 85t87 53.5z
M-698310 937622q-5.5 -48.5 -60.5 -52.5t-62.5 -51.5t60.5 52.5t62.5 51.5zM-698552 937426q-5.5 -37 -54.5 -41t-56.5 -30.5t-57 -30.5t-55 -20.5t-45.5 -20.5t-45.5 -17.5t157 92t157 68.5zM-698935 937150q-5 -87.5 -116 -91t-116 -124t-29 -124t-29 -87.5t-21 -87.5
t-20.5 -82t166 302.5t165.5 293.5zM-699408 936384q-4.5 -78 -26 -110.5t-26 -160t-10.5 -131t-10 -80t-114 -80t-114 -77t150.5 321.5t150 317zM-699885 935593q-4 -72 -61.5 -75.5t-64.5 -60.5t61.5 75.5t64.5 60.5zM-700214 935360q-4 -32.5 -55 -36t-54.5 -21t55 36
t54.5 21zM-700566 935271q-3.5 -8 -120 -11.5t-120 -10.5t120 11.5t120 10.5zM-700928 935230q-3.5 -5.5 -29.5 -9t-29 -7.5t-82.5 -7.5t-86.5 -6.5t-49 -6t-45 -112t-62.5 -112t-62.5 -84.5t223.5 134.5t223 210.5zM-701490 934740q-3 -57.5 -54.5 -60.5t-54.5 -59.5
t54.5 60.5t54.5 59.5zM-701626 934508q-2.5 -48.5 -128.5 -51.5t-128.5 -45t-10 -45t-10 -9t-9 -13t-8.5 -34t-83.5 -29.5t-114 -126.5t-144.5 -126.5t-114 -95t375.5 265.5t375 309.5zM-702546 933752q-6.5 -83.5 -84 -86t-78.5 -85t-117.5 -89.5t-117.5 -24t201.5 175.5
t196 109zM-703178 933364q-1 -81.5 -107 -84t-107 -78.5t107 84t107 78.5zM-703602 933046q-1 -75 -104 -77.5t-104 -72t-103 -71.5t-108.5 -109.5t207 149t212.5 181.5zM-704181 932557q-1 -47 -102 -49t-102 -48t-101.5 -52.5t-107 -115.5t-80 -111t-74.5 -24t283.5 212.5
t283.5 187.5zM-704917 932116q-1 -15 -84 -17t-84 -15t-83.5 -15t-89 -14t-77.5 -14t-72 -9t245 46t245 38zM-705538 931904q-1 -108 -65 -108t-65 -2t-64.5 -8t-64.5 -7.5t-63.5 -103.5t-63.5 -108.5t-63 -106.5t-63 -101.5t256 326t256 219.5zM-706175 931166
q-1 -1.5 -49.5 -89t-49.5 -89t49.5 89t49.5 89zM-706369 930810q-1 -6.5 -46.5 -104.5t-46 -99.5t46.5 104.5t46 99.5zM-706678 930438q-0.5 -1.5 -107.5 -78t-107.5 -78t-107 -57.5t-107 -57.5t214.5 135.5t214.5 135.5zM-707320 930072q-0.5 -6.5 -52.5 -95t-52 -90
t-39 -38.5t-39.5 -38.5t-52 -22.5t-58 -27.5t-9 -87.5t-8.5 -82.5t152.5 243.5t158 238.5zM-707820 929580q-6 -6.5 -92 -81.5t-92 -76t92 81.5t92 76zM-708186 929220q-6 -6.5 -85 -81t-85 -75.5t85 81t85 75.5zM-708484 928870q-6 -1 -61 -72.5t-61 -72.5t-24 -71.5
t-24 -77t-6 -77t-5.5 -71.5t91 221t90.5 221zM-708890 928307q-5.5 -1 -84.5 -60t-84.5 -60t84.5 60t84.5 60zM-709180 928074q-5.5 -1 -54 -56t-54 -56t54 56t54 56zM-709378 927851q-5.5 -1 -34 -55t-33.5 -60.5t34 55t33.5 60.5zM-709676 927588q-5 -1 -28.5 -54.5
t-28.5 -54.5t-20.5 -54t-20 -54t-70.5 -51t-70.5 -51t119.5 159.5t119 159.5zM-709966 927168q-4.5 -1 -10 -50t-9.5 -50t10 50t9.5 50zM-710212 927050q-4 -1 -87.5 -8t-87.5 -7.5t87.5 8t87.5 7.5zM-710509 926794q-4 -0.5 -60.5 -113.5t-60.5 -113.5t-54.5 -84.5
t-54.5 -84.5t-43.5 -48.5t-43 -48.5t-120.5 -11.5t-120.5 -11.5t-119 -6.5t-119 -6t398 264.5t397.5 264zM-711426 926122q-3.5 0 -49.5 -71t-49.5 -71t-47.5 -70.5t-51 -70.5t-73 -54.5t-69.5 -54.5t-31 -54t-31 -54t201 250t201 250zM-711888 925462q-3.5 0 -28.5 -53.5
t-28 -53.5t-119.5 -55t-123.5 -55t-54 -102.5t-50 -102.5t202 211t201.5 211zM-712458 924933q-3 0 -61 -47t-61 -53.5t-57 -61.5t-57 -61.5t13700 -6.5t13662 -54t-44 -60.5t-55 -59.5t-13538 175.5t-13489 228.5zM-685500 924411q-10.5 -52 -17.5 -58.5t-34.5 -53.5
t-30 -53.5t-129 -50.5t47.5 112t163.5 104zM-685946 924018q-104.5 -117.5 -107 -124t-9.5 -44t107 124t9.5 44zM-686081 923764q-6 -36 -8 -42.5t-128 -39.5t8 42.5t128 39.5zM-686470 923605q-123 -31 -125 -37.5t-83 -15t-83 -14.5t-82 -119.5t-81 -121t-116.5 -97.5
t289 173t281.5 232zM-687273 923038q-115 -59.5 -116 -67t-106.5 -97t-106.5 -95.5t-104.5 -63.5t-104.5 -65t-103.5 -96.5t-103.5 -95t-102.5 -62.5t430.5 322.5t417 319.5zM-688324 922276q-100 -52 -101 -58t-83 -54t-83 -55.5t-64 -83t184 113.5t147 137z
M-688781 921818q-61 -121.5 -62 -127t-49 -111.5t62 127t49 111.5zM-688988 921393q-46 -65 -47 -70.5t-46 -96t47 70.5t46 96zM-689232 921062q-105.5 -59 -106 -64.5t-97.5 -69t106 64.5t97.5 69zM-689584 920796q-50.5 -57.5 -51 -62.5t-49 -128t51 62.5t49 128z
M-689846 920438q-113 -30.5 -113 -35.5t-112.5 -101t113 35.5t112.5 101zM-690296 920180q-112 -10.5 -112 -15.5t-111.5 -27t112 15.5t111.5 27zM-690729 920090q-98 -10 -98 -15t-97.5 -26t98 15t97.5 26zM-691119 920004q-97 -9 -97 -14t-95 -22t-95 -22t-94.5 -15.5
t192 36t189.5 37.5zM-691682 919806q-86.5 -105 -86.5 -109.5t-86 -108.5t86.5 109.5t86 108.5zM-692026 919402q-85.5 -73 -85.5 -80t-83.5 -128.5t85.5 80t83.5 128.5zM-692308 919000q-29.5 -63.5 -29.5 -70.5t-29 -125.5t29.5 70.5t29 125.5zM-692424 918626
q-28.5 -50.5 -28.5 -55t-28 -30t28.5 55t28 30zM-692552 918490q-44 -15.5 -44 -22.5t-27.5 -116.5t-27.5 -114l-0.5 -5.5t-1 -5t-52 -93.5t-51.5 -96.5t-27.5 -102.5t124 238t107.5 318zM-692858 917781q-47.5 -50 -54 -57t-9 -102t-8.5 -99t-95 -53t-95 -56t-92 -101.5
t157.5 212t196 256.5zM-693225 917162q85 -48 91 -52t85 -40.5t-91 52t-85 40.5zM-692900 916999q58 -26 64 -30t61 -20t61 -20t24 -17t24 -16.5t6 -123.5t-149 66.5t-91 160.5zM-692542 916560q107 -77.5 112.5 -81t84.5 -76t-112.5 81t-84.5 76zM-692277 916331h-109h-11
h-97h217zM-692505 916331h-79h-11q0 -7 90 0zM-692595 916253v-69.5v-66t0 69.5t0 66zM-692595 916086q0 -7 -57 116q-10 -7 23.5 -58t33.5 -58zM-692888 916171q-5 -7 -28.5 -68t-28.5 -64.5t-20.5 -11t-20 -11t-70.5 -8.5t-70.5 -12t119.5 87.5t119 87.5zM-693178 915866
q-4.5 -3.5 -10 -8t-9.5 -11.5t10 8t9.5 11.5zM-693424 915716q-4 -3.5 -87.5 -7t-87.5 -10.5t-61 -55t-61 -51t148.5 62t148.5 61.5zM-693842 915423q-4 -3 -54.5 -60t-54.5 -60t54.5 60t54.5 60zM-694038 915214q-3.5 -3 -120.5 -8.5t-120.5 -8t120.5 8.5t120.5 8z
M-694516 914941q-3.5 -7 -61 -31.5t-61 -27t-49.5 -119.5t-49.5 -124t-47.5 -30.5t-51 -26t158 181.5t161.5 177zM-694978 914348q-3.5 -2.5 -31 -94.5t-31 -94.5t-30 -85.5t-30 -90t-28.5 -22t-28 -17.5t89.5 202t89 202zM-695400 913781q-7 -7 -54 -21.5t-50 -17t54 21.5
t50 17zM-695670 913586q-3 -2.5 -61 -71.5t-61 -76t61 71.5t61 76zM-695906 913426q-3 -2.5 -56.5 -14t-60.5 -18.5t56.5 14t60.5 18.5zM-696115 913382q-3 -2.5 -55 -13t-55 -12.5t55 13t55 12.5zM-696256 913139q-7 -2 -34.5 -23.5t-30 -23.5t34.5 23.5t30 23.5z
M-696578 913059q-2.5 -2 -107 -14.5t-107 -14.5t107 14.5t107 14.5zM-696812 913011q-2.5 -2 -8.5 -7.5t-8 -7t8.5 7.5t8 7zM-697084 912820q-2 -1.5 -125 -86t-125 -86t125 86t125 86zM-697500 912480q-2 -1.5 -82 -77.5t-81 -77.5t82 77.5t81 77.5zM-697896 912210
q-1 -1.5 -116 -44t-116 -44t116 44t116 44zM-698341 912046q-1 -1.5 -104.5 -23t-104.5 -22.5t104.5 23t104.5 22.5zM-698757 911806q-1 -1 -102.5 -96.5t-102.5 -96.5t102.5 96.5t102.5 96.5zM-699164 911469q-1 -1 -83 -59.5t-83 -59.5t83 59.5t83 59.5zM-699458 911232
q-1 -1 -62 -1t-62 -57.5t-1 -59.5v-114v-2v-113q126 348 125 347zM-699583 910883v-112v-2v-105q-96 -2 -94 -2h92h2v221zM-699493 910662h1h211h1h194h1h101h1h-510zM-698886 910662v0h226v0h-226zM-706596 910558h-12416t8064 52t4352 -52zM-746404 910558h-15744h-16384
t15744 0t16384 0zM-814756 910558h-21376h-21632t21376 0t21632 0zM-883876 910558h14976h14720t-14976 0t-14720 0zM-832592 910558h-44h-27.5h-27.5h-27.5h-27.5l128 -1t99 0t-73 1zM-810218 910452q0 -1 128 -52t7168 -52t-128 52t-7168 52zM-786012 910245
q9613.5 -1 19301.5 -8.5t11904 -8t13512.5 -121.5t11168.5 -121.5t-128 -121v-127t-32686 251t-23072.5 256.5zM-715406 909596q4864 -0.5 4864 -231.5v-1q-9728 233 -4864 232.5zM-710460 909136l12 -13l243 -126l12 -1l156 -21247l12 -22271l146 2560l12 -28672z
M-709725 808646l12 28175q-29684 236 -29750 229.5t-72 -47t-20 -48t-20 -124.5t-10 -123.5t29860 -28061.5zM-736523 836630h3064l2966 -12q0 -6644 -6030 12zM-730493 832422v-3317.5v-12662t0 3317.5t0 12662zM-729012 787534q1481 2308.5 2955 2239t1479.5 -65
t-2955 -2239t-1479.5 65zM-724492 789842q5.5 4.5 24 58t23.5 58t-24 -58t-23.5 -58zM-724180 790046q5 4.5 62.5 42.5t62.5 42.5t59 34.5t59 34.5t58 16.5t58 16.5t-179.5 -93.5t-179.5 -93.5zM-723821 790259h-218h-9h-202h-9l-140 2279q2309 -8 1448 -1143.5
t-870 -1135.5zM-722076 792530h197h8h170h-375zM-721687 792530q-176 0 849.5 -114.5t2007 -114.5t-2856.5 229zM-715194 775913q874.5 -16380 1687 -13685t1561.5 -7285t-1687 13685t-1561.5 7285zM-709014 749768q713 -124.5 718 -124.5h112q-1543 249 -830 124.5z
M-708179 749643h58l5 -3321l43 27655zM-708069 801120l188 26630l4 -16378l187 20998l4 19462l157 16134l4 15877l154 -7931zM-707367 855181l78 -25595l4 32517l54 31749l-13 9732l-212 -20988q1004 16 4493 13l769 -177l3482 -3zM-697971 882256l733 -3l731 -156l576 -3
l575 -115l573 -3l541 -77l540 -3l539 -76l538 -3l537 -54l536 -1l535 -243l534 -1l524 -230l523 -1l522 -228l521 -1l520 -205l519 -1zM-686836 880680l517 -1l459 -170h458zM-684945 880358h411l410 -147h409zM-680264 880066h386l385 -140h384zM-678726 879787h382
l381 -117h380l379 -113h314l313 -111h312l3445 -106h289zM-672243 879276h287l286 -105h285zM-671101 879067h283l282 -110h281l280 -105h3441l166 -94l165 -13l164 -82l163 -13l162 -80l161 -13l160 -78l159 -13zM-665077 878396l156 -13l155 -56l153 -15zM-664561 878080
l50 -13l48 -55l45 -15zM-664374 877766l43 -13l41 -53l120 -15l39 -230l3919 -13zM-657396 877391l2667 -15l2523 -229l2507 -13zM-647482 877085l2050 -15l3745 -226l1964 -13zM-635979 876789l1962 -15l1626 -223l1213 -13zM-627608 876502l1179 -13l1018 -11l1003 -13
l768 -9l740 -12l732 -247l574 -15zM-621061 875971l516 -12l3460 -236l460 -12zM-616217 875482l378 -15l311 -203l279 -12zM-615097 875043l40 -15l31 -201l38 -12zM-614952 874610l39 -15l38 -200l94 -12zM-611408 874180l3349 -15l3316 -199l3229 -12zM-597487 873753
l3223 -12l3220 -174l3219 -12zM-583800 873447l3217 -15l3215 -173l3213 -12l3208 -91l3205 -15l3172 -170l3166 -12l3101 -83l3081 -15zM-552155 872692l3065 -12l3050 -81l3964 -15zM-539097 872421l2967 -12l2963 -63l2949 -15zM-526269 872169l2920 -12l3944 -57
l2906 -12zM-513610 872056l2854 -12l3927 -10l2849 -11zM-501162 871771l3918 -11l2812 -232l3906 -15zM-487758 871377l3900 -11l2746 -197l3896 -15zM-474482 871019l3888 -11l2701 -195l3887 -11zM-461307 870614l3880 -15l2683 -132l2674 -11zM-449400 870271l2669 -15
l3867 -129l2620 -11zM-437631 869937l2586 -15l2565 -127l2559 -11zM-427366 869611l2537 -15l2529 -126l2527 -11zM-417305 869288l2445 -15l3831 -120l2441 -11l3815 -141l2362 -11l2310 -62l2200 -15zM-395707 868819l2178 -11l2174 -56l3769 -15zM-385454 868644
l3742 -11l1951 -52l3741 -15zM-374073 868476l1782 -11l1774 -46l1750 -15l-14 21259q-62 0 1494 -18l1555 -11zM-362102 889621l1508 -15l1507 -81l1499 -11l1470 -10l16895 -11l1427 -5l1393 -15zM-335012 889400l1339 -10l1337 -232l1335 -10l1325 -179l1183 -10z
M-327388 888782l1104 -10l1080 -171l1020 -10zM-323274 888434l898 -10l861 -63l651 -10l649 -55l645 -15l644 -23l633 -10l553 -52l551 -10zM-316642 888156l546 -10l543 -28l158 -10l154 -17l46 -10zM-315153 888068l119 -9l36 -174l35 -9zM-314928 887724l36 -9l83 -138
l4068 -14zM-307367 887318l4059 -9l3350 -131l3222 -14zM-293520 886920l4015 -9l3173 -129l4014 -9zM-279151 886649l3988 -14l3051 -242l2978 -9zM-266215 886261l2905 -14l2888 -240l2848 -9l2817 -111l2811 -14zM-249179 885634l2745 -9l2733 -109l2700 -9z
M-238303 885401l2682 -9l2673 -77l2619 -9l3864 -75l2614 -14l2587 -234l2585 -9zM-216121 884900l2554 -14l2536 -232l2528 -9zM-205977 884579l2469 -9l2467 -59l2440 -14zM-196240 884269l2199 -9l2193 -39l2177 -9zM-187498 884174l2131 -9l1961 -23l1950 -9z
M-179510 884112l1773 -9l1554 -7l1553 -14zM-173124 883864l1394 -9h1390l1336 -14zM-167670 883629l1324 -8l1322 -232l1182 -14zM-162662 883164l3551 -8l1106 -230l1103 -14zM-155823 882706l1077 -8l1019 -203l1017 -8zM-151799 882360l909 -14l806 -187l757 -8z
M-148677 882061l648 -8l647 -20l646 -8zM-146104 882007l552 -7l550 -242l549 -7zM-143905 881644l542 -7l53 -105l51 -7zM-143210 881422l47 -14l37 -146l86 -7zM-143005 881158l32 -14l32 -144l35 -7zM-142824 880902l4078 -14l3431 -103l3347 -6zM-128627 880584l4048 -6
l3293 -193l3284 -6zM-113976 880298l3221 -6l4024 -75l3209 -14zM-100364 880130l4007 -6l3149 -64l3140 -6l3132 -61l3116 -5l3981 -224l3025 -5zM-72836 879585l3019 -5l3006 -164l3002 -14l2946 -32l2938 -5l3937 -157l2885 -5zM-48223 879077l2799 -5l2725 -125l3893 -5
zM-36082 878819l2524 -5l2452 -122l2321 -14zM-26630 878671l2151 -5l2005 -47l1934 -14zM-18670 878599l1868 -5l1743 -39l1605 -13zM-11851 878299l1537 -4l1530 -176l1529 -4l1485 -175l1481 -13l3617 -227l1440 -4zM2196 877601l1424 -13l1422 -226l1381 -4z
M10022 877265l1370 -4l1310 -13l1308 -3zM13997 859840q-508 0 -751 -20477l13 -172zM13512 839188l4 -171l241 -13q1205 -16381 1768.5 -29051.5t1066 -28285t1003 -1021t503.5 43524.5l144 27907l13 22787l187 19203l3 13571zM18576 908153l3 -10495l103 -3071l3 -4351
l101 -6911l13 -12799l179 -21759l3 24321zM19075 897153l-3 23809q10243 23553 15236.5 26241.5t9730.5 5249t4482 4993t-380.5 4737t-29065.5 -65029.5zM48013 967303v-27136q-247 -27392 -245 -55040l246 -28160l2 -30208q-244 29696 -245 44416t242 96128zM47770 929415
q0 14336 0 7808t234 -6528q-234 -15616 -234 -1280zM48099.5 957332q97.5 0 96.5 10630.5l-1 10630.5q-193 -21261 -95.5 -21261zM48013 998830l-1 7328.5t-181 7583.5zM47829 1.01376e+06l-69 54q-2 13 -36 39t105 -93zM47753 1.0267e+06q-2 12301 14848 24346
q-14913 -37159 -14848 -24346zM62827 1.06604e+06q283 4486.5 731 7571.5l1 10q-1015 -12068 -732 -7581.5zM63749 1.07364e+06q1 248 95 254t94 241zM63938 1.07414e+06v208v12v204v12v202v12v200v-850zM63938 1.075e+06v175v12v163v-350zM63938 1.07537e+06
q222 27916 1943 39442l1721 11526zM67602 1.12633e+06v-82l-10752 3152h-12544q33 -12 133 -74q31 3128 31 3122t23132 -6118zM31414 1.1409e+06l-32 -15349q0 -194 15.5 -201.5t16.5 15550.5zM31454 1.12521e+06q41 -5.5 47.5 -100t57.5 -100t-47.5 100t-57.5 100z
M31633 1.12481e+06q10 -5.5 16.5 -94.5t13.5 -94.5t-16.5 94.5t-13.5 94.5zM31792 1.12444e+06q110 -5.5 116 -90.5t112.5 -90.5t-116 90.5t-112.5 90.5zM32237 1.12411e+06q95 -7.5 101 -55t-22254 -47.5q22058 110 22153 102.5zM36208 1.124e+06h22284h19468h17676h-59428
zM111264 1.124e+06h11531h-12277h-13301h14047zM83404 1.124e+06h-16629h-17653h-25589h59871zM-8452 1.124e+06v11v63v11v-85zM-8452 1.12414e+06v11v51v11v-73zM-8452 1.12426e+06v11v17v15v-43zM-8452 1.12439e+06v11v14l-116 11zM-5629 1.12442e+06l16895 -15l2921 -80
l2884 -11zM19952 1.1243e+06l3914 -10l2801 -231l2789 -10zM32243 1.12384e+06l2726 -10l2723 -196l2525 -15zM42690 1.12356e+06l2472 -10l2471 -178l2464 -15zM52560 1.1233e+06l2462 -10l2458 -158l3834 -15zM63767 1.12308e+06l3807 -10l2322 -105l2305 -15z
M74357 1.12292e+06l2152 -10l2006 -82l1992 -15zM82442 1.12278e+06l1871 -10l1869 -64l-7 -15zM86155 1.12267e+06l-14 -10l-104 -56l-6 -10zM85823 1.12254e+06l-14 -10l-76 -29l-6 -15l-70 -8l-14 -9zM85568 1.12228e+06l-6 -14l-68 -254l-14 -9zM85424 1.12182e+06
l-6 -9l-3 -153l-6 -9l-2 -130l-5 -9zM85151 1.12139e+06l-5 -9l-233 -122l-5 -9zM84679 1.12114e+06l-14 -9l-43 -108l-5 -9l-206 -73l-14 -9zM84356 1.12086e+06l-5 -9l-202 -37l-5 -9l-162 -8l-5 -8zM83819 1.12054e+06l-5 -8l-149 -202l-5 -8l-145 -89l-5 -8z
M83367 1.12015e+06l-14 -8l-18 -69l-5 -8l-103 -47l-5 -8zM83120 1.11996e+06l-5 -8l-88 -41l-5 -8l-31 -37l-5 -7l-29 -216l-5 -7l-22 -186l-5 -7zM82905 1.11935e+06l-4 -7l-242 -90l-4 -6l-240 -194l-13 -14zM82157 1.11898e+06l-4 -5l-182 -240l-13 -5z
M81730 1.11865e+06l-4 -5l-104 -46l-13 -4zM81396 1.11843e+06l-3 -4l-238 -52l-13 -3l-211 -168l-3 -3zM80694 1.11807e+06l-3 -13l-223 -183l-3 -3l-221 -110l-3 -3zM80047 1.11767e+06l-13 -2l-188 -227l-3 -2zM79698 1.11722e+06l-13 -1l-182 -245h-3l-104 -106l-13 -1
l-181 -207h-3zM79097 1.11665e+06h-13l-171 -104l-3 -1zM78869 1.11634e+06h-13l-160 -95l-2 -12zM78439 1.11598e+06l-2 -15l-253 -161l-13 -12zM78012 1.11573e+06l-2 -12l-252 -52l-13 -12zM77587 1.11564e+06l-2 -11l-248 -8l-2 -10zM77100 1.11546e+06l-2 -10
l-196 -136l-2 -10zM76717 1.11518e+06l-2 -10l-181 -94l-2 -10zM76461 1.11505e+06l-2 -10l-70 -3l-2 -9zM76320 1.11478e+06l-2 -9l-66 -243l-2 -9zM76190 1.11428e+06l-2 -9l-59 -231l-2 -9zM76071 1.11381e+06l-2 -9l-55 -205l-1 -14zM75822 1.11334e+06l-1 -9l-189 -85
v-9zM75413 1.11322e+06v-9l-218 -9v-8l-217 -253v-8zM74762 1.11268e+06v-8l-213 -239v-8l-212 -235v-8zM74126 1.11196e+06v-8l-210 -164v-8l-209 -150v-8l-54 -136v-8zM73619 1.11136e+06v-8l-134 -122v-8zM73453 1.11114e+06l-13 -8l-1 -72l-15 -8zM73212 1.11098e+06
l-12 -8l-238 -70l-12 -8zM72762 1.11084e+06l-12 -8l-168 -39l-12 -7zM72432 1.11054e+06l-12 -7l-134 -249l-12 -7zM72144 1.11007e+06l-15 -7l-176 -181l-12 -7zM71838 1.10971e+06l-12 -7l-72 -140l-15 -7zM71600 1.10942e+06l-11 -7l-205 -134l-15 -7z
M71246 1.10914e+06l-11 -7l-157 -102l-15 -7zM70953 1.10893e+06l-11 -7l-106 -74l-10 -7l-240 -72l-15 -7zM70499 1.1087e+06l-10 -7l-230 -28l-15 -14zM70173 1.10853e+06l-10 -7l-228 -13l-10 -6zM69781 1.10828e+06l-10 -6l-124 -204l-15 -6zM69610 1.10789e+06l-10 -6
l12809 -140l-3831 -14zM55547 1.10765e+06l-25330 -6l-1015 -125l-25591 -6zM20771 1.10741e+06l-24313 -6l-14585 -88l-22777 -14zM-66497 1.10723e+06l-26617 -6l-28153 -66l28935 -6zM-83622 1.10711e+06l-9978 -6l28678 -35l24581 -6zM-64656 1.10703e+06l-24827 -5
l22788 -237l5901 -5zM-73591 1.10658e+06l-8179 -5l-13053 -173l-8701 -5zM-117089 1.10626e+06l-15101 -5l-15357 -128q-15614 -5 30458 133zM-191184 1.10602e+06q1670.5 -2.5 -14457 -46t-24191.5 -50.5t14457 46t24191.5 50.5zM-251465 1.1059e+06q-4608 -2.5 -9856 -45
t-11392 -45t-12544 -42t1792 -42t22400 87t9600 87zM-274633 1.10564e+06q13696 -2.5 17792 -35.5t-2432 -35.5t-17792 35.5t2432 35.5zM-227510 1.1055e+06q14214.5 -2.5 28173 -29t27661 -29t-28173 29t-27661 29zM-118914 1.10539e+06q12166.5 -2 23565 -116.5
t20877 -116.5t-23565 116.5t-20877 116.5zM-37709.5 1.10492e+06q8582.5 -6.5 16653 -127t10382 -122.5t-16653 127t-10382 122.5zM-18072 1.10452e+06q262 -2 -2164 -73t-6002.5 -73t2164 73t6002.5 73zM-53989 1.10422e+06q-8570 -6.5 -23540 -125t-30450.5 -120.5
t-24818.5 -70.5t-25332 -75t48358.5 195.5t55782.5 195.5zM-129306 1.10359e+06q14598 -2 28940 -69.5t27788 -69.5t-28940 69.5t-27788 69.5zM-45927 1.10333e+06q-11642 -1.5 -2292.5 -104.5t7563 -104.5t2292.5 104.5t-7563 104.5zM-63162.5 1.10298e+06
q-9722.5 -1.5 6411 -55.5t31115 -55.5t-6411 55.5t-31115 55.5zM18032 1.10276e+06q-1019 -1.5 -2166 -46.5t-9462 -46.5t2166 46.5t9462 46.5zM-14312 1.1026e+06q16005 -1.5 22282 -30.5t11786 -35.5t-22282 30.5t-11786 35.5zM40002.5 1.10237e+06
q4231.5 -1.5 6412.5 -8.5t5002 -13.5t-6412.5 8.5t-5002 13.5zM55790.5 1.10217e+06q-2040.5 -1.5 -372 -7.5t-4087 -7t372 7.5t4087 7zM20632 1.1019e+06q-12921 -1 -13812.5 -113t-14839 -113t13812.5 113t14839 113zM23105 1.10146e+06q12807 -1 9867.5 -110t5769 -110
t-9867.5 110t-5769 110zM64874 1.10102e+06q4103 -1 -3061 -109t-16888 -109t3061 109t16888 109zM23821 1.10063e+06q12676 -0.5 25096 -105t24584 -105t21640 -94t16264 -94t-46736 199t-40848 199zM130112 1.10009e+06q3463 -0.5 -6901.5 -58.5t-12252 -58.5t6901.5 58.5
t12252 58.5zM97561.5 1.09986e+06q-11260.5 -0.5 -23925.5 -8t-25461.5 -8t-25977 -7.5t-27129 -7t49902.5 15.5t52590.5 15zM-32949.5 1.09959e+06q14595.5 0 22919 -60t12807 -60t6535 -5t3847 -12.5t-29454 65t-16654 72.5zM18804.5 1.09922e+06q1027.5 -6.5 1798.5 -6.5
t-4090 -6t-16762 -87t2822 -87t14963.5 93.5t1268 93zM58649 1.09897e+06q12419 -7.5 23174 -87.5t12298 -86t-23174 87.5t-12298 86zM108472 1.09873e+06q-1021.5 -6 -10107 -14t-20475 -13.5t10107 14t20475 13.5zM47572.5 1.09868e+06q4354.5 -5 -7547 -112.5
t-25211 -112.5t7547 112.5t25211 112.5zM-40600 1.09825e+06q-14974 -7.5 -20220 -30.5t6788 -28t20220 30.5t-6788 28zM-23295 1.09804e+06q-4862 -7.5 772 -29.5t9476 -27t-772 29.5t-9476 27zM529 1.09784e+06q3074 -5 4872.5 -57t-3319.5 -57t-3580.5 -45.5t-5112 -45.5
t-13816 -6t-15741 -5.5t12524 108.5t24172.5 108zM-76476.5 1.09737e+06q-11001.5 -4.5 -18680 -125.5t-19197 -125.5t18680 125.5t19197 125.5zM-137900 1.09688e+06q14337.5 -4.5 25352 -119.5t904 -119.5t-25352 119.5t-904 119.5zM-97424.5 1.0964e+06
q5382.5 -4.5 -6648 -101.5t-11640 -101.5t6648 101.5t11640 101.5zM-150386 1.09608e+06q-7929.5 -32.5 -21624.5 -160t-21886 -131.5t21624.5 160t21886 131.5zM-245726 1.09556e+06q-14713.5 -4 -29432.5 -85.5t514 -85.5t29432.5 85.5t-514 85.5zM-214993 1.09523e+06
q14209 -4 28290 -71.5t28034 -71.5t-28290 71.5t-28034 71.5zM-131902 1.09495e+06q-14847 -4 -1150 -64.5t27266 -64.5t1150 64.5t-27266 64.5zM-53942 1.09474e+06q12673 -4 25218 -38t14594 -38t-25218 38t-14594 38zM-10543.5 1.09461e+06q-2047.5 -4 -5887 -26
t-15103 -26t5887 26t15103 26zM-15403.5 1.09451e+06q2816.5 -4 4352.5 -22t-12928 -21.5t-4352.5 22t12928 21.5zM-82347 1.09425e+06q-14720 -3.5 -768 -96t27776 -99.5t768 96t-27776 99.5zM-52388.5 1.09388e+06q13702.5 -3.5 27789 -86.5t27917 -90t-27789 86.5
t-27917 90zM57615.5 1.09354e+06q13318.5 -3.5 25357 -74t23310 -77.5t8590 -83t6925 -79.5t18829 -72t17677 -75.5t-52776 229t-47912 232.5zM184825 1.09292e+06q2182 -3.5 -1522.5 -71t-13426.5 -71t5517.5 -67.5t5389.5 -67.5t4877.5 -53.5t4749.5 -53.5t-8872.5 192
t3287.5 192zM222690 1.09245e+06q13318 -7 25613.5 -71t-1139 -67.5t-25613.5 71t1139 67.5zM224788 1.09228e+06q-5624.5 -3.5 -21747 -9.5t-25715 -9t21747 9.5t25715 9zM214214 1.09205e+06q16261.5 -3 30986.5 -46.5t13452.5 -46.5t-30986.5 46.5t-13452.5 46.5z
M264822 1.09188e+06q-8184.5 -2.5 -5491.5 -122t8332.5 -126.5t5491.5 122t-8332.5 126.5zM283816 1.09158e+06q5383.5 -2.5 7692.5 -106.5t6666 -106.5t-7692.5 106.5t-6666 106.5zM302034 1.09119e+06q-5883.5 -2.5 -12023 -44.5t-20212.5 -44.5t12023 44.5t20212.5 44.5z
M268669 1.09102e+06q16263 -2.5 13835.5 -28.5t10505 -28.5t-13835.5 28.5t-10505 28.5zM322982 1.0909e+06q3975 -2 -756.5 -85.5t-4471.5 -85.5t756.5 85.5t4471.5 85.5zM290000 1.09068e+06q-8316 -1.5 4491 -104t4363 -104t-4491 104t-4363 104zM306940 1.0903e+06
q-8572 -1.5 3720 -67.5t21640 -67.5t-3720 67.5t-21640 67.5zM359068 1.09006e+06q4100 -1.5 7431.5 -45t1290.5 -45t-7431.5 45t-1290.5 45zM325696 1.08991e+06q-14204.5 -1 -6005.5 -114t24202.5 -119.5t6005.5 114t-24202.5 119.5zM381034 1.08951e+06
q15747.5 -1 17930.5 -113.5t17802.5 -113.5t-17930.5 113.5t-17802.5 113.5zM437520 1.08907e+06q1287 -0.5 16650.5 -104.5t16522.5 -104.5t-16650.5 104.5t-16522.5 104.5zM503226 1.08875e+06q903 0 13194 -38.5t518 -39t-13194 38.5t-518 39zM544982 1.08855e+06
q10627 -0.5 12037.5 -20.5t265.5 -20t-12037.5 20.5t-265.5 20zM565880 1.0885e+06q-2809 -0.5 3209.5 -57.5t2693 -57t-3209.5 57.5t-2693 57zM538517 1.08829e+06q-11513 -6 -7670.5 -97t-9334.5 -97t7670.5 97t9334.5 97zM502326 1.08804e+06q-13437.5 -6 -28534.5 -15
t-14710.5 -15t28534.5 15t14710.5 15zM465628 1.088e+06q258.5 -6 2948.5 -7t-2684 -6.5t-2948.5 7t2684 6.5zM475245 1.08786e+06q3714 -5.5 6916 -55t5124 -55t3331.5 -51t-9085 -50.5t-10247.5 106t3961 105.5zM437122 1.08745e+06q-11646.5 -5 -24957 -99.5t899 -102
t24957 99.5t-899 102zM458382 1.08718e+06q9345.5 -5 14850.5 -79.5t-2558 -79.5t-16382 -55t-22910 -55t1531.5 134.5t25468 134.5zM461594 1.08681e+06q14849 -7.5 29570 -25.5t29314 -23t-29570 25.5t-29314 23zM578338 1.08665e+06q14337 -5 27778 -10.5t26754 -10
t-27778 10.5t-26754 10zM685610 1.08641e+06q13057 -4.5 25986 -106.5t14849.5 -109t129 -119t-3705 -116.5t-17401 -17.5t-18687 -20t-6905 -117.5t12423 -115t-1809 360.5t-4880.5 360.5zM676046 1.08567e+06q-11135.5 -7 -9855.5 -115.5t-13056 -112.5t9855.5 115.5
t13056 112.5zM622158 1.08517e+06q14080 -7 27520 -115t27136 -112t27776 -128t26119.5 -131t9486 -114t7822 -111t-64782 357t-61077.5 354zM761868 1.08421e+06q9094.5 -7 16397 -113.5t14221 -110.5t13581 -122t13069 -122t12557 -81.5t12173 -81.5t-42535 317
t-39463 314zM864884 1.08344e+06q4486 -4 1804 -42.5t-6004 -42.5t-9460 -36t-12788 -36t-13556 -35t-14068 -38t21212 113.5t32860 116.5zM837204 1.08302e+06q10502 -4 20748 -29.5t18214.5 -29.5t-20748 29.5t-18214.5 29.5zM891065 1.0829e+06q7174 -4 8587.5 -23
t1035 -22.5t-8587.5 23t-1035 22.5zM886758 1.08259e+06q-7674.5 -3.5 -15603 -127.5t-23667 -127.5t-24309 -107t-17781 -110.5t39912 234.5t41448 238zM765484 1.08194e+06q-10746.5 -3.5 -21749 -104.5t-25843 -108t21749 104.5t25843 108zM735452 1.08156e+06
q8069.5 -3.5 15115 -94.5t13579 -94.5t-15115 94.5t-13579 94.5zM784394 1.08118e+06q2183.5 -7 12685 -76.5t12299 -73t-12685 76.5t-12299 73zM823740 1.08094e+06q10245.5 -7 11018.5 -74t-2422 -70.5t-11018.5 74t2422 70.5zM817129 1.08074e+06q7429 -3 -2550 -118.5
t-20723.5 -122.5t2550 118.5t20723.5 122.5zM783896 1.08039e+06q-12536.5 -3 -8947.5 -86t11788.5 -86t11404.5 -73.5t10378 -73.5t13706 -72.5t10250 -72.5t-16163 232t-32416.5 232zM840564 1.07979e+06q-251.5 -7 -10615 -47.5t-23543 -43.5t10615 47.5t23543 43.5z
M747160 1.07959e+06q-16123.5 -3 -32503 -25.5t-375 -29.5t32503 25.5t375 29.5zM775612 1.07946e+06q14084.5 -3 27913 -22t27529 -26t-27913 22t-27529 26zM874464 1.07934e+06q9732.5 -3 19081 -21t17673 -25t-19081 21t-17673 25zM939652 1.07922e+06
q4740.5 -3 7817 -20t5897 -24t-7817 20t-5897 24zM958118 1.07911e+06q-124 -2.5 -3320 -121.5t-6648 -126t3320 121.5t6648 126zM914502 1.07883e+06q-16380 -2.5 -4984 -73t14091 -77.5t4984 73t-14091 77.5zM908780 1.07865e+06q2435.5 -2.5 775 -51t12167 -51t-775 51
t-12167 51zM976008 1.07846e+06q13315.5 -2.5 25607 -41.5t23814.5 -46t-25607 41.5t-23814.5 46zM1.0129e+06 1.07835e+06q-8189 -2.5 2310 -41t20230 -45.5t-2310 41t-20230 45.5zM1.06924e+06 1.07824e+06q7943 -2.5 14601.5 -36t4613 -40.5t-14601.5 36t-4613 40.5z
M1.06812e+06 1.07815e+06q-10365.5 -2.5 -23163 -35t3461 -34.5t23163 35t-3461 34.5zM1.10231e+06 1.07784e+06q5890.5 -6.5 10756.5 -131.5t-5628 -127t-10756.5 131.5t5628 127zM1.09094e+06 1.07735e+06q-10110.5 -2 -20733 -78t-21885 -82.5t20733 78t21885 82.5z
M1.02619e+06 1.07694e+06q14726.5 -2 5384 -73.5t4739 -78t-5384 73.5t-4739 78zM1.07983e+06 1.07654e+06q9729.5 -2 16642.5 -72.5t3202 -72.5t-16642.5 72.5t-3202 72.5zM1.08381e+06 1.07626e+06q-1407.5 -2 -3071 -69t-4991 -73.5t3071 69t4991 73.5z
M1.05873e+06 1.07588e+06q-6527.5 -2 -17279 -61t-21759.5 -61t17279 61t21759.5 61zM967847 1.07564e+06q-13952 -2 -28160 -25.5t-29056 -25t-29824 -124t0 -124t29440 -55t28672 -60t28544 204.5t384 209zM965415 1.07505e+06q-14848 -1.5 -1408 -32t26752 -32t26624 -16
t26752 -16t-25216 48t-53504 48zM1.08934e+06 1.07492e+06q10502.5 -1.5 20749 -8t20237 -8t-20749 8t-20237 8zM1.16542e+06 1.0749e+06q7175.5 -1 4110 -125.5t3982 -125.5t-4110 125.5t-3982 125.5zM1.18097e+06 1.07442e+06q6791.5 -1 3470 -82t3214 -87.5t3086 -73
t2830 -67t2446 -105.5t1550 -105.5t-9002 260.5t-7594 260zM1.19913e+06 1.07371e+06q4614.5 -0.5 6029 -73t2572.5 -79t13.5 -67.5t-6898.5 -61.5t-6042.5 140.5t4326 140.5zM1.18653e+06 1.07331e+06q-3448.5 0 -10226.5 -56t-12786.5 -56.5t10226.5 56t12786.5 56.5z
M1.13692e+06 1.07315e+06q-6520.5 -6 -13682.5 -97.5t-13938.5 -97.5t13682.5 97.5t13938.5 97.5zM1.08091e+06 1.0729e+06q-7034 -6 -17524 -15.5t3341.5 -15.5t17524 15.5t-3341.5 15.5zM1.07098e+06 1.07285e+06q11655.5 -6 653.5 -7.5t-370.5 -7t-653.5 7.5t370.5 7z
M1.07001e+06 1.07265e+06q10375.5 -5.5 -1522.5 -69.5t-3826.5 -69.5t1522.5 69.5t3826.5 69.5zM1.05598e+06 1.07239e+06q7302 -5.5 11404 -55.5t5387.5 -55.5t-11404 55.5t-5387.5 55.5zM1.06998e+06 1.07218e+06q-3064.5 -5.5 -18419 -44.5t-22899 -44.5t18419 44.5
t22899 44.5zM982352 1.072e+06q-7802.5 -5 -16499 -102t-24563 -102t16499 102t24563 102zM891012 1.0716e+06q-16250.5 -5 -26099 -55.5t6413 -55.5t26099 55.5t-6413 55.5zM882488 1.07138e+06q16133.5 -7.5 5261 -15t4493 -12t-5261 15t-4493 12zM886122 1.07113e+06
q7943.5 -7 19981 -132.5t19213 -130t-19981 132.5t-19213 130zM962974 1.0707e+06q6663.5 -4 18189 -130t17421 -130t-18189 130t-17421 130zM1.02805e+06 1.07019e+06q2309.5 -4 3981 -127t12045 -127t-3981 127t-12045 127zM1.05767e+06 1.06977e+06q647.5 -4 9996.5 -73
t6282 -73t-9996.5 73t-6282 73zM1.04107e+06 1.06955e+06q-10107 -4 -20982 -35.5t-23542 -35.5t20982 35.5t23542 35.5zM1.00706e+06 1.06942e+06q7047.5 -4 9996.5 -9.5t9610 -9t-9996.5 9.5t-9610 9zM1.04461e+06 1.06915e+06q3589 -3.5 5770 -107.5t3849.5 -107.5
t-5770 107.5t-3849.5 107.5zM1.02161e+06 1.06873e+06q-13307.5 -3.5 -28404.5 -92.5t-16500.5 -92.5t28404.5 92.5t16500.5 92.5zM941780 1.06841e+06q-1531.5 -3 -17783 -111t-372.5 -111t17783 111t372.5 111zM951680 1.06802e+06q15751 -7 13707.5 -53t12171.5 -49
t-13707.5 53t-12171.5 49zM1.00139e+06 1.06776e+06q13956.5 -7 27529 -42t23433 -38t-27529 42t-23433 38zM1.07861e+06 1.06763e+06q-2811.5 -7 6667.5 -38.5t6411.5 -34.5t-6667.5 38.5t-6411.5 34.5zM1.11309e+06 1.06752e+06q7559 -7 3979.5 -37.5t1417 -33.5
t-3979.5 37.5t-1417 33.5zM1.13617e+06 1.06742e+06q2948.5 -7 5641 -37t3595.5 -33t-5641 37t-3595.5 33zM1.13659e+06 1.06733e+06q7 -2.5 -5621 -113t-8693 -113t5621 113t8693 113zM1.10438e+06 1.06691e+06q-3321 -2.5 -9717 -99.5t-13176 -104t9483 -13t7435 -8.5
t234 112.5t5741 112.5zM1.11519e+06 1.0666e+06q2564 -7 4871.5 -12.5t548 -8t-1884 -39t13575 -39t27143 -23t26634.5 -23t-30130.5 74.5t-40757.5 70zM1.18354e+06 1.06644e+06q12423 -2.5 -1909.5 -7t-2677.5 -6.5t1909.5 7t2677.5 6.5zM1.20918e+06 1.06617e+06
q-7805 -2 -15866 -126.5t2310 -126.5t15866 126.5t-2310 126.5zM1.23455e+06 1.06569e+06q9347 -2 17542 -110.5t16005.5 -110.5t-17542 110.5t-16005.5 110.5zM1.25723e+06 1.06526e+06q-10493.5 -2 -22262.5 -105.5t-7670.5 -105.5t22262.5 105.5t7670.5 105.5z
M1.22219e+06 1.06485e+06q16130.5 -2 32133 -97.5t31749 -97.5t-32133 97.5t-31749 97.5zM1.33396e+06 1.06452e+06q898.5 -2 6921.5 -65.5t6793.5 -65.5t-6921.5 65.5t-6793.5 65.5zM1.35678e+06 1.06428e+06q-1662 -2 -11900 -52t-20599.5 -52t11900 52t20599.5 52z
M1.31867e+06 1.06412e+06q12166.5 -2 8328.5 -19t8068 -19t-8328.5 19t-8068 19zM1.3416e+06 1.06405e+06q-8702.5 -1.5 -18941 -124.5t-20989 -124.5t18941 124.5t20989 124.5zM1.26098e+06 1.06361e+06q-8190.5 -1.5 -20861 -16.5t-28285 -16.5t20861 16.5t28285 16.5z
M1.23987e+06 1.06355e+06q14465.5 -1.5 28419 -14.5t25347 -14.5t-28419 14.5t-25347 14.5zM1.33102e+06 1.0635e+06q6785.5 -1 7042.5 -76t-4990.5 -76t-7042.5 76t4990.5 76zM1.32258e+06 1.06319e+06q-2175.5 -1 -5631 -74.5t-9855 -74.5t5631 74.5t9855 74.5z
M1.29109e+06 1.06301e+06q12160.5 -0.5 24193 -60.5t23937 -92.5t-24193 60.5t-23937 92.5zM1.37737e+06 1.06257e+06q2688.5 -0.5 5249 -23t4993 -23t-5249 23t-4993 23zM1.39606e+06 1.06248e+06q1408 -0.5 -12160 -21.5t-27264 -21.5t12160 21.5t27264 21.5z
M1.30121e+06 1.0624e+06q-14080 -0.5 -29184 -9t-256 -9t29184 9t256 9zM1.33065e+06 1.06236e+06q14592 0 28928 -125t7808 -125t-28928 125t-7808 125zM1.38876e+06 1.06186e+06q1280 0 2560 -4.5t14592 -4.5t-2560 4.5t-14592 4.5zM1.45086e+06 1.06185e+06
q10630.5 0 20749 -46t11661 -46t2828.5 -3.5t1164 -3.5t-1140 -2t-11380 -2.5t-22437.5 51.5t-1445 52zM1.45455e+06 1.0617e+06q13959.5 0 1805.5 -3.5t-5108 -3.5t13708 -47t10892 -53.5t6411.5 -25t3210.5 -25t-21925 75.5t-8994.5 82zM1.46859e+06 1.0615e+06
q-7675 -6.5 -21494 -19t-29174 -19t21494 19t29174 19zM1.37571e+06 1.06143e+06q4869 -6 18314 -105t25484.5 -105t-18314 105t-25484.5 105zM1.45051e+06 1.06102e+06q10501 -6 12042 -94.5t1929.5 -96t-1015 -71.5t-3063 -69.5t-11027 166t1133.5 165.5z
M1.45069e+06 1.0605e+06q-3195.5 -5.5 -6647 -88.5t-9972 -88.5t-5492 -76.5t-6772.5 -78.5t12139 165t16744.5 167zM1.41952e+06 1.06004e+06q10884.5 -5.5 14089 -70t4360.5 -70t-14089 70t-4360.5 70zM1.43722e+06 1.05981e+06q-1148 -5.5 -3320 -43t-4856 -42t3320 43
t4856 42zM1.40589e+06 1.0595e+06q-11772 -4.5 -25336 -79.5t-28920 -79.5t25336 79.5t28920 79.5zM1.38365e+06 1.05922e+06q15620 -4.5 25608 -55.5t19720 -55.5t-25608 55.5t-19720 55.5zM1.46624e+06 1.05905e+06q9092 -4 18056 -129.5t17800 -129.5t-18056 129.5
t-17800 129.5zM1.52976e+06 1.05854e+06q6020 -4 11784 -126.5t11016 -126.5t-11784 126.5t-11016 126.5zM1.57255e+06 1.05806e+06q4739.5 -4 4615 -109.5t-1017 -109.5t-4615 109.5t1017 109.5zM1.55798e+06 1.05772e+06q-7036.5 -4 -15993 -10t-18553 -10t15993 10
t18553 10zM1.47571e+06 1.05769e+06q-14844.5 -3.5 -30201 -126.5t-30969 -126.5t-31865 -125.5t-3193 -125.5t25991 -114t22407 -114t36075 366t11755 366zM1.46322e+06 1.05673e+06q7427.5 -3.5 11018.5 -101t19082.5 -101t17158.5 -69.5t-1402 -69t-9722 -110.5
t-18298 -110.5t-18455 281t617.5 280.5zM1.45074e+06 1.05601e+06q11011 -3 27014 -74.5t28934 -74.5t-27014 74.5t-28934 74.5zM1.55164e+06 1.05581e+06q9475 -3 17926 -14.5t13190 -14.5t-17926 14.5t-13190 14.5zM1.60068e+06 1.05576e+06q4226.5 -3 1797 -9.5t-8699 -9
t-1797 9.5t8699 9zM1.55142e+06 1.05551e+06q-14845.5 -2.5 -31227 -100t-4091 -100t31227 100t4091 100zM1.55248e+06 1.05511e+06q1794.5 -2.5 12677 -39.5t21509 -39.5t-12677 39.5t-21509 39.5zM1.62725e+06 1.05496e+06q9730.5 -2.5 18181 -22.5t16645 -22.5
t-18181 22.5t-16645 22.5zM1.69037e+06 1.0549e+06q6530 -2.5 3076 -6.5t-7292 -6t-3076 6.5t7292 6zM1.65789e+06 1.05463e+06q-1918 -2 -15100 -126t-27772 -126t15100 126t27772 126zM1.56831e+06 1.05416e+06q-2430 -2 -17655.5 -110t-17783.5 -110t17655.5 110
t17783.5 110zM1.51432e+06 1.05373e+06q14978 -2 21635.5 -105t259 -105t-21635.5 105t-259 105zM1.4831e+06 1.05332e+06q-15742.5 -2 -1917 -97t27395 -97t25091 -66t22787 -66t-23174 163t-50182 163zM1.59052e+06 1.05286e+06q7430.5 -2 -4216 -55.5t-9848 -55.5
t4216 55.5t9848 55.5zM1.55624e+06 1.05265e+06q1537 -2 770 -18.5t-4862 -18.5t-770 18.5t4862 18.5zM1.53449e+06 1.05258e+06q-4863 -1.5 -9854 -125t-10110 -125t9854 125t10110 125zM1.47958e+06 1.05214e+06q-6015.5 -1.5 -12287 -15t-15103 -15t12287 15t15103 15z
M1.43005e+06 1.05209e+06q14848.5 -1 29313 -76.5t16385 -76.5t-29313 76.5t-16385 76.5zM1.4792e+06 1.05178e+06q-2048 -1 -15488 -73.5t-12152.5 -73.5t15488 73.5t12152.5 73.5zM1.44263e+06 1.0516e+06q6 -0.5 -12020 -82.5t-5106.5 -82.5t12020 82.5t5106.5 82.5z
M1.41465e+06 1.05132e+06q6790 -0.5 8843.5 -44.5t2954.5 -44.5t-8843.5 44.5t-2954.5 44.5zM1.40906e+06 1.05114e+06q-7800.5 -0.5 -1907.5 -43.5t-9331.5 -43.5t1907.5 43.5t9331.5 43.5zM1.37813e+06 1.05097e+06q-15739 -0.5 -2422 -40.5t23690 -40.5t2422 40.5
t-23690 40.5zM1.40876e+06 1.05081e+06q-1531.5 -0.5 -3319 -21t-4343 -21t3319 21t4343 21zM1.38835e+06 1.05073e+06q-3551.5 -0.5 -3675 -8.5t-8055 -8t2824.5 -125.5t6280 -125.5t850.5 134t1775 133.5zM1.34375e+06 1.05021e+06q-13692 0 -29176 -123t264 -123
t29176 123t-264 123zM1.37118e+06 1.04972e+06q9604 0 18312 -12t14600 -12t-18312 12t-14600 12zM1.42638e+06 1.04969e+06q5124 0 9735.5 -3t-633 -3t-9735.5 3t633 3zM1.39966e+06 1.0496e+06q-12412.5 0 -23925.5 -2t-24565.5 -8.5t23925.5 2t24565.5 8.5z
M1.29538e+06 1.04951e+06q-13308.5 -7.5 -28533.5 -121t-28661.5 -120t28533.5 121t28661.5 120zM1.1774e+06 1.04921e+06q-16380.5 -7.5 -3577 -119.5t22154.5 -118.5t3577 119.5t-22154.5 118.5zM1.17628e+06 1.04892e+06q3715.5 -7.5 5254.5 -118t-5242 -117t-5254.5 118
t5242 117zM1.20012e+06 1.04864e+06q8322.5 -6.5 6153.5 -19.5t3465.5 -19.5t-6153.5 19.5t-3465.5 19.5zM1.19234e+06 1.04857e+06q-10749.5 -6 5 -129t21253 -130.5t-5 129t-21253 130.5zM1.24381e+06 1.04809e+06q6402 -6 -4988 -109.5t-4860.5 -109.5t4988 109.5
t4860.5 109.5zM1.21605e+06 1.04766e+06q-11390.5 -6 -27261 -104.5t-2429 -104.5t27261 104.5t2429 104.5zM1.22963e+06 1.04726e+06q7553 -6 3719.5 -94t-17016.5 -94t-3719.5 94t17016.5 94zM1.18971e+06 1.04689e+06q-5503.5 -6 -11647 -68.5t8576.5 -68.5t11647 68.5
t-8576.5 68.5zM1.23567e+06 1.04662e+06q14592.5 -6 19712.5 -59.5t6400.5 -59.5t-19712.5 59.5t-6400.5 59.5zM1.30428e+06 1.04647e+06q12038 -5.5 2572 -89t-4340 -91t-2572 89t4340 91zM1.31304e+06 1.04615e+06q774 -5.5 1035.5 -88t13963 -88t-1035.5 88t-13963 88z
M1.37874e+06 1.04582e+06q11653 -7.5 3594 -64.5t-16627.5 -62.5t-3594 64.5t16627.5 62.5zM1.35652e+06 1.04556e+06q-13691 -5 -886 -117t25100.5 -117t16908.5 -83t16778 -85.5t-16022.5 200t-41878.5 202.5zM1.42404e+06 1.04511e+06q-5371.5 -5 -12020.5 -61
t-10740.5 -61t12020.5 61t10740.5 61zM1.39938e+06 1.04494e+06q-4475.5 -4.5 -3188.5 -113t-3701 -113t3188.5 113t3701 113zM1.38189e+06 1.04458e+06q-5116 -4.5 -6133 -56t-6389 -56t6133 56t6389 56zM1.35441e+06 1.04436e+06q-5500 -7 -8056 -125t-15480 -122.5
t8056 125t15480 122.5zM1.29735e+06 1.04401e+06q9860 -4.5 18056 -28.5t16139 -28t-18056 28.5t-16139 28zM1.32658e+06 1.04373e+06q6532 -4 12680 -112t11015.5 -112t-12680 112t-11015.5 112zM1.35361e+06 1.04328e+06q-1020.5 -4 -7285.5 -108.5t-17525.5 -108.5
t7285.5 108.5t17525.5 108.5zM1.29183e+06 1.04285e+06q-11900.5 -4 -21369 -107t-19573.5 -107t21369 107t19573.5 107zM1.22045e+06 1.04244e+06q9607 -4 -6005.5 -58.5t-8057.5 -58.5t6005.5 58.5t8057.5 58.5zM1.21997e+06 1.0423e+06q12419 -4 902 -10.5t-26490 -10.5
t-902 10.5t26490 10.5zM1.22154e+06 1.04227e+06q10371 -3.5 23434 -127t21514 -127t-23434 127t-21514 127zM1.293e+06 1.04177e+06q8323 -3.5 12938 -115t12810 -115t-12938 115t-12810 115zM1.34219e+06 1.04132e+06q6530.5 -3.5 4233.5 -90t1289.5 -93.5t-4233.5 90
t-1289.5 93.5zM1.32393e+06 1.04097e+06q2050.5 -3.5 14469 -67t23429 -67t-14469 67t-23429 67zM1.39449e+06 1.04071e+06q1666.5 -3.5 11529.5 -46.5t11017.5 -46.5t-11529.5 46.5t-11017.5 46.5zM1.43638e+06 1.04052e+06q1026.5 -3.5 9348.5 -44.5t4744.5 -48
t-9348.5 44.5t-4744.5 48zM1.44165e+06 1.04029e+06q-3710 -3.5 -17015.5 -32t-15351.5 -31.5t17015.5 32t15351.5 31.5zM1.37615e+06 1.04007e+06q-2174 -7 -16892 -51t-30076 -47t16892 51t30076 47zM1.27966e+06 1.03984e+06q-2942 -3 12164 -67.5t21123.5 -67.5
t-12164 67.5t-21123.5 67.5zM1.33601e+06 1.03964e+06q-10366.5 -7 -2557 -19.5t11523 -15t2557 19.5t-11523 15zM1.35676e+06 1.03947e+06q1665.5 -2.5 3074.5 -68.5t514 -68.5t-3074.5 68.5t-514 68.5zM1.33898e+06 1.0392e+06q-12025.5 -7 -27769 -17t-21631 -12.5
t27769 17t21631 12.5zM1.25157e+06 1.03905e+06q-14201.5 -7 1415 -16.5t31104.5 -12t-1415 16.5t-31104.5 12zM1.33235e+06 1.0389e+06q5126 -6.5 -4212 -132.5t-4084 -128t4212 132.5t4084 128zM1.33509e+06 1.0384e+06q902 -2 1291.5 -119t-10101 -119t-1291.5 119
t10101 119zM1.29686e+06 1.03793e+06q13829.5 -2 26635 -98.5t24587 -98.5t-26635 98.5t-24587 98.5zM1.38958e+06 1.03762e+06q9733 -6.5 1802 -119t-16374 -114.5t4490 -47.5t25356.5 -47.5t14348 -46.5t-3316.5 -46.5t-20640 213t-5666 208.5zM1.39593e+06 1.03711e+06
q-13436 -1.5 -13944 -125.5t-1272 -125.5t-2040 -109t-14072 -109t-27896 -102t-6776 -102t43880 336.5t22120 336.5zM1.36067e+06 1.03623e+06q6276 -1.5 7687.5 -94.5t7 -94.5t-7545 -93.5t-13817 -93.5t-17657 -92t-25721.5 -92t17514.5 280t39531.5 280z
M1.26486e+06 1.03551e+06q-12793 -6.5 -1014 -98.5t-2550 -93.5t1014 98.5t2550 93.5zM1.27104e+06 1.03519e+06q6151 -1.5 14218 -62.5t11146 -67.5t10890 -92.5t9866 -87.5t-25108 155t-21012 155zM1.33638e+06 1.03483e+06q1794.5 -1.5 -2683 -24t-12155 -29t2683 24
t12155 29zM1.29954e+06 1.03461e+06q1538.5 -1.5 11145.5 -6.5t11017.5 -6.5t-11145.5 6.5t-11017.5 6.5zM1.34706e+06 1.03458e+06q5250.5 -6.5 6661 -80.5t2564.5 -75t-6661 80.5t-2564.5 75zM1.35527e+06 1.03425e+06q-894 -1 -5628 -85.5t-9724 -91t5628 85.5t9724 91z
M1.31663e+06 1.03392e+06q-6270 -1 -14076 -77t-16124 -82.5t14076 77t16124 82.5zM1.26186e+06 1.03362e+06q16258 -0.5 29828 -113t26372 -113t18948 -112t10500 -112t8451.5 -111t2819 -117t-57227.5 336t-39691 342zM1.34266e+06 1.03281e+06q3841.5 -0.5 7427 -90
t6915 -90t-7427 90t-6915 90zM1.35291e+06 1.03245e+06q-13567 -0.5 -27390 -87.5t-27774 -87.5t27390 87.5t27774 87.5zM1.3076e+06 1.03211e+06q15360.5 -0.5 21121 -82t11425 -82t-21121 82t-11425 82zM1.35093e+06 1.03178e+06q5376.5 -0.5 10241 -80.5t7041 -86.5
t-10241 80.5t-7041 86.5zM1.37295e+06 1.03149e+06q-768 -0.5 -1664 -46t256 -46t1664 46t-256 46zM1.38652e+06 1.03131e+06q11776 -0.5 12672 -45t1408.5 -45t-12672 45t-1408.5 45zM1.41225e+06 1.03112e+06q896 -6.5 12934.5 -66.5t16781 -60.5t-12934.5 66.5
t-16781 60.5zM1.45786e+06 1.03091e+06q3206.5 -0.5 6156.5 -42t-4468 -42t-6156.5 42t4468 42zM1.42412e+06 1.03075e+06q-10104.5 -0.5 -26483 -39.5t-26741 -45.5t26483 39.5t26741 45.5zM1.32292e+06 1.03053e+06q-14584.5 -0.5 653 -39t-1013 -39t-6389 -38.5
t19466 -38.5t4489 -34t-18679 -34t1247 111.5t226 111.5zM1.33337e+06 1.03024e+06q-636 -0.5 -1528 -32.5t-2296 -32.5t1528 32.5t2296 32.5zM1.3325e+06 1.03012e+06q1283.5 -0.5 7 -31.5t-2809 -31.5t-7 31.5t2809 31.5zM1.29669e+06 1.02999e+06
q-15869 -0.5 -21114 -30.5t-18170 -30.5t21114 30.5t18170 30.5zM1.20084e+06 1.02987e+06q-14717 0 -8698 -126t11782 -126t8698 126t-11782 126zM1.21751e+06 1.02937e+06q1923 0 3589.5 -122.5t-2939 -122.5t-3589.5 122.5t2939 122.5zM1.18988e+06 1.029e+06
q-8061.5 0 1413 -64t18693 -64t-1413 64t-18693 64zM1.23073e+06 1.02874e+06q1282.5 0 2308.5 -15t260 -47.5t-2308.5 15t-260 47.5zM1.22563e+06 1.02839e+06q-4862 0 -9980 -14.5t-11260 -14.5t-12540 -13.5t-14332 -13.5t-16380 -11.5t-24828 -11.5t38900 39.5
t50420 39.5zM1.16588e+06 1.02829e+06q13698 0 27140 -10.5t26116 -10.5t-27140 10.5t-26116 10.5zM1.24423e+06 1.02825e+06q3969.5 0 2819 -9.5t-2557 -9.5t-2819 9.5t2557 9.5zM1.22761e+06 1.02821e+06q3457.5 0 6402.5 -8.5t-10494 -8.5t-6402.5 8.5t10494 8.5z
M1.16848e+06 1.02818e+06q-14207 0 -10110.5 -7.5t-7679 -7.5t10110.5 7.5t7679 7.5zM1.18039e+06 1.02815e+06q11264.5 0 22401 -6.5t22145 -6.5t-22401 6.5t-22145 6.5zM1.26692e+06 1.02813e+06q10240.5 0 20353 -2.5t15361 -2.5t-20353 2.5t-15361 2.5z
M1.31992e+06 1.02812e+06q2048 0 1408 -82t-1664 -82t-1408 82t1664 82zM1.31915e+06 1.02795e+06q3072 0 4480 -12.5t2176 -12.5t-4480 12.5t-2176 12.5zM1.34884e+06 1.02792e+06q512 0 768 -1t512 -1t-768 1t-512 1zM1.36203e+06 1.02782e+06q10630.5 -6.5 18062 -36
t3726 -36t-18062 36t-3726 36zM1.38731e+06 1.02769e+06q-4089.5 -6 782 -128.5t398 -128.5t-782 128.5t-398 128.5zM1.39555e+06 1.02722e+06q3334.5 -6 6412.5 -104t1805.5 -104t-6412.5 104t-1805.5 104zM1.38242e+06 1.02683e+06q-6266 -6 -13556 -68t-14836 -68
t13556 68t14836 68zM1.3186e+06 1.02656e+06q-10234 -6 -21876 -59t4364 -59t21876 59t-4364 59zM1.36178e+06 1.02641e+06q13702 -5.5 16651.5 -87.5t-8435 -87.5t-16651.5 87.5t8435 87.5zM1.37898e+06 1.02611e+06q-11642.5 -5 -26099 -116.5t141 -116.5t26099 116.5
t-141 116.5zM1.394e+06 1.02571e+06q-4091 -5 -16883.5 -60.5t-7795.5 -60.5t16883.5 60.5t7795.5 60.5zM1.40787e+06 1.02554e+06q4868.5 -4.5 -119 -63.5t10249 -63.5t119 63.5t-10249 63.5zM1.47229e+06 1.02529e+06q12679 -4.5 10123.5 -62t9481 -62t18184.5 -53
t1160 -53t-10104 -51t-10616 -51t-11512 -28t-12280 -28t-6692 194t12255 194zM1.43846e+06 1.02485e+06q-9212 -4.5 4744 -26.5t15880 -26t-4744 26.5t-15880 26zM1.46499e+06 1.02457e+06q643.5 -4 -505 -110t-3321 -110t505 110t3321 110zM1.44581e+06 1.02414e+06
q-4732.5 -4 -15349.5 -95.5t-24309.5 -98.5t15349.5 95.5t24309.5 98.5zM1.43599e+06 1.02374e+06q11011.5 -4 21767 -60t21258.5 -60t-21767 60t-21258.5 60zM1.46534e+06 1.0235e+06q7299 -4 -7286 -11t-3318 -11t7286 11t3318 11zM1.43965e+06 1.02347e+06
q5895 -3.5 9097.5 -122.5t-12539 -126t-9097.5 122.5t12539 126zM1.37273e+06 1.02304e+06q-15993.5 -3.5 -16503.5 -115.5t-3196 -115.5t16503.5 115.5t3196 115.5zM1.34178e+06 1.02258e+06q-2942 -7 -11004 -92t5768.5 -88.5t11004 92t-5768.5 88.5z
M1.35409e+06 1.02217e+06q11650 -3.5 23044 -112.5t22019.5 -112.5t-23044 112.5t-22019.5 112.5zM1.40249e+06 1.02188e+06q-5246.5 -2.5 -12285 -67.5t-14461 -72t12285 67.5t14461 72zM1.34119e+06 1.02171e+06q-9214.5 -2.5 -18813 -67t-22520 -67t18813 67t22520 67z
M1.28438e+06 1.02146e+06q15873.5 -2.5 31496 -55t4872 -54.5t-31496 55t-4872 54.5zM1.32831e+06 1.02112e+06q5766.5 -2 -6136 -98t-10621 -98t6136 98t10621 98zM1.3003e+06 1.02083e+06q-13823 -1.5 -24702 -102.5t-22008.5 -107.5t24702 102.5t22008.5 107.5z
M1.20049e+06 1.02041e+06q-13305.5 -1.5 -28921 -95t-19583 -95t28921 95t19583 95zM1.13509e+06 1.02004e+06q-4473.5 -1.5 -20857 -78.5t-26239 -78.5t20857 78.5t26239 78.5zM1.04742e+06 1.01983e+06q-10495.5 -1.5 -22143 -5.5t-23551 -5t22143 5.5t23551 5z
M953226 1.01965e+06q-12281.5 -1 3207 -74t27137 -74t-3207 74t-27137 74zM1.02965e+06 1.01936e+06q11392.5 -0.5 22279 -80t26247 -80t26113 -79.5t21377 -79.5t21121 -79t20487 -79t-69513 238.5t-68111 238.5zM1.21759e+06 1.01872e+06q9856.5 -0.5 19585 -60t18305 -60
t17025 -59t16641 -59t-36610 119t-34946 119zM1.3214e+06 1.01841e+06q7936.5 -0.5 15745 -37.5t15489 -37.5t15232.5 -37t7040 -37t-30977.5 74.5t-22529 74.5zM1.37068e+06 1.01819e+06q-1408 -0.5 -17536 -36t-32512 -36t17536 36t32512 36zM1.34035e+06 1.01804e+06
q3840 -0.5 7552 -35t7168 -35t-7552 35t-7168 35zM1.36723e+06 1.0179e+06q2816 -0.5 5504 -33t5248 -32.5t-5504 33t-5248 32.5zM1.38774e+06 1.01759e+06q2336.5 -6.5 2208.5 -64.5t2048 -58t-2208.5 64.5t-2048 58zM1.40019e+06 1.01722e+06q1920 0 3712 -120.5
t3456 -120.5t-3712 120.5t-3456 120.5zM1.41273e+06 1.01686e+06q640 0 1024 -14t-12160 -14t-1024 14t12160 14zM1.39714e+06 1.01681e+06q7558.5 0 13068.5 -40.5t4108 -40.5t-13068.5 40.5t-4108 40.5zM1.39245e+06 1.0167e+06q-7674 0 -19444 -62t4108 -62t19444 62
t-4108 62zM1.4373e+06 1.01645e+06q13574 0 16395.5 -12.5t-8949 -12.5t-16395.5 12.5t8949 12.5zM1.45897e+06 1.01634e+06q-4219 -6 -17142 -121.5t-8182.5 -121.5t17142 121.5t8182.5 121.5zM1.48359e+06 1.01589e+06q14980.5 -6 29833 -67t29577 -68.5t-29833 67
t-29577 68.5zM1.58756e+06 1.01559e+06q6020.5 -6 11913 -25.5t11657 -27t-11913 25.5t-11657 27zM1.62292e+06 1.01536e+06q-5244 -6 -10616 -23.5t-11000 -23.5t10616 23.5t11000 23.5zM1.57483e+06 1.0153e+06q-9337 -5.5 -17269 -125.5t6408 -125.5t17269 125.5
t-6408 125.5zM1.62082e+06 1.01482e+06q14084 -5.5 15880 -82.5t2311.5 -82.5t-15880 82.5t-2311.5 82.5zM1.62405e+06 1.01452e+06q-10876.5 -7.5 -14969 -63.5t-8441 -61.5t14969 63.5t8441 61.5zM1.57634e+06 1.01427e+06q-11004.5 -7.5 -15609 -61.5t-9465 -59.5
t15609 61.5t9465 59.5zM1.54361e+06 1.01404e+06q7175 -7.5 10249.5 -60.5t-13179.5 -58.5t-10249.5 60.5t13179.5 58.5zM1.50114e+06 1.01381e+06q-6905.5 -7.5 -14200 -59t-16125 -57t14200 59t16125 57zM1.42947e+06 1.01359e+06q-13055 -7.5 -24062 -58t-25086 -56
t24062 58t25086 56zM1.32516e+06 1.01338e+06q-12415.5 -7.5 -24959 -57.5t-25215 -55.5t24959 57.5t25215 55.5zM1.25195e+06 1.01317e+06q15232.5 -5.5 30209 -29t24577 -29t-30209 29t-24577 29zM1.34411e+06 1.01307e+06q9088.5 -5.5 17921 -16t17152.5 -18t-17921 16
t-17152.5 18zM1.39929e+06 1.01296e+06q14848 -5 13184 -107t-3456 -109.5t-13184 107t3456 109.5zM1.41888e+06 1.01267e+06q15488 -5 19072 -104t6912 -104t-19072 104t-6912 104zM1.47059e+06 1.0123e+06q3200 -5 19072 -72t16128 -72t-19072 72t-16128 72z
M1.52461e+06 1.01204e+06q12166 -5 8972 -49t-11636 -51.5t-8972 49t11636 51.5zM1.53221e+06 1.01192e+06q-12538 -4.5 -7538.5 -108t-7666.5 -111t7538.5 108t7666.5 111zM1.51383e+06 1.01168e+06q517.5 -4.5 -1525 -99t-7157 -102t1525 99t7157 102z
M1.48981e+06 1.01147e+06q15879.5 -4.5 30221 -97t28685 -99.5t-30221 97t-28685 99.5zM1.60379e+06 1.01103e+06q13063.5 -4.5 26637 -22.5t25869 -25t-26637 22.5t-25869 25zM1.70624e+06 1.01081e+06q11271.5 -3.5 24205 -105.5t23693 -109t-24205 105.5t-23693 109z
M1.80101e+06 1.01041e+06q10501.5 -3.5 16523 -100.5t10507 -104t-16523 100.5t-10507 104zM1.84624e+06 1.01007e+06q8325 -3.5 1676.5 -26t1292.5 -26t-1676.5 26t-1292.5 26zM1.82913e+06 1.00996e+06q-13179 -7 -28790 -57.5t-3062 -53.5t28790 57.5t3062 53.5z
M1.83391e+06 1.00966e+06q1540.5 -3 -4724 -96t-5620 -96t4724 96t5620 96zM1.80747e+06 1.00935e+06q388.5 -2 -8692.5 -117t-12788.5 -117t8692.5 117t12788.5 117zM1.78037e+06 1.00902e+06q-11132.5 -2 -17781.5 -45.5t-18037.5 -45t-19321 -116t8202.5 -116t10.5 -65.5
t-10361 -70.5t11402.5 -99t18570 -94t25689.5 326t1626 325.5zM1.73938e+06 1.00824e+06q-8957 -1.5 -25210 -63t-2166 -63t25210 63t2166 63zM1.74517e+06 1.00801e+06q13959 -6.5 16393.5 -93.5t16004.5 -88.5t-16393.5 93.5t-16004.5 88.5zM1.79601e+06 1.00777e+06
q11522 -1.5 22659.5 -23.5t7683 -23.5t-22659.5 23.5t-7683 23.5zM1.80588e+06 1.00771e+06q15745.5 -1.5 27907 -3.5t17795 -8.5t6403 -84.5t1288 -79t-34310 88t-19083 87.5zM1.83202e+06 1.0073e+06q-2175 -1 8578 -43t21122 -43t-8578 43t-21122 43z
M1.90037e+06 1.00713e+06q9344.5 -1 6529 -38t-5759 -38t-6529 38t5759 38zM1.88566e+06 1.00698e+06q-4351.5 -0.5 -9087 -117.5t2049 -117.5t13313 -117t12928.5 -117t-4226 234.5t-14977.5 234.5zM1.86326e+06 1.00628e+06q-16256 -0.5 0 -111.5t27392 -111.5
t27015.5 -110t9997.5 -110t-27015.5 221.5t-37389.5 221.5zM1.90798e+06 1.00579e+06q-7674 -0.5 -15988 -26t-3444 -26t15988 26t3444 26zM1.88896e+06 1.00568e+06q-13178 0 -12530.5 -66t-13683 -66t12530.5 66t13683 66zM1.85407e+06 1.00542e+06q15621.5 0 2701 -63.5
t2061 -63.5t-2701 63.5t-2061 63.5zM1.92004e+06 1.00521e+06q14213.5 0 27147 -62t25099 -69.5t23307 -112.5t21771 -111t21005 -122t22029 -123.5t-71459 296.5t-68899 304zM2.08896e+06 1.0044e+06q4613.5 -6 8973 -101.5t15245 -101.5t-8973 101.5t-15245 101.5z
M2.12293e+06 1.00415e+06q-6779 -6 -14326 -23t-20598 -24.5t14326 23t20598 24.5zM2.05411e+06 1.00394e+06q5765 -6 -9718 -8.5t-1267.5 -10t9718 8.5t1267.5 10zM2.0795e+06 1.00376e+06q12679.5 -5.5 17164.5 -114t15881.5 -116t-17164.5 114t-15881.5 116z
M2.10245e+06 1.00339e+06q-8699.5 -5.5 -17911 -83t3337 -85t17911 83t-3337 85zM2.12976e+06 1.0031e+06q4487 -5.5 -1525 -68t-10869 -68t1525 68t10869 68zM2.09434e+06 1.00284e+06q-5881 -5.5 -12149 -56t-12408 -56t12149 56t12408 56zM2.04395e+06 1.00262e+06
q-6652.5 -5.5 -13433 -49t-14837.5 -49t13433 49t14837.5 49zM1.97307e+06 1.00243e+06q-10492.5 -5.5 5514.5 -46t1546.5 -48t-5514.5 46t-1546.5 48zM1.97337e+06 1.00223e+06q-14588.5 -5.5 -3701.5 -29.5t-3829.5 -29.5t3701.5 29.5t3829.5 29.5z
M1.97788e+06 1.00212e+06q5507.5 -5.5 10886.5 -22.5t-3706 -24.5t-10886.5 22.5t3706 24.5zM1.95385e+06 1.00198e+06q10627 -5.5 24837.5 -16.5t-1915 -16t-24837.5 16.5t1915 16zM2.002e+06 1.00173e+06q13698.5 -5 27141 -103.5t26756.5 -103.5t-27141 103.5
t-26756.5 103.5zM2.07437e+06 1.00136e+06q11296.5 -5 11170.5 -81t10884 -83.5t-11170.5 81t-10884 83.5zM2.12511e+06 1.00114e+06q-4094 -5 6664.5 -72.5t3848 -75t-6664.5 72.5t-3848 75zM2.11131e+06 1.00094e+06q-7161.5 -5 -14200 -54.5t-14328 -57t14200 54.5
t14328 57zM2.05156e+06 1.00078e+06q-9086.5 -5 6403 -49.5t30851 -49t-6403 49.5t-30851 49zM2.12249e+06 1.00047e+06q6017.5 -4.5 11907 -98.5t7043 -98.5t-11907 98.5t-7043 98.5zM2.14554e+06 1.00008e+06q897 -4.5 -1406 -53.5t-13566 -53.5t1406 53.5t13566 53.5z
M2.13595e+06 999928q-4607.5 -7 -9471 -111.5t-9983 -108.5t9471 111.5t9983 108.5zM2.08117e+06 999479q-10233.5 -7 6023 -111t5889 -108t-6023 111t-5889 108zM2.11088e+06 999039q9216.5 -7 18177 -110.5t17665 -107.5t-18177 110.5t-17665 107.5zM2.17475e+06 998605
q6016 -4 -9728 -106.5t-31744 -106t9728 106.5t31744 106zM2.16375e+06 998182q14464 -3.5 30208 -100t30976 -103.5t-30208 100t-30976 103.5zM2.28765e+06 997806q15744 -3.5 27911.5 -90.5t9742 -90.5t-27911.5 90.5t-9742 90.5zM2.34709e+06 997490
q1927.5 -7 -7666.5 -78.5t6157.5 -75t7666.5 78.5t-6157.5 75zM2.35124e+06 997239q11398 -7 17548 -78t11532 -74.5t-17548 78t-11532 74.5zM2.39417e+06 996991q1799.5 -7 -11763 -77.5t-15475 -74t11763 77.5t15475 74zM2.39819e+06 996720q8581.5 -32.5 8970.5 -160
t-5107.5 -131t-8970.5 160t5107.5 131zM2.4022e+06 996380q-9464.5 -3.5 -2163.5 -24.5t-2934 -24t2163.5 24.5t2934 24zM2.42196e+06 996140q11525 -3 22537 -67t11015 -71t-22537 67t-11015 71zM2.43798e+06 995909q-6013 -3 -19706 -58.5t-27642 -58t19706 58.5t27642 58
zM2.3575e+06 995680q9219 -2.5 16646 -54.5t7941.5 -54t-16646 54.5t-7941.5 54zM2.36636e+06 995482q-5497 -2 -502.5 -44.5t-3702.5 -49t-6006.5 -118.5t17669 -114t6509 163t-13966.5 163zM2.42183e+06 995064q7938.5 -6.5 15625 -107.5t7048.5 -102.5t-15625 107.5
t-7048.5 102.5zM2.43286e+06 994634q-4606 -1.5 -14455.5 -101.5t-13303.5 -106.5t14455.5 101.5t13303.5 106.5zM2.43558e+06 994218q5766.5 -1.5 392 -101t-7421 -106t-5240 -105.5t-9208 -100.5t-9341 -94t-16893 -94t-27389 -62t-27896 -62t41578 362.5t61418 362.5z
M2.28434e+06 993370q-16254.5 -1.5 -248 -25.5t6280 -25.5t248 25.5t-6280 25.5zM2.31227e+06 993270q7041.5 -1.5 13571 -6t11011 -6t-13571 6t-11011 6zM2.35375e+06 993248q3969 -1 1410 -120t-13054 -120t-1410 120t13054 120zM2.29782e+06 992838
q-12287 -1 -24830 -42.5t-25208.5 -42t24830 42.5t25208.5 42zM2.21605e+06 992532q10881 -0.5 21378 -109.5t20738 -109.5t-21378 109.5t-20738 109.5zM2.29836e+06 992096q9729 -0.5 19330 -89.5t18817.5 -89.5t-19330 89.5t-18817.5 89.5zM2.33792e+06 991734
q-2687.5 -6.5 -5759 -70t-8063 -64t5759 70t8063 64zM2.2912e+06 991418q-9471.5 -6.5 -19199 -65.5t-21753 -59.5t19199 65.5t21753 59.5zM2.27535e+06 991238q6912.5 -0.5 13185 -26.5t12417 -26.5t-13185 26.5t-12417 26.5zM2.32437e+06 991138q5504.5 0 6023 -66.5
t15238.5 -66.5t-6023 66.5t-15238.5 66.5zM2.35294e+06 990874q-3065.5 0 11270.5 -62.5t-896 -62.5t-11270.5 62.5t896 62.5zM2.30187e+06 990648q-15488 0 -31104 -61.5t0 -61.5t31104 61.5t0 61.5zM2.3285e+06 990406q15238.5 0 26253 -62t13070 -62t-26253 62t-13070 62
zM2.35211e+06 990159q-4986 0 6284 -47.5t17548 -55t-6284 47.5t-17548 55zM2.3967e+06 989806q3462 -6.5 5387.5 -50t-2165 -50t-5387.5 50t2165 50zM2.38177e+06 989676q-4858.5 -7.5 -12277 -98t1035 -96.5t14731 -67.5t6794.5 -69t-2454 165.5t-7829.5 165.5z
M2.38542e+06 989160q-5371 -6 -14966 -50.5t-19958 -50.5t14966 50.5t19958 50.5zM2.38571e+06 988999q15109 -6 30090 -27t26890 -27t-30090 27t-26890 27zM2.48905e+06 988907q11141 -6 21770 -13t20618 -14.5t-21770 13t-20618 14.5zM2.57088e+06 988716
q9732 -5.5 1160 -126t-8440.5 -128t-1160 126t8440.5 128zM2.57859e+06 988302q3075.5 -5.5 5898.5 -118t16394 -120t7946 -80.5t7818 -78.5t-13844.5 198.5t-24212 198.5zM2.60488e+06 987672q-13437 -7.5 -27002 -80t-27386 -78t27002 80t27386 78zM2.51582e+06 987282
q7303 -7.5 14602 -55.5t8070 -53.5t-14602 55.5t-8070 53.5zM2.53735e+06 987094q-3197.5 -5.5 -8443 -7t-14203 -9t5769.5 -46t16905.5 -43.5t2673.5 53t-2702.5 52.5zM2.57784e+06 986729q12674.5 -5 20741 -111.5t15877 -114t-20741 111.5t-15877 114z
M2.63123e+06 986432q770.5 -5 1413 -96t1156.5 -98.5t-1413 96t-1156.5 98.5zM2.62384e+06 986168q-1534 -5 -11260 -93t-25852 -93t11260 93t25852 93zM2.60747e+06 985856q8962 -5 17796 -51t17540 -51t-17796 51t-17540 51zM2.67635e+06 985654q7938 -5 14216.5 -48
t1544.5 -48t-14216.5 48t-1544.5 48zM2.69699e+06 985474q-2169.5 -4 -8056 -4t-8957 -3t8056 4t8957 3zM2.65899e+06 985250q-9977.5 -3 -18296 -107.5t-21752 -107.5t-21880 -77.5t-22136 -77.5t40176 185t43888 185zM2.53014e+06 984727q-13945.5 -3 -23032 -75.5
t7171 -79.5t32387 -43t30984 -39t4360 -32t-3197 -32t14472 -5t-3448 -4.5t-28187 155.5t-31510 155zM2.59894e+06 984198q6406.5 -2.5 -4600 -109t-6392 -113.5t4600 109t6392 113.5zM2.57465e+06 983926q4358.5 -2.5 -6904 -96.5t-7165.5 -96.5t6904 96.5t7165.5 96.5z
M2.54945e+06 983537q-10367 -7 -20990 -17.5t-22750.5 -13t20990 17.5t22750.5 13zM2.48091e+06 983384q-12415 -2.5 -2430 -60.5t19841.5 -60.5t2430 60.5t-19841.5 60.5zM2.50114e+06 983160q-2431.5 -2.5 -11775 -33.5t-18943 -33.5t11775 33.5t18943 33.5z
M2.42652e+06 983024q-11519.5 -6.5 -11391 -132t128.5 -127.5t11391 132t-128.5 127.5zM2.41475e+06 982530q-256 -2 -2560 -112t-4736 -112t2560 112t4736 112zM2.39721e+06 982118q-2688 -6.5 -5504 -121t12544 -116.5t5504 121t-12544 116.5zM2.4662e+06 981767
q15104 -2 11776 -24.5t11904 -29t-11776 24.5t-11904 29zM2.54749e+06 981492q12167.5 -1.5 7822 -121.5t13 -121.5t-7822 121.5t-13 121.5zM2.55958e+06 981010q-890 -6.5 -6004 -111t-1268 -106t6004 111t1268 106zM2.55847e+06 980560q-3832.5 -1.5 -17779 -76.5
t-17909 -76.5t17779 76.5t17909 76.5zM2.49606e+06 980256q-14074.5 -1.5 -18547 -74.5t-18675 -79.5t18547 74.5t18675 79.5zM2.41995e+06 979908q-15226.5 -1.5 -22515 -66t4493 -66t22515 66t-4493 66zM2.42896e+06 979642q2439.5 -6.5 12300.5 -96.5t9100.5 -91.5
t-12300.5 96.5t-9100.5 91.5zM2.46088e+06 979356q-5883 -1.5 8972.5 -29t19212.5 -29t-8972.5 29t-19212.5 29zM2.5248e+06 979244q9604.5 -1.5 20105 -19t19721 -19t-20105 19t-19721 19zM2.58256e+06 979170q-6908 -1.5 -15352 -17t-5624.5 -16.5t-11001 -119
t1162.5 -119t26353 136t4462 135.5zM2.54562e+06 978722q9091.5 -1 13703 -87t8711 -87t7942.5 -81t394 -81t10762 -80t10630 -80t-32407.5 248t-19735 248zM2.58921e+06 978062q11907 -6.5 -1402.5 -76t-22139 -70.5t1402.5 76t22139 70.5zM2.52741e+06 977828
q-9981.5 -1 4869 -42t19209.5 -42t4489.5 -41t1029 -41t-9358.5 83t-20238.5 83zM2.55893e+06 977581q258 -1 15752.5 -39t11144.5 -39t4740 -38.5t17668 -38.5t16900 -37t16516 -36.5t-37392.5 114.5t-45328.5 114zM2.67328e+06 977116q7302.5 -0.5 2696.5 -118t1796 -118
t-2696.5 118t-1796 118zM2.68457e+06 976646q-377.5 -0.5 -6648 -109t-10104 -109t6648 109t10104 109zM2.63903e+06 976244q-9854.5 -0.5 5379 -91.5t30339 -91.5t-5379 91.5t-30339 91.5zM2.73082e+06 975880q11009 -0.5 13191.5 -81.5t-14073 -81.5t-13191.5 81.5
t14073 81.5zM2.69589e+06 975666q384.5 -0.5 640.5 -24.5t-128 -24.5t-640.5 24.5t128 24.5zM2.68693e+06 975570q-3200 -0.5 7552 -22t7424 -22t-7552 22t-7424 22zM2.72738e+06 975516q9600 -6.5 6272 -64t7174.5 -57.5t-6272 64t-7174.5 57.5zM2.78987e+06 975155
q12678.5 0 25101 -116t24333 -122.5t-25101 116t-24333 122.5zM2.88541e+06 974798q10886.5 0 19213 -68.5t12558 -68.5t-19213 68.5t-12558 68.5zM2.91222e+06 974525q519.5 0 -4850.5 -67.5t-6132 -67.5t4850.5 67.5t6132 67.5zM2.89102e+06 974256q-3834 0 -15348 -61
t-23668 -61t15348 61t23668 61zM2.87008e+06 974019q6406 0 12429.5 -59.5t-6770.5 -66t-12429.5 59.5t6770.5 66zM2.85797e+06 973794q-12922 -6.5 -9716 -14.5t4875.5 -15.5t9716 14.5t-4875.5 15.5zM2.84675e+06 973545q-3706.5 -6 -7925 -114.5t-17525 -114.5
t7925 114.5t17525 114.5zM2.84654e+06 973216q7813.5 -6 15499 -30.5t11403 -30.5t-15499 30.5t-11403 30.5zM2.8951e+06 973100q10757.5 -6 13322.5 -19.5t2314 -19.5t-13322.5 19.5t-2314 19.5zM2.90564e+06 973034q-1787 -5.5 -7798 -117.5t-20598 -117.5t7798 117.5
t20598 117.5zM2.84116e+06 972568q10757 -5.5 19337.5 -114.5t19209 -114.5t-19337.5 114.5t-19209 114.5zM2.91647e+06 972130q7940.5 -5.5 12296.5 -38.5t520 -38.5t-12296.5 38.5t-520 38.5zM2.9101e+06 971994q-7164 -5.5 -14584 -7.5t-15736 -7t14584 7.5t15736 7z
M2.83589e+06 971720q-14844 -5 -10360 -112t7688 -112t10360 112t-7688 112zM2.83669e+06 971305q-5628.5 -5 -11513 -92.5t-19577 -92.5t11513 92.5t19577 92.5zM2.77476e+06 970991q15107.5 -5 24074.5 -64t-7285.5 -64t-24074.5 64t7285.5 64zM2.78901e+06 970736
q4227.5 -5 8199 -51.5t6279 -51.5t-8199 51.5t-6279 51.5zM2.82117e+06 970532q14339 -5 11014 -48.5t-7034 -48.5t-11014 48.5t7034 48.5zM2.80929e+06 970342q-4221 -5 -8698 -44t-9210 -44t8698 44t9210 44zM2.75875e+06 970167q-11261 -5 -23418 -43t-24694 -42
t23418 43t24694 42zM2.72935e+06 969885q11011 -4 18693.5 -4.5t901 -4t-18693.5 4.5t-901 4zM2.72771e+06 969824q4738.5 -3.5 -5115 -15.5t-22902.5 -15.5t5115 15.5t22902.5 15.5zM2.69267e+06 969760q4738.5 -7 9221 -60t7685 -56t-9221 60t-7685 56z
M2.71305e+06 969422q2 -7 -119.5 -59.5t-2935.5 -55.5t119.5 59.5t2935.5 55.5zM2.75506e+06 969091q15874 -3 31492 -78.5t30340 -78.5t-31492 78.5t-30340 78.5zM2.8658e+06 968778q9350.5 -3 4872.5 -77t3332 -77t-4872.5 77t-3332 77zM2.9046e+06 968472
q7426 -3 7939.5 -31.5t259 -35.5t-7939.5 31.5t-259 35.5zM2.89848e+06 968338q-6654.5 -3 -11261 -6t-16509 -6t11261 6t16509 6zM2.82195e+06 968316q-12542.5 -2.5 -27768 -118t-25208 -118t27768 118t25208 118zM2.79164e+06 967860q9089.5 -2.5 17672 -95.5
t-2808 -95.5t-17672 95.5t2808 95.5zM2.78565e+06 967544q-14079 -7 -26872.5 -15.5t-27256.5 -11t26872.5 15.5t27256.5 11zM2.69645e+06 967412q11393 -2.5 22535.5 -52t-3960.5 -52t-22535.5 52t3960.5 52zM2.72015e+06 967240q6657 -2.5 12418 -33t11394 -33t-12418 33
t-11394 33zM2.76598e+06 967138q5377 -2.5 7938 -5.5t4871.5 -5.5t-7938 5.5t-4871.5 5.5zM2.75103e+06 967116q385 -2.5 641.5 -4.5t-223 -4t-641.5 4.5t223 4zM2.75007e+06 966878q-639.5 -6.5 -1407 -128.5t-2047 -124t1407 128.5t2047 124zM2.73254e+06 966442
q14336.5 -2 28033 -67t14848.5 -67t-28033 67t-14848.5 67zM2.81216e+06 966195q11776 -2 23424 -37t21504 -37t-23424 37t-21504 37zM2.87309e+06 966048q-13312 -2 -3712 -36t19584 -36t3712 36t-19584 36zM2.92851e+06 965906q9600 -2 20102.5 -33t23309 -33t25357 -26.5
t24845 -31t-45459.5 59.5t-48154 64zM3.06951e+06 965555q11526.5 -2 22285 -25t18956.5 -24.5t-22285 25t-18956.5 24.5zM3.10911e+06 965258q-3960.5 -6.5 -12530.5 -111.5t-19956 -106.5t12530.5 111.5t19956 106.5zM3.05246e+06 964806q11783.5 -1.5 -626.5 -114
t-5876 -114t626.5 114t5876 114zM3.06582e+06 964392q1541.5 -6.5 -755 -102t13197 -97t755 102t-13197 97zM3.08213e+06 964034q14725.5 -6.5 30219 -101.5t23051 -96.5t-30219 101.5t-23051 96.5zM3.1495e+06 963678q-376.5 -6.5 9356.5 -101t8332.5 -96t-9356.5 101
t-8332.5 96zM3.18334e+06 963332q-1656.5 -1.5 4620.5 -64.5t-8179.5 -64.5t-4620.5 64.5t8179.5 64.5zM3.16035e+06 963084q-15992.5 -1.5 -12275.5 -29.5t12428.5 -34.5t12275.5 29.5t-12428.5 34.5zM3.17435e+06 962838q1029 -1.5 1932.5 -27.5t1676 -27.5t-7543 -26.5
t3465 -57.5t5610.5 54t-5141 85zM3.21294e+06 962406q4228 -6.5 264 -91.5t-8181 -86.5t-10741 -19.5t-13557 -24.5t10477 111t21738 111zM3.1531e+06 962006q-7289 -1.5 -14069 -18.5t-14965 -23.5t14069 18.5t14965 23.5zM3.09106e+06 961788q-10236 -1.5 -25208 -17.5
t-10616 -17t25208 17.5t10616 17zM3.05999e+06 961515q-5756.5 -1 -11765.5 -88.5t-19573.5 -88.5t11765.5 88.5t19573.5 88.5zM2.9671e+06 961163q-15996.5 -1 -9973.5 -81.5t22282.5 -81.5t9973.5 81.5t-22282.5 81.5zM3.01822e+06 960839q16131.5 -1 19082.5 -40
t18826.5 -40t-19082.5 40t-18826.5 40zM3.09199e+06 960680q15107.5 -0.5 15754.5 -119.5t14730 -119.5t-15754.5 119.5t-14730 119.5zM3.14284e+06 960204q13955 -0.5 9866 -92t9738 -92t-9866 92t-9738 92zM3.18128e+06 959838q13699 -0.5 9094 -84t-15990 -84t-9094 84
t15990 84zM3.1753e+06 959502q-12029 -0.5 -24698 -1t-1786 -1t24698 1t1786 1zM3.18096e+06 959500q6146.5 0 3081.5 -127.5t2313.5 -127.5t-3081.5 127.5t-2313.5 127.5zM3.18241e+06 958991q3970.5 0 -8955 -119t-8310.5 -119t8955 119t8310.5 119zM3.17501e+06 958516
q4226.5 0 7301 -118t3076.5 -118t-7301 118t-3076.5 118zM3.18221e+06 958045q-2686 0 -18684 -117t-252 -117t18684 117t252 117zM3.2164e+06 957691q12290 0 21508 -59.5t16771.5 -59.5t-21508 59.5t-16771.5 59.5zM3.24497e+06 957454q-7806.5 0 -19576 -115t-19704 -115
t19576 115t19704 115zM3.16564e+06 957105q-8062.5 0 -20349 -59t-24701 -59t20349 59t24701 59zM3.08911e+06 956884q11654.5 -7.5 1416 -118.5t-1021 -117.5t-1416 118.5t1021 117.5zM3.1178e+06 956602q2177 -6.5 -10750 -8t-29054 -7.5t10750 8t29054 7.5z
M3.09093e+06 956325q6529 -6 12930 -114t12674 -114t-12930 114t-12674 114zM3.14111e+06 956055q6017 -6 11906 -18t8322 -17.5t-11906 18t-8322 17.5zM3.16403e+06 955782q0.5 -5.5 -127 -116.5t-383 -118.5t127 116.5t383 118.5zM3.14715e+06 955398
q-15359.5 -5.5 -16255 -105t-14335 -107t16255 105t14335 107zM3.14203e+06 955080q12032 -5.5 -3200 -30.5t-5240.5 -30.5t7054 -15t4878 -17t3214 -41t-1011.5 -38.5t-7068 86.5t1374 86zM3.14558e+06 954686q12677.5 -7.5 12427 -24.5t-3445 -22t-12427 24.5t3445 22z
M3.14101e+06 954544q11909.5 -4.5 17035 -45.5t9099 -45.5t-17035 45.5t-9099 45.5zM3.17677e+06 954372q1541 -4.5 -758 -35t-7030 -37.5t-13430 -108t6794 -105t14188 143t236 142.5zM3.20192e+06 953889q5893 -4 7946 -15t2825.5 -14.5t-7946 15t-2825.5 14.5z
M3.19069e+06 953704q-8443.5 -3.5 -19319 -62t-22903 -65.5t19319 62t22903 65.5zM3.17908e+06 953428q11652.5 -3.5 19849 -39t11657 -39t-19849 39t-11657 39zM3.22122e+06 953308q2052 -3.5 264 -19.5t-4088 -19.5t-264 19.5t4088 19.5zM3.18388e+06 953232
q-12284 -3 -24824 -117.5t-25592 -121.5t24824 117.5t25592 121.5zM3.14871e+06 952872q7300 -3 8456 -117t2055.5 -117t-8456 117t-2055.5 117zM3.1554e+06 952438q-3452.5 -7 -12153 -53.5t-18937 -49.5t12153 53.5t18937 49.5zM3.16029e+06 952178
q15235.5 -2.5 27914.5 -92.5t-2677.5 -92.5t-27914.5 92.5t2677.5 92.5zM3.19527e+06 951810q7939.5 -2.5 15750.5 -19.5t5766 -24t-15750.5 19.5t-5766 24zM3.19222e+06 951756q-7677 -2.5 -17658 -6t2822 -6t17658 6t-2822 6zM3.22578e+06 951736q10243 -2.5 20229.5 -3.5
t5765 -3t-20229.5 3.5t-5765 3zM3.23169e+06 951600q-5629.5 -6.5 9733 -117.5t27525 -113t23940.5 -37.5t1156 -37.5t-33673.5 155t-28681 150.5zM3.2504e+06 951223q-11518 -2 -8060 -34.5t6019.5 -34.5t8060 34.5t-6019.5 34.5zM3.23199e+06 951086
q10753.5 -2 21251 -33.5t20739 -33.5t20355 -30.5t19080 -35t-41606 64t-39819 68.5zM3.2882e+06 950725q-7295 -2 -14846 -27t-16766 -27t-19070 -3.5t-19966.5 -3t-11135.5 -128t-11008 -133t45051.5 158.5t47740.5 163zM3.22421e+06 950188q12416 -1.5 24576 -114.5
t23680 -119.5t-24576 114.5t-23680 119.5zM3.31791e+06 949750q11136 -1.5 21504 -91t20480 -91t-21504 91t-20480 91zM3.40111e+06 949446q12160 -1.5 21504 -60.5t18592.5 -60.5t-21504 60.5t-18592.5 60.5zM3.46018e+06 949205q9984 -1 19328 -44t21382.5 -44t-19328 44
t-21382.5 44zM3.52434e+06 949092q-3961.5 -6.5 1165 -71t8845 -65t-1165 71t-8845 65zM3.5395e+06 948770q-5498 -0.5 -7538.5 -2t-9970.5 -2t7538.5 2t9970.5 2zM3.4872e+06 948764q-8698 0 -21620 -126.5t-370.5 -126.5t21620 126.5t370.5 126.5zM3.45103e+06 948278
q-122.5 0 -3445 -115.5t-14579 -115.5t3445 115.5t14579 115.5zM3.46068e+06 947975q12039.5 0 25101 -115t24077 -115t-25101 115t-24077 115zM3.5493e+06 947670q5637.5 0 10635 -37.5t8845 -37.5t-10635 37.5t-8845 37.5zM3.59774e+06 947365q3077.5 0 5003 -41
t3338.5 -47.5t-5003 41t-3338.5 47.5zM3.61161e+06 947162q8965 -6.5 5132.5 -56t5004.5 -56t-5132.5 56t-5004.5 56zM3.62958e+06 946940q8197 -6.5 1292.5 -53t1164.5 -53t-1292.5 53t-1164.5 53zM3.61695e+06 946730q-8824.5 -6.5 -3571.5 -49t21514 -49t3571.5 49
t-21514 49zM3.68586e+06 946554q3973 -6.5 13194 -23t14986 -24t-13194 23t-14986 24zM3.72508e+06 946276q1412.5 -6.5 -5620 -8.5t-5748 -9.5t5620 8.5t5748 9.5zM3.70132e+06 946030q900.5 -6 -7159 -131t-19063 -131t-23159 -123t3211.5 -123t30318 254t15851.5 254z
M3.68128e+06 945284q14596.5 -6 29065 -89t24841 -89t-29065 89t-24841 89zM3.76682e+06 944933q5127 -6 1163.5 -52.5t-375 -52.5t-1163.5 52.5t375 52.5zM3.778e+06 944766q1924 -6 8 -29.5t-4344 -31t-8 29.5t4344 31zM3.73963e+06 944536q-12412 -6 -25080 -21.5
t-25845 -23t25080 21.5t25845 23zM3.67503e+06 944323q15108 -6 30088 -18.5t25355 -18.5t-30088 18.5t-25355 18.5zM3.72972e+06 944262q7812 -5.5 14984 -125t8200 -125t-14984 125t-8200 125zM3.75471e+06 943774q-761 -5.5 -11381.5 -117t-13945 -117t11381.5 117
t13945 117zM3.69855e+06 943376q-9852.5 -5.5 -20213.5 -65.5t-24181.5 -65.5t20213.5 65.5t24181.5 65.5zM3.65764e+06 943174q-13948.5 -5.5 1415 -35.5t27911 -35.5t-1415 35.5t-27911 35.5zM3.70093e+06 943062q-15484.5 -5.5 -7417 -19.5t15750.5 -21.5t7417 19.5
t-15750.5 21.5zM3.70506e+06 942924q-7549 -5.5 -17658 -15.5t2438 -15t17658 15.5t-2438 15zM3.73247e+06 942630q9858.5 -5 5513.5 -127t1417.5 -127t-5513.5 127t-1417.5 127zM3.72943e+06 942124q-5753 -5 -2806.5 -109.5t18437 -109.5t2806.5 109.5t-18437 109.5z
M3.79653e+06 941753q11906.5 -5 23557 -70t13828.5 -70t-23557 70t-13828.5 70zM3.80333e+06 941519q-11006 -5 -22140 -38.5t-22780 -38t22140 38.5t22780 38zM3.72016e+06 941350q-3070 -4.5 11780 -40t19592.5 -40t-11780 40t-19592.5 40zM3.74988e+06 941200
q3586 -4.5 6276 -21.5t5128.5 -21t-6276 21.5t-5128.5 21zM3.74785e+06 940923q-3582.5 -4 -18557 -116t-30077 -116t18557 116t30077 116zM3.71574e+06 940483q10369.5 -4 20355 -103t18819 -103t-20355 103t-18819 103zM3.77373e+06 940078q-7423 -4 -17662.5 -91.5
t-11391 -91.5t17662.5 91.5t11391 91.5zM3.70231e+06 939747q-13823.5 -4 -27775 -21.5t257 -21.5t27775 21.5t-257 21.5zM3.73112e+06 939671q13952.5 -4 27777 -15.5t27393 -15t-27777 15.5t-27393 15zM3.8028e+06 939422q896.5 -3.5 1665 -108.5t1408.5 -108.5
t-1665 108.5t-1408.5 108.5zM3.84555e+06 939048q12928 -3.5 25728 -68.5t25472 -68.5t-25728 68.5t-25472 68.5zM3.9468e+06 938786q12288 -3.5 23552 -38.5t22272 -42t-23552 38.5t-22272 42zM4.03614e+06 938566q10752 -3.5 21376 -22t21120 -22t-21376 22t-21120 22z
M4.0972e+06 938482q-12416 -3.5 -3193.5 -19t19085 -19t3193.5 19t-19085 19zM4.14563e+06 938420q4998.5 -3.5 8845 -5.5t4876.5 -9t-8845 5.5t-4876.5 9zM4.15912e+06 938283q-506 -3 -2292 -118t-3956 -118t2292 118t3956 118zM4.13792e+06 937814q-4346 -3 -9204 -115.5
t-10228 -115.5t9204 115.5t10228 115.5zM4.09342e+06 937354q-7930 -3 -16116 -113.5t-17780 -113.5t16116 113.5t17780 113.5zM4.03997e+06 936902q16134 -3 26892 -98.5t20748 -98.5t-26892 98.5t-20748 98.5zM4.12565e+06 936531q9094 -3 17548 -83.5t11019.5 -83.5
t-17548 83.5t-11019.5 83.5zM4.15309e+06 936196q-1402.5 -7 -7283 -46.5t-20723 -42.5t7283 46.5t20723 42.5zM4.08952e+06 936015q-8186.5 -3 -17653 -33t1421 -32.5t17653 33t-1421 32.5zM4.11837e+06 935742q9093.5 -2.5 16011 -93t12429 -97.5t-16011 93t-12429 97.5z
M4.18024e+06 935504q5381.5 -2.5 8330.5 -92t-1011.5 -92t-8330.5 92t1011.5 92zM4.19539e+06 935157q-5627 -7 -12662 -9.5t-14323.5 -5t12662 9.5t14323.5 5zM4.1642e+06 935100q-11003 -2.5 -22390 -20t-23414 -20t22390 20t23414 20zM4.14888e+06 935030
q10245 -2.5 19082 -3t17290 -7.5t-19082 3t-17290 7.5zM4.21292e+06 935011q3333 -2 10764.5 -129.5t9228 -134t-10764.5 129.5t-9228 134zM4.2163e+06 934505q-7416.5 -2 -6260 -64.5t-6391 -64.5t6260 64.5t6391 64.5zM4.17077e+06 934248q-8955.5 -2 -18423 -63
t-19188 -63t-9716 -59.5t-9844.5 -59.5t28139 122.5t29032.5 122.5zM4.09339e+06 933902q-10107.5 -2 -20855 -38.5t3593 -43t20855 38.5t-3593 43zM4.11801e+06 933591q7044.5 -2 13963.5 -32.5t3467.5 -32.5t-13963.5 32.5t-3467.5 32.5zM4.15005e+06 933462
q5252 -2 -2296 -31t-15352 -31t-15736 -4t-16632 -3.5t18032 35t31984 34.5zM4.0523e+06 933136q-15996 -1.5 -1144 -115t26632 -120t1144 115t-26632 120zM4.12286e+06 932688q11012 -1.5 19464 -111.5t16136 -111.5t-19464 111.5t-16136 111.5zM4.17899e+06 932300
q2080.5 -1.5 1956 -82t-6521 -82t-1956 82t6521 82zM4.14167e+06 931974q-9724.5 -1.5 4615 -70t28423 -75t-4615 70t-28423 75zM4.21031e+06 931644q-2553 -1.5 8586 -47.5t27402 -47.5t-8586 47.5t-27402 47.5zM4.30008e+06 931474q15751 -1.5 23178 -35t8453.5 -40
t-23178 35t-8453.5 40zM4.33108e+06 931224q-6526 -1.5 -1404 -10.5t9988 -15.5t1404 10.5t-9988 15.5zM4.35656e+06 931045q2818 -1 5123.5 -79t10370.5 -84.5t-5123.5 79t-10370.5 84.5zM4.37769e+06 930731q14465 -1 5505 -66.5t-19072 -66.5t-5505 66.5t19072 66.5z
M4.36349e+06 930507q-8960 -1 3206.5 -44.5t21901 -50t-3206.5 44.5t-21901 50zM4.41665e+06 930267q903.5 -1 -4338.5 -27.5t-5492 -27.5t4338.5 27.5t5492 27.5zM4.40339e+06 930158q-1912.5 -1 -7922.5 -23.5t-10098.5 -23.5t7922.5 23.5t10098.5 23.5z
M4.36402e+06 930065q-4728.5 -1 -11250.5 -22.5t-11762.5 -22.5t11250.5 22.5t11762.5 22.5zM4.31672e+06 929976q-5752.5 -1 -13170.5 -11t-15218.5 -11t13170.5 11t15218.5 11zM4.25738e+06 929928q-8058 -6.5 -17778.5 -75t-19186.5 -69.5t17778.5 75t19186.5 69.5z
M4.2326e+06 929779q-10874 -1 13.5 -2t-370.5 -1.5t-13.5 2t370.5 1.5zM4.22971e+06 929522q-11514 -0.5 -1908 -126t18573.5 -126t1908 126t-18573.5 126zM4.24038e+06 928988q8583.5 -32.5 -4466.5 -160t-10356.5 -128t1419 -123.5t-2803 -123.5t3047.5 283.5
t13159.5 251.5zM4.18772e+06 928302q-5754.5 -0.5 -12149 -56.5t-13555 -56.5t12149 56.5t13555 56.5zM4.11558e+06 928080q-8056.5 -0.5 -24051 -5t-25333 -4.5t24051 5t25333 4.5zM4.09476e+06 927978q8965.5 0 15755 -46t12042.5 -46t266 -45.5t-10742 -45.5t-16021 91.5
t-1300.5 91.5zM4.08215e+06 927718q-11128.5 0 -4211.5 -38t-4342 -38t4211.5 38t4342 38zM4.02562e+06 927490q-12411 0 -25974 -37.5t-502 -37.5t25974 37.5t502 37.5zM4.03629e+06 927337q3845 0 12810 -39t17290 -39t-12810 39t-17290 39zM4.09764e+06 927184
q7301 0 9738 -41t2441.5 -47.5t-9738 41t-2441.5 47.5zM4.10957e+06 952702l-9 25101l-246 24589l-9 23565zM4.10908e+06 1.04901e+06l-9 21517l-226 16396l-9 -5876zM4.10862e+06 1.07313e+06l-9 -17140l-196 -22772l-15 -24564zM4.1084e+06 1.03222e+06l-9 -24820
l-187 13068l-15 11788zM4.10818e+06 1.03534e+06l-9 -4593l-183 30987l-15 -26353zM4.10797e+06 1.06483e+06l-9 30987l-181 15115l-9 6922zM4.1076e+06 1.1171e+06l-9 19466l-176 -2801l-14 19210zM4.10714e+06 1.14966e+06l-9 12554l-173 -28913l-9 11018l-134 -31985
l-9 7434zM4.10673e+06 1.13719e+06l-14 4106l-230 2058l-9 1807zM4.10642e+06 1.14671e+06l-9 -16631l-53 23561l-9 23049zM4.1063e+06 1.18514e+06l-8 -7928l-193 -8434l-8 -13048zM4.10591e+06 1.14167e+06l-14 -13304l-201 -14578l-8 -13560zM4.1055e+06 1.08386e+06
l-14 -14584l-198 -20472l-8 -29944zM4.1051e+06 1.02757e+06l-8 6151l-165 -11513l-8 -12018l-147 -27129l-8 -31986zM4.10462e+06 919079l-8 12046l-141 32519l-8 6414zM4.10434e+06 1.00232e+06l-14 5902l-196 31751l-8 4878zM4.10398e+06 1.07507e+06l-8 1294l-119 28166
l-8 -7666zM4.10376e+06 1.12477e+06l-8 -8178l-91 27654l-14 -8690zM4.10346e+06 1.16296e+06l-8 -9210l-88 -22770l-8 24326zM4.10327e+06 1.13124e+06l-14 -25338l-183 21766l-8 15118zM4.103e+06 1.15508e+06l-8 -6130l-54 10757l-14 -13298zM4.10274e+06 1.15435e+06
l-8 -25851l-43 9230l-14 1029zM4.1025e+06 1.14721e+06l-8 6149l-17 4l-7 -499zM4.10223e+06 1.1475e+06l-7 -31996l-205 31492l-14 25092zM4.10184e+06 1.19666e+06l-7 18436l-192 15107l-7 -9459zM4.10147e+06 1.20513e+06l-14 -23539l-153 -15869l-7 -24051z
M4.10116e+06 1.12555e+06l-7 -24573l-123 -24829l-7 -30717zM4.10091e+06 1.06874e+06l-7 -20477l-109 18435l-14 16899zM4.10064e+06 1.08795e+06l-7 -25854l-95 -32254l-6 22530zM4.10028e+06 1.06543e+06l-6 12802l-249 12546l-6 12290zM4.09978e+06 1.1151e+06l-6 11778
l-199 4866l-14 258zM4.09946e+06 1.13201e+06l-6 -255l-172 -511l-6 -755zM4.09916e+06 1.09977e+06l-6 -1791l-122 -26879l-6 26880zM4.0989e+06 1.12204e+06l-6 -30464l-93 19983l-6 -5875zM4.0987e+06 1.12132e+06l-6 -9203l-7 7180l-14 -18420l-53 25355l-5 -501z
M4.09838e+06 1.11934e+06l-5 -22261l-199 23819l-5 10251zM4.09797e+06 1.13909e+06l-5 4107l-136 3082l-5 -4598zM4.09769e+06 1.13222e+06l-5 -17398l-48 30986l-5 18186zM4.09761e+06 1.17578e+06l-5 4106l-16 1545l-4 -14327zM4.09738e+06 1.15022e+06l-4 -21751
l-202 -24055l-4 30985zM4.09699e+06 1.1587e+06l-4 16393l-177 6921l-4 5129zM4.09668e+06 1.19125e+06l-4 -3576l-41 -4600l-4 -18936zM4.09659e+06 1.13957e+06l-4 -25080l-35 -26104l-4 21000zM4.09653e+06 1.12399e+06l-3 2312l-243 1799l-3 -1273z
M4.09621e+06 1.11992e+06l-3 -17401l-62 -20473l-2 30983zM4.09591e+06 1.1435e+06l-2 25358l-189 -30713l-2 17159zM4.09553e+06 1.17118e+06l-2 15622l-185 -4090l-2 -14842zM4.09516e+06 1.15252e+06v-19962l-181 25606v25350zM4.0948e+06 1.204e+06v19973l-165 -8443
v-10235zM4.09446e+06 1.19403e+06l-11 30725l-201 24325l-15 23556zM4.09412e+06 1.2514e+06l-11 -21500l-114 -23036l-10 6916zM4.09376e+06 1.2189e+06l-10 -29693l-206 21507l-10 20995zM4.09338e+06 1.25219e+06l-10 20227l-151 17933l-10 -26878z
M4.0931e+06 1.24888e+06l-10 -15102l-73 -18430l-10 -19710zM4.09299e+06 1.17542e+06l-10 -2048l-20 -19968l-10 26368zM4.09294e+06 1.2046e+06l-10 24320l-1 23040l-9 22784zM4.09266e+06 1.29702e+06l-9 20736l-247 20224l-9 18944zM4.09216e+06 1.38124e+06l-9 18688
l-227 18432l-14 19968zM4.09167e+06 1.45708e+06l-9 -256l-135 24077l-9 15375zM4.09149e+06 1.48836e+06l-9 10253l-13 7437l-9 6927zM4.09145e+06 1.50198e+06l-8 -4081l-243 -15860l-8 -18161zM4.09097e+06 1.44648e+06l-8 -25844l-196 25103l-8 -26613z
M4.09057e+06 1.41888e+06l-8 -6645l-173 -22513l-8 26891zM4.09023e+06 1.44069e+06l-8 26123l-144 22031l-8 22795zM4.08993e+06 1.52292e+06l-8 9995l-134 7695l-8 22027zM4.08966e+06 1.56879e+06l-14 3851l-188 2826l-8 -4849zM4.08936e+06 1.58855e+06l-8 -7665
l-55 17674l-14 -9201zM4.0891e+06 1.60575e+06l-7 -13809l-237 16138l-7 -14326zM4.08863e+06 1.5761e+06l-7 10506l-225 32522l-7 30735zM4.08819e+06 1.65781e+06l-7 18442l-189 11530l-7 3855zM4.0878e+06 1.69446e+06l-7 -14065l-164 2569l-7 -14577z
M4.08746e+06 1.67019e+06l-7 -16119l-138 -22007l-7 -24311zM4.08719e+06 1.63849e+06l-7 -3831l-80 29193l-14 28937zM4.08695e+06 1.71353e+06l-7 16137l-69 10254l-6 -7927zM4.08662e+06 1.73917e+06l-6 4873l-247 3848l-6 -3832zM4.08611e+06 1.73921e+06l-6 -19192
l-241 -24824l-6 -25336zM4.08566e+06 1.6435e+06l-6 -15608l-202 30216l-6 29960zM4.08524e+06 1.70882e+06l-6 -18936l-183 15624l-6 14344zM4.08486e+06 1.72191e+06l-6 1543l-175 -1522l-6 -21241zM4.08451e+06 1.69404e+06l-65 -17657l-255 -19705l-6 -20722z
M4.08404e+06 1.60831e+06l-6 31246l-136 -27897l-6 30727zM4.08376e+06 1.66748e+06l-6 16910l-131 -30969l-6 16135zM4.0835e+06 1.68492e+06l-6 -4346l-95 -15098l-6 -20218zM4.0833e+06 1.67036e+06l-14 20230l-80 19717l-6 -8690zM4.08311e+06 1.71314e+06l-6 -9979
l-73 -11506l-6 5893zM4.08295e+06 1.72853e+06l-6 24069l-56 23813l-14 23301zM4.08282e+06 1.80407e+06l-6 -21756l-10 -22012l-6 -22268zM4.08279e+06 1.71474e+06l-5 -23539l-254 -6140l-5 29700zM4.08229e+06 1.72424e+06l-5 -9980l-235 7172l-14 5380z
M4.08199e+06 1.73169e+06l-5 -12285l-200 -7165l-5 -29949zM4.08158e+06 1.65209e+06l-5 21251l-182 20739l-5 19971zM4.08122e+06 1.73172e+06l-5 17410l-168 -14846l-14 -20479zM4.081e+06 1.7115e+06l-5 -27391l-137 -27647l-14 -27903zM4.08082e+06 1.65698e+06
l-5 28161l-135 27905l-5 27649zM4.08059e+06 1.76783e+06l-5 2049l-70 1793l-5 1537zM4.08044e+06 1.77449e+06l-5 26112l-49 25856l-13 25600zM4.08012e+06 1.8774e+06l-4 25088l-245 24576l-4 22528zM4.07964e+06 1.97161e+06l-4 21760l-222 21504l-4 21248z
M4.07921e+06 2.05711e+06l-4 20480l-200 -24832l-4 18445zM4.0788e+06 2.09093e+06l-4 17677l-196 9997l-4 7693zM4.07842e+06 2.12836e+06l-4 -756l-178 -1012l-4 -3572zM4.07809e+06 2.11868e+06l-4 -8436l-133 -8692l-4 -9716zM4.07784e+06 2.08109e+06l-4 -11764
l-111 -15860l-4 -16372zM4.07762e+06 2.01791e+06l-4 -26100l-77 32268l-4 21516zM4.07746e+06 2.06557e+06l-4 18956l-42 18188l-4 16908zM4.0774e+06 2.12476e+06l-3 -2293l-244 -2805l-3 -11761zM4.07691e+06 2.07821e+06l-3 -12533l-217 -16373l-3 -18933z
M4.07662e+06 2.05215e+06l-3 25099l-15 18187l-2 13835zM4.07636e+06 2.12029e+06l-2 22539l-240 10763l-2 5898zM4.07593e+06 2.15157e+06l-2 17418l-153 -11254l-1 -14070zM4.07574e+06 2.12909e+06v14090l-193 -22006v-22774zM4.07536e+06 2.07434e+06v32266l-180 20490
v17674zM4.07506e+06 2.16168e+06v15887l-67 6666v14863zM4.07481e+06 2.20269e+06v-10999l-177 -14833v2313zM4.07456e+06 2.16407e+06v-16375l-94 -17911l-11 -18935zM4.07422e+06 2.09141e+06l-11 9l-176 -19698l-11 -247zM4.07387e+06 2.05126e+06l-11 -21495l-148 28681
l-11 20489zM4.07356e+06 2.09302e+06l-11 13838l-134 -6903l-10 12809zM4.07317e+06 2.12327e+06l-10 -15096l-233 -15352l-10 -15608zM4.07273e+06 2.06135e+06l-15 -17400l-32 -23032l-10 -31992zM4.0726e+06 2.01863e+06l-10 23560l-39 22280l-10 22024z
M4.07252e+06 2.1034e+06l-10 15368l-9 10760l-9 4103zM4.07235e+06 2.1209e+06l-9 -249l-104 -16633l-9 -19449zM4.07213e+06 2.11324e+06l-14 28167l-226 24070l-9 -5106zM4.07185e+06 2.18265e+06l-14 32526l-222 21766l-9 31502zM4.07159e+06 2.2833e+06l-14 2053
l-220 4868l-9 -13052zM4.07134e+06 2.28742e+06l-14 9732l-215 9220l-8 5636zM4.07086e+06 2.31661e+06l-14 16130l-210 -16896l-8 29186zM4.0704e+06 2.32711e+06l-8 -20224l-177 18434l-8 -17920zM4.07004e+06 2.33174e+06l-8 19469l-58 17421l-14 1807z
M4.06979e+06 2.35995e+06l-7 -500l-228 -1268l-7 -3825zM4.06932e+06 2.34234e+06l-7 -8177l-197 -12532l-14 -9457zM4.06894e+06 2.29913e+06l-7 -10481l-190 -13300l-14 -11505zM4.06856e+06 2.249e+06l-7 -15601l-184 -15092l-7 -16116zM4.06821e+06 2.18276e+06
l-14 -18932l-140 32527l-7 -21748zM4.06797e+06 2.19638e+06l-7 -22516l-68 20239l-7 -23028zM4.06789e+06 2.19028e+06l-7 17935v-23540l-14 17167zM4.06775e+06 2.17575e+06l-6 5387l-248 -2549l-14 -3057zM4.06737e+06 2.14635e+06l-6 -11509l-244 -12789l-14 -14321z
M4.06699e+06 2.07651e+06l-6 -16113l-242 -31989l-6 -18677zM4.06653e+06 2.03867e+06l-6 17931l-201 13579l-14 10506zM4.06621e+06 2.07072e+06l-6 -11510l-184 -13046l-6 -22257zM4.06583e+06 2.03774e+06l-6 -22518l-179 -24310l-14 -24822zM4.06553e+06 1.93896e+06
l-6 26122l-176 20239l-6 7690zM4.06517e+06 2.01094e+06l-6 16650l-169 15626l-14 14602zM4.06489e+06 2.06269e+06l-6 9l-138 -1015l-6 -2551zM4.06461e+06 2.05351e+06l-14 -7671l-90 -11255l-6 -15345zM4.06436e+06 2.02028e+06l-14 -17649l-89 521l-6 -18673z
M4.06412e+06 1.98474e+06l-14 -19191l-78 -19959l-6 -20466zM4.06395e+06 1.92436e+06l-14 -21239l-77 -31223l-6 20238zM4.06378e+06 1.88549e+06l-6 14345l-55 13577l-6 12552zM4.06371e+06 1.90985e+06l-5 -17650l-255 -14072l-5 -17906zM4.0632e+06 1.84538e+06
l-5 -20984l-241 -23288l-14 -27896zM4.06289e+06 1.74429e+06l-5 -29432l-236 -31474l-5 -15352zM4.06245e+06 1.6363e+06l-14 30472l-38 23816l-5 23310zM4.06221e+06 1.69598e+06l-5 22536l-176 21774l-14 -18680zM4.06198e+06 1.73877e+06l-5 13838l-169 -19704l-5 11022
zM4.06172e+06 1.72371e+06l-14 4359l-10 -5113l-5 -7673zM4.06162e+06 1.70224e+06l-5 -23033l-68 -16377l-4 -24050zM4.0613e+06 1.61242e+06l-4 -29945l-224 31495l-13 28423zM4.06081e+06 1.67032e+06l-4 -28409l-223 24326l-13 -1530zM4.06032e+06 1.66292e+06l-4 -5370
l-201 -14586l-13 -18930zM4.05986e+06 1.64912e+06l-4 -21498l-199 32262l-13 31238zM4.05939e+06 1.72185e+06l-4 23814l-197 23302l-4 1806zM4.059e+06 1.78435e+06l-13 -3067l-238 -14587l-4 -15099zM4.05861e+06 1.72088e+06l-13 -31227l-231 12293l-4 4613z
M4.05825e+06 1.71066e+06l-13 -13308l-230 -13820l-4 -18684zM4.05789e+06 1.64463e+06l-4 -31740l-101 10500l-4 9988zM4.0577e+06 1.64234e+06l-4 4355l-74 -3325l-13 16387zM4.0574e+06 1.67563e+06l-4 -3838l-6 -17150l-3 -17662zM4.05714e+06 1.6188e+06l-13 -19968
l-203 -19200l-3 -19712zM4.05671e+06 1.53714e+06l-3 -20213l-99 -14065l-3 28939zM4.05658e+06 1.561e+06l-13 -9718l-166 -12790l-3 -24566zM4.05638e+06 1.51377e+06l-13 -10l-157 -103l-2 -10zM4.05597e+06 1.51358e+06l-13 -10l-145 -24l-2 -10z
M4.05565e+06 1.51351e+06v-10l-192 -10v-10zM4.05534e+06 1.51348e+06v-9l-183 -253l-15 -9zM4.05499e+06 1.51296e+06l-11 -9l-237 -235l-11 -9zM4.05456e+06 1.51248e+06l-11 -14l-161 -246l-11 -9zM4.05422e+06 1.51208e+06l-11 -9l-139 -29l-11 -9z
M4.05393e+06 1.51202e+06l-10 -9l-236 -3l-10 -8zM4.05344e+06 1.51176e+06l-10 -8l-184 -227l-10 -8zM4.0532e+06 1.51133e+06l-15 -8l-19 -173l-10 -8zM4.05312e+06 1.51099e+06l-9 -8l-249 -144l-9 -8zM4.05261e+06 1.51069e+06l-9 -8l-145 -134l-9 -8z
M4.0523e+06 1.51042e+06l-14 -14l-238 -188l-9 -8zM4.05194e+06 1.51011e+06l-9 -8l-96 -55l-8 -14zM4.05165e+06 1.50986e+06l-8 -7l-172 -237l-14 -7zM4.05127e+06 1.50938e+06l-8 -7l-59 -225l-7 -7zM4.05105e+06 1.50895e+06l-7 -7l-3 -189l-7 -7z
M4.05103e+06 1.50856e+06l-14 -7l-117 -164l-6 -7zM4.05064e+06 1.50822e+06l-6 -7l-180 -138l-6 -7zM4.05027e+06 1.50794e+06l-6 -7l-170 -80l-14 -14zM4.05001e+06 1.50771e+06l-6 -7l-52 -69l-14 -6zM4.04987e+06 1.50737e+06l-6 -6l-44 -247l-14 -6z
M4.04974e+06 1.50687e+06l-6 -6l-42 -241l-14 -6zM4.04961e+06 1.50641e+06l-6 -6l-40 -202l-5 -6zM4.04931e+06 1.506e+06l-5 -6l-242 -183l-5 -6zM4.04887e+06 1.50562e+06l-14 -6l-22 -175l-5 -6zM4.04871e+06 1.50526e+06l-4 -65l-186 -255l-4 -6z
M4.04836e+06 1.5048e+06l-4 -6l-145 -136l-4 -6zM4.0482e+06 1.50452e+06l-3 -6l-212 -131l-3 -6zM4.04778e+06 1.50426e+06l-3 -6l-98 -95l-3 -6zM4.04765e+06 1.50406e+06l-2 -14l-210 -80l-2 -6zM4.04734e+06 1.50386e+06l-1 -6l-196 -73l-1 -6zM4.04695e+06 1.50371e+06
l-1 -6l-37 -56l-1 -14zM4.04688e+06 1.50357e+06v-6l-202 -10v-6zM4.04648e+06 1.50355e+06l-65 -5l-255 -254v-5zM4.0461e+06 1.50304e+06v1515l-62 3624v1480zM4.04597e+06 1.51114e+06v1462l-61 1457v1448zM4.04573e+06 1.51912e+06v1417l-65 3610v1415z
M4.04557e+06 1.52692e+06l-12 1350l-152 1349l-12 1329zM4.04526e+06 1.53453e+06l-12 1269l-64 1249l-12 1246zM4.04512e+06 1.53952e+06l-11 1224l-228 1222l-11 1220zM4.04472e+06 1.5444e+06l-11 1202l-136 1162l-11 1157zM4.04454e+06 1.54906e+06l-15 1135l-50 1126
l-10 1101l-147 1099l-15 1066zM4.04426e+06 1.55561e+06l-10 1012l-129 1010l-10 985zM4.04408e+06 1.55945e+06l-9 783l-248 754l-9 752zM4.04357e+06 1.56244e+06l-14 665l-248 291l-9 193zM4.04316e+06 1.56377e+06l-9 180l-88 123l-9 67zM4.04297e+06 1.56432e+06
l-9 177l-69 67l-8 94zM4.04265e+06 1.56772e+06l-8 2992l-105 2976l-8 2964zM4.0425e+06 1.5796e+06l-8 2950l-28 2795l-7 2793zM4.0422e+06 1.59088e+06l-7 3872l-160 2634l-7 2599zM4.04198e+06 1.60257e+06l-7 2569l-40 2448l-7 2408zM4.04189e+06 1.61239e+06l-7 3810
l-26 2334l-6 3806zM4.0416e+06 1.62466e+06l-6 3804l-252 2308l-6 3799zM4.04114e+06 1.63686e+06l-6 3794l-153 2276l-6 2225zM4.04086e+06 1.64738e+06l-6 2106l-105 3756l-6 2020zM4.04069e+06 1.65725e+06l-6 3749l-51 1982l-6 3748zM4.04058e+06 1.6687e+06l-6 1942
l-43 3724l-6 1873zM4.04048e+06 1.6781e+06l-6 1794l-39 1792l-6 1788zM4.0404e+06 1.68718e+06l-6 1784l-29 3699l-6 1780zM4.04033e+06 1.69814e+06l-6 1778l-25 1741l-5 1737zM4.04013e+06 1.70708e+06l-5 1720l-118 1715l-5 3683zM4.03997e+06 1.71591e+06l-4 1709
l-238 1705l-4 3675zM4.03949e+06 1.72467e+06l-4 1671l-212 3674l-4 1670zM4.03906e+06 1.73536e+06l-4 1668l-150 3662l-4 1610zM4.03876e+06 1.74596e+06l-4 1608l-146 1591l-4 1585zM4.03846e+06 1.75229e+06l-4 1535l-119 1525l-4 1521zM4.03832e+06 1.7605e+06l-4 1516
l-7 1471l-4 3622zM4.0383e+06 1.76858e+06l-3 1456l-255 3619l-3 1449zM4.03783e+06 1.77646e+06l-3 3594l-211 1351l-3 1348zM4.0374e+06 1.78402e+06l-3 1248l-207 3577l-3 1247zM4.037e+06 1.79367e+06l-3 1225l-190 3575l-3 1223zM4.03671e+06 1.80327e+06l-3 1221
l-19 1209l-2 1172zM4.03647e+06 1.81044e+06l-2 1163l-94 3559l-1 1138zM4.03618e+06 1.81985e+06l-1 1136l-197 1125l-1 1100zM4.03584e+06 1.82431e+06l-1 1031l-140 3543l-1 1030zM4.03556e+06 1.83092e+06l-1 3531l-134 986l-1 867zM4.03529e+06 1.8371e+06l-1 3494
l-132 784l-1 3485zM4.03512e+06 1.84562e+06v3473l-203 666v192zM4.03472e+06 1.85007e+06v183l-198 3989v3053zM4.03433e+06 1.86029e+06v2977l-185 2965v2955zM4.03408e+06 1.87214e+06v2796l-63 2794v2744zM4.03393e+06 1.88307e+06v3859l-61 2596l-12 2553l-153 2543
l-12 2449zM4.03356e+06 1.89952e+06l-12 3822l-65 2409l-12 2400zM4.03341e+06 1.91054e+06l-11 2391l-229 2374l-11 2226zM4.033e+06 1.91975e+06l-11 3765l-145 2107l-11 2077zM4.0327e+06 1.92975e+06l-11 1943l-26 1841l-10 1831zM4.0325e+06 1.93718e+06l-10 1795
l-128 1793l-9 3701zM4.03227e+06 1.94626e+06l-9 3686l-87 1725l-9 1716zM4.03209e+06 1.9551e+06l-8 1706l-234 1590l-8 3655zM4.03168e+06 1.96364e+06l-8 3653l-115 1580l-14 3652zM4.03134e+06 1.9741e+06l-8 3651l-106 1576l-14 1568zM4.03103e+06 1.98246e+06l-8 1564
l-80 1562l-8 1526zM4.03091e+06 1.98863e+06l-8 1472l-29 3620l-7 16895zM4.03061e+06 2.01207e+06l-7 3606l-232 1399l-7 1261zM4.0302e+06 2.01958e+06l-7 1235l-93 1210l-7 1173zM4.03001e+06 2.02436e+06l-7 1169l-54 1144l-7 1032zM4.02989e+06 2.02874e+06l-7 1024
l-49 980l-7 976zM4.02978e+06 2.03268e+06l-7 959l-39 868l-7 866zM4.0297e+06 2.03616e+06l-6 788l-253 722l-14 607zM4.02932e+06 2.03873e+06l-6 451l-234 293l-14 290zM4.02896e+06 2.03996e+06l-6 201l-189 191l-6 184zM4.0286e+06 2.04061e+06l-6 65l-154 93l-14 64z
M4.02834e+06 2.04089e+06l-6 183l-119 64l-6 95zM4.0281e+06 2.04446e+06l-6 3200l-109 3136l-6 3130zM4.02787e+06 2.05696e+06l-6 2960l-103 2952l-6 2841zM4.0277e+06 2.06961e+06l-6 2707l-50 3882l-6 2689zM4.0276e+06 2.08148e+06l-6 2552l-30 2542l-6 3832z
M4.02754e+06 2.09285e+06l-6 2392l-26 2390l-5 2373zM4.02725e+06 2.10229e+06l-5 2153l-210 2078l-14 2076zM4.02698e+06 2.11064e+06l-5 1952l-171 1840l-5 1832zM4.02677e+06 2.1181e+06l-4 1818l-253 1790l-4 1724zM4.02626e+06 2.12512e+06l-4 1654l-239 1641l-4 1589z
M4.02578e+06 2.13159e+06l-4 1579l-213 1577l-4 1575z" />
    </font>
</defs>
</svg>
