<?xml version="1.0" encoding="UTF-8"?>
<svg width="112px" height="106px" viewBox="0 0 112 106" version="1.1" xmlns="http://www.w3.org/2000/svg" xmlns:xlink="http://www.w3.org/1999/xlink">
    <!-- Generator: sketchtool 52.6 (67491) - http://www.bohemiancoding.com/sketch -->
    <title>3218F346-D7E0-4CE0-B55B-B5AA744EB91B</title>
    <desc>Created with sketchtool.</desc>
    <defs>
        <polygon id="path-1" points="0.87632458 0.877749932 51.5936551 0.877749932 51.5936551 51.5805355 0.87632458 51.5805355"></polygon>
        <polygon id="path-3" points="0.00013666639 0.0667897075 17.086669 0.0667897075 17.086669 17.1514354 0.00013666639 17.1514354"></polygon>
        <polygon id="path-5" points="0 0.206392784 38.1014679 0.206392784 38.1014679 9.64816394 0 9.64816394"></polygon>
    </defs>
    <g id="flow-20.3.19" stroke="none" stroke-width="1" fill="none" fill-rule="evenodd">
        <g id="CHB---ISRAEL---process-2---screen-4---success" transform="translate(-663.000000, -317.000000)">
            <g id="Group-7" transform="translate(663.000000, 316.000000)">
                <g id="Group-9" transform="translate(48.432432, 0.000000)">
                    <g id="Group-3" transform="translate(11.099099, 0.131057)">
                        <mask id="mask-2" fill="white">
                            <use xlink:href="#path-1"></use>
                        </mask>
                        <g id="Clip-2"></g>
                        <path d="M45.4480865,22.9737424 C45.3108613,23.2491743 45.1605189,23.5175438 45.0132036,23.7889401 C44.9203748,23.9604544 44.8336,24.1380222 44.7357261,24.3095366 C44.5974919,24.5506656 44.4481586,24.7847322 44.3018523,25.0228345 C44.1827892,25.2175538 44.0697802,25.4132819 43.9476901,25.6039655 C43.827618,25.7885957 43.6964468,25.9661635 43.5713297,26.1477669 C43.4088793,26.3828425 43.2524829,26.6229626 43.0819604,26.8540025 C42.7812757,27.2626102 42.4684829,27.6631467 42.142573,28.0556119 C41.590645,28.7184644 41.0256,29.3389428 40.461564,29.9009045 L33.6689153,36.6938819 C33.2088072,37.1549528 32.7476901,37.580712 32.2441946,38.0105068 C29.8810955,40.0636345 27.1860324,41.121979 24.4233658,41.121979 C23.3053838,41.121979 22.1773117,40.9494557 21.0563027,40.5993646 C20.6658162,40.4793046 20.2884468,40.3441109 19.9221766,40.1978193 C19.9080505,40.1917658 19.8929153,40.1877302 19.8797982,40.1816767 C19.8374198,40.1645253 19.8010955,40.1423293 19.7587171,40.124169 C19.3591495,39.9587081 18.9757261,39.773069 18.6003748,39.5712874 C18.4924108,39.5137797 18.3824288,39.4542541 18.2754739,39.3937196 C17.8617802,39.1586441 17.4581766,38.9084349 17.0697081,38.6279585 C15.0769153,37.1912735 13.4947892,35.2763662 12.4918342,33.0880448 C12.2587532,32.5805641 12.0599784,32.0589587 11.8985369,31.5383622 C10.6413117,27.5138283 11.5635459,23.5316685 14.4594018,20.2012633 C14.8791495,19.711943 15.3069694,19.2498631 15.7650595,18.7918189 L22.5607351,11.9968238 C22.6636541,11.8939151 22.774645,11.7879798 22.884627,11.6830534 L23.0208432,11.5579488 C23.4607712,11.1382431 23.9168432,10.7235819 24.4021766,10.3200187 C30.7004108,5.09286653 39.230573,3.05588134 47.2209153,4.8618266 C47.2390775,4.86586224 47.2501766,4.88301367 47.2673297,4.88805821 C47.3308973,4.90823637 47.3884108,4.94052143 47.4388613,4.98289556 C47.4590414,5.000047 47.4772036,5.01518062 47.4943568,5.03535878 C47.5518703,5.09992889 47.6003027,5.17458807 47.6194739,5.26236307 L47.6194739,5.26337198 L47.6214919,5.26337198 C47.6235099,5.28153232 47.628555,5.30070157 47.632591,5.31886191 C47.7143207,5.69215786 47.7809153,6.06848053 47.8465009,6.4437943 C47.8666811,6.55477417 47.8929153,6.66777187 47.9120865,6.77976065 C47.974645,7.17727039 48.0240865,7.57478013 48.0694919,7.97329878 C48.082609,8.07923411 48.1007712,8.18516945 48.1118703,8.29110479 C48.1522306,8.68054326 48.1764468,9.07300846 48.2006631,9.46446475 C48.2067171,9.57847135 48.2188252,9.69247795 48.2248793,9.80648455 C48.2430414,10.1949141 48.2440505,10.5823348 48.2460685,10.9687465 C48.2460685,11.0857799 48.2531315,11.2038221 48.2511135,11.3228732 C48.2460685,11.709285 48.2279063,12.09267 48.2067171,12.4770639 C48.1996541,12.597124 48.1996541,12.717184 48.190573,12.8372441 C48.1653477,13.2065044 48.1259964,13.5747558 48.084627,13.9440161 C48.0705009,14.0751742 48.0624288,14.2093589 48.0472937,14.3415259 C48.0008793,14.7067506 47.9393297,15.0699574 47.8787892,15.4331643 C47.856591,15.5653312 47.8414559,15.7005249 47.8172396,15.8337008 C47.7536721,16.1868185 47.6749694,16.5369096 47.5952577,16.8870007 C47.5629694,17.02623 47.5397622,17.1694949 47.5054559,17.3097331 C47.4277622,17.6315748 47.3359423,17.9483719 47.2471495,18.26416 C47.2007351,18.4316388 47.1613838,18.6011353 47.1119423,18.768614 C47.0191135,19.076331 46.9121586,19.3810212 46.8072216,19.6867203 C46.7497081,19.8562168 46.6992577,20.029749 46.6366991,20.1992455 C46.5307532,20.4908199 46.4106811,20.7783587 46.294645,21.0658975 C46.2219964,21.2454831 46.1574198,21.4250687 46.0817441,21.6036454 C45.9616721,21.8851307 45.8274739,22.1605626 45.6963027,22.4380123 C45.612555,22.6155801 45.5358703,22.7971835 45.4480865,22.9737424 Z M44.5258523,36.1379736 L41.2385009,40.9181795 C41.1497081,41.0463109 41.0074378,41.1290413 40.8510414,41.143166 C40.8348973,41.1451838 40.8187532,41.1461927 40.802609,41.1461927 C40.6623568,41.1461927 40.5281586,41.0917117 40.4282667,40.9908209 L37.6383568,38.2032082 C37.5394739,38.1033263 37.4829694,37.9691416 37.4829694,37.8289034 C37.4829694,37.6886651 37.5394739,37.5554893 37.6383568,37.4566163 L42.4271135,32.6653124 C42.4291315,32.6632946 42.4311495,32.6632946 42.4341766,32.6622857 C42.5249874,32.5765285 42.6420324,32.5391989 42.7600865,32.5281009 C42.7853117,32.5250742 42.8054919,32.5210385 42.8317261,32.5230564 C42.8529153,32.5240653 42.8730955,32.5170029 42.8942847,32.5200296 C42.9951856,32.5361722 43.0799423,32.5886354 43.1536,32.6552233 C43.1596541,32.6622857 43.1687351,32.6592589 43.1757982,32.6653124 C43.1858883,32.6764104 43.1818523,32.6935618 43.1919423,32.702642 C43.2222126,32.7409805 43.260555,32.7722566 43.2817441,32.8176575 L44.5692396,35.6163682 C44.6479423,35.7858647 44.6297802,35.9846196 44.5258523,36.1379736 Z M17.2614198,43.4122 L14.5280144,46.5499038 C14.477564,46.6084205 14.4160144,46.6528124 14.3463928,46.6840886 C14.2767712,46.7143558 14.2041225,46.7315073 14.1304649,46.7315073 C14.1203748,46.7315073 14.1092757,46.7315073 14.0991856,46.7304983 C13.9922306,46.7244449 13.8994018,46.6780351 13.8156541,46.6144739 C13.807582,46.6074116 13.7924468,46.6104383 13.7823568,46.602367 C13.7621766,46.5831978 13.7530955,46.5610018 13.7369514,46.5408237 C13.7228252,46.5266989 13.7046631,46.5186277 13.693564,46.5034941 C12.6593297,44.9982034 11.4757622,43.577661 10.1761586,42.2802053 C8.87453694,40.978714 7.45486126,39.795265 5.95244685,38.7631521 C5.81723964,38.6713415 5.7345009,38.5210142 5.72441081,38.35858 C5.71633874,38.1951369 5.78192432,38.0377473 5.90502342,37.9287852 L9.0501045,35.1936357 C9.1610955,35.0977895 9.31042883,35.0574332 9.4526991,35.0665133 C9.59295135,35.081647 9.71705946,35.1532794 9.80585225,35.2622415 C9.80787027,35.2662771 9.8108973,35.2652682 9.81392432,35.2682949 C9.81493333,35.2693038 9.81695135,35.2733395 9.81796036,35.2753573 L9.81997838,35.2763662 C9.83914955,35.30058 9.87749189,35.3621234 9.89262703,35.3903728 C10.0661766,35.7192768 10.2578883,36.0501986 10.4596901,36.3760759 L10.670573,36.7009442 C10.8178883,36.9279485 10.9732757,37.1559617 11.1337081,37.3799393 L11.3819243,37.7199413 C11.5484108,37.9368565 11.7219604,38.1547806 11.8985369,38.3656424 L12.1376721,38.6531812 C12.3979964,38.9498001 12.6623568,39.2413745 12.9408432,39.5178153 C13.2677622,39.8406658 13.5351495,40.0878483 13.808591,40.3269595 L14.0174559,40.5035184 C14.3141045,40.748683 14.5249874,40.9212063 14.7429333,41.0846494 L15.0809514,41.3348585 C15.3049514,41.4972927 15.5350054,41.6516556 15.7680865,41.8029918 L16.0728072,42.0007378 C16.4047712,42.2085728 16.7448072,42.404301 17.0929153,42.5879222 C17.2361946,42.6635903 17.3441586,42.8028196 17.3744288,42.9642449 C17.4046991,43.1216346 17.3673658,43.2911311 17.2614198,43.4122 Z M11.4676901,12.0361712 C11.455582,12.0220465 11.4495279,12.0038861 11.4384288,11.9877436 C11.4283387,11.9766456 11.4142126,11.97261 11.4061405,11.9594942 C11.3920144,11.9403249 11.3889874,11.9151022 11.3778883,11.8939151 C11.3637622,11.8636479 11.349636,11.8374163 11.3395459,11.8051312 C11.3284468,11.7607393 11.3244108,11.7183652 11.3234018,11.6719554 C11.3234018,11.6527861 11.3133117,11.632608 11.3163387,11.6114209 C11.3163387,11.6043586 11.3213838,11.599314 11.3234018,11.5902338 C11.3294559,11.5397884 11.348627,11.490352 11.3698162,11.4439422 C11.3778883,11.4257818 11.3819243,11.4045948 11.3930234,11.3864344 C11.4303568,11.3238821 11.4797982,11.2694011 11.5433658,11.2250092 L16.3220324,7.937987 C16.3361586,7.92890683 16.3533117,7.92991573 16.3674378,7.92285338 C16.4188973,7.89359505 16.4743928,7.87341689 16.5339243,7.86332781 C16.5571315,7.85929218 16.5783207,7.85222982 16.6025369,7.85122091 C16.6227171,7.85122091 16.6418883,7.8492031 16.6620685,7.85122091 C16.6671135,7.85122091 16.6721586,7.84718528 16.6761946,7.84718528 L16.6772036,7.84718528 C16.6792216,7.84718528 16.6802306,7.84718528 16.6862847,7.84819419 C16.7115099,7.85122091 16.7326991,7.86635453 16.7548973,7.87240798 C16.7841586,7.88047924 16.8144288,7.88047924 16.8426811,7.89359505 L19.6406631,9.1789438 C19.7133117,9.21324667 19.7728432,9.26570988 19.8222847,9.32422655 C19.8374198,9.3433958 19.8444829,9.36357396 19.8576,9.38274321 C19.8868613,9.43016188 19.9090595,9.47858946 19.9231856,9.53206159 C19.9262126,9.54416848 19.9373117,9.55324865 19.9393297,9.56535555 C19.9423568,9.58149808 19.9352937,9.59562279 19.9363027,9.6097475 C19.9423568,9.66120181 19.9373117,9.71265611 19.9262126,9.76411042 C19.9211676,9.79135093 19.9181405,9.81657363 19.9080505,9.84179633 C19.9040144,9.85491214 19.9050234,9.86701903 19.8999784,9.88013484 C19.8969514,9.88618828 19.8939243,9.89123282 19.8908973,9.89728627 C19.8808072,9.91847334 19.858609,9.92755351 19.8444829,9.94773167 C19.8263207,9.97497218 19.8182486,10.010284 19.7940324,10.0324799 L15.0052757,14.8237839 C14.9023568,14.9266925 14.7661405,14.9771379 14.6309333,14.9771379 L14.6299243,14.9771379 C14.4947171,14.9771379 14.3605189,14.9266925 14.255582,14.8237839 L12.8631495,13.4294731 L11.4676901,12.0361712 Z M50.5345009,3.12347818 L50.5345009,3.12146036 C50.3811315,2.55748081 49.9341405,2.10952567 49.3711135,1.95415384 C40.460555,-0.518679586 30.7316901,1.32560418 23.3548252,6.89780288 C23.1984288,7.01584512 22.989564,7.03501437 22.8139964,6.95732845 L17.1050234,4.3291232 C16.8830414,4.22722349 16.6439063,4.17677809 16.4067892,4.17677809 C16.0707892,4.17677809 15.7398342,4.27464217 15.4573117,4.46936141 L7.46596036,9.96589201 C7.05428468,10.2504041 6.79295135,10.6963414 6.74855495,11.193733 C6.70214054,11.6901157 6.87770811,12.1774183 7.23187027,12.5295272 L11.9489874,17.245163 C12.1406991,17.4368555 12.1558342,17.7435635 11.9832937,17.9544253 C8.56880721,21.882104 7.32066306,26.3828425 8.31756396,31.0349171 C8.35691532,31.222574 8.29233874,31.4172932 8.14704144,31.5444156 L1.45125766,37.3748948 C1.03857297,37.7330571 0.826681081,38.2738318 0.886212613,38.819651 C0.946753153,39.3624435 1.26963604,39.8447015 1.75194234,40.1070175 C3.96066306,41.3056002 5.99987027,42.8330869 7.81305946,44.6450856 C9.62624865,46.4580932 11.1538883,48.4981051 12.352591,50.7066047 C12.6149333,51.1888627 13.0952216,51.5117132 13.6400865,51.5712388 C14.1647712,51.6287465 14.7257802,51.4168759 15.0839784,51.0072592 L20.9140324,44.3151727 C21.0391495,44.1678721 21.2379243,44.1002753 21.422573,44.1456761 C26.1760144,45.1626554 30.6428973,43.8349325 34.4286991,40.5438747 C34.637564,40.3642891 35.0199784,40.3148526 35.2157261,40.5105807 L39.9328432,45.2252077 C40.2839784,45.5783255 40.7672937,45.7669912 41.2637261,45.7104924 C41.7662126,45.6650915 42.2132036,45.4037844 42.4967351,44.991141 L47.9917982,37.0005899 C48.3247712,36.5183319 48.3802667,35.8887733 48.1330595,35.3540521 L45.5056,29.6446419 C45.4238703,29.4670741 45.4480865,29.2592391 45.5651315,29.1058851 C51.1257802,21.7418658 52.9843748,12.027091 50.5345009,3.12347818 Z" id="Fill-1" fill="#489AA0" mask="url(#mask-2)"></path>
                    </g>
                    <g id="Group-6" transform="translate(0.000000, 46.540824)">
                        <mask id="mask-4" fill="white">
                            <use xlink:href="#path-3"></use>
                        </mask>
                        <g id="Clip-5"></g>
                        <path d="M11.7167135,10.5210941 C11.5290378,10.7491073 11.3302631,10.9680403 11.1173622,11.1809199 C11.0709477,11.2273296 11.0204973,11.2717216 10.9680288,11.3151046 C9.22950631,12.9394465 7.02885766,13.8050895 4.7717045,13.8050895 C4.47001081,13.8050895 4.1662991,13.7899559 3.86460541,13.7586797 C3.78993874,13.7516174 3.73646126,13.7031898 3.6739027,13.6668691 C3.63656937,13.6476999 3.59116396,13.6426553 3.55887568,13.6123881 C3.46907387,13.5286487 3.40651532,13.4176688 3.39238919,13.2875197 C3.36110991,12.9798028 3.34395676,12.6741037 3.34597477,12.3684046 L3.34597477,12.2907186 C3.36817297,9.95408779 4.3226955,7.67193797 5.96738018,6.02842689 C7.65545225,4.34254167 9.89847928,3.41333744 12.2868036,3.41333744 C12.560245,3.43250669 12.9083532,3.42847106 13.2171099,3.4597472 C13.4683532,3.4849699 13.6651099,3.68271586 13.6913441,3.93191613 C13.7206054,4.23559743 13.7387676,4.54230545 13.7397766,4.85103129 C13.7428036,6.94754205 13.0435604,8.90684132 11.7167135,10.5210941 M15.4873802,0.485486514 C14.458191,0.208036823 13.3876324,0.0667897075 12.3049658,0.0667897075 C9.00348829,0.0667897075 5.92096577,1.34305829 3.60226306,3.66354661 C0.502587387,6.76089407 -0.717304505,11.3151046 0.416821622,15.5505003 C0.570190991,16.1275956 1.02424505,16.5795864 1.6013982,16.7339493 C2.63966847,17.011399 3.70921802,17.1516372 4.78381261,17.1516372 C8.07015495,17.1516372 11.1587315,15.8703241 13.4834883,13.5468091 C15.8102631,11.2192584 17.0906955,8.12695546 17.0866595,4.83892439 C17.0806054,3.75737505 16.9403532,2.68995042 16.6689297,1.66994447 C16.5155604,1.09385802 16.0645333,0.640858341 15.4873802,0.485486514" id="Fill-4" fill="#489AA0" mask="url(#mask-4)"></path>
                    </g>
                    <path d="M40.1704649,17.3765228 C43.5577081,17.3765228 46.3143207,20.1318505 46.3143207,23.5187545 C46.3143207,26.9066675 43.5577081,29.664013 40.1704649,29.664013 C36.7832216,29.664013 34.026609,26.9066675 34.026609,23.5187545 C34.026609,20.1318505 36.7832216,17.3765228 40.1704649,17.3765228 M30.6797261,23.5187545 C30.6797261,28.7509512 34.9377441,33.0095518 40.1704649,33.0095518 C44.6565189,33.0095518 48.5664288,29.8214026 49.4674739,25.4306351 C49.596627,24.8041033 49.6612036,24.1614289 49.6612036,23.5187545 C49.6612036,22.8760801 49.596627,22.2344147 49.4674739,21.6099006 C48.5664288,17.2191332 44.6565189,14.030984 40.1704649,14.030984 C34.9377441,14.030984 30.6797261,18.2875667 30.6797261,23.5187545" id="Fill-7" fill="#489AA0"></path>
                </g>
                <g id="Group-12" transform="translate(0.000000, 24.213791)">
                    <g id="Group-3" transform="translate(0.000000, 37.012583)">
                        <mask id="mask-6" fill="white">
                            <use xlink:href="#path-5"></use>
                        </mask>
                        <g id="Clip-2"></g>
                        <path d="M31.1044552,5.83393465 L37.019327,3.56022454 C37.9125272,3.19262596 38.3374753,2.17326541 37.9683775,1.28369295 C37.6118259,0.424350648 36.6405161,-0.00451436859 35.7610761,0.308669952 L29.846609,2.57351255 C20.9902875,5.96130434 11.3953658,6.96978204 2.02425003,5.49737235 C1.817442,5.46875448 1.60658683,5.47600972 1.40220707,5.51954113 C0.455180042,5.71099872 -0.157149827,6.63120439 0.0350885655,7.57398191 C0.180785031,8.28862258 0.757500208,8.83679591 1.48031656,8.94925205 C11.4585009,10.5143675 21.6746561,9.44018964 31.1044552,5.83393465" id="Fill-1" fill="#489AA0" mask="url(#mask-6)"></path>
                    </g>
                    <path d="M37.7290711,51.9781578 C37.1470947,51.209909 36.0499193,51.0567429 35.2781328,51.6359526 C35.2781328,51.6363556 35.2781328,51.6363556 35.2777281,51.6363556 L2.7870115,76.0530437 C2.01522495,76.6334625 1.86143423,77.7261815 2.44381538,78.4948334 C3.02619653,79.2630822 4.12377658,79.4158452 4.89515842,78.8362325 L37.3862797,54.4195445 C38.1580663,53.8399318 38.3114523,52.7468097 37.7294758,51.9785609 C37.7294758,51.9785609 37.7290711,51.9781578 37.7290711,51.9781578" id="Fill-4" fill="#489AA0"></path>
                    <path d="M69.9675304,41.7750802 C69.7408915,41.7307427 69.5081818,41.7315488 69.2823523,41.7779017 C68.5902941,41.9189757 68.0516219,42.4602969 67.9160432,43.1507534 L66.6448416,49.609525 C64.546003,60.2247403 65.8099199,71.2269015 70.2609469,81.0956337 C70.639353,81.9811755 71.6673225,82.3935147 72.5564757,82.0166455 C73.4460335,81.6393733 73.8596496,80.615982 73.4812435,79.7304403 C73.4727446,79.7106899 73.4642456,79.6913426 73.4549372,79.6719953 C69.299755,70.4594588 68.1200183,60.1888672 70.0780169,50.2794251 L71.3459809,43.8142044 C71.5276967,42.8726361 70.9117245,41.961701 69.9675304,41.7750802" id="Fill-6" fill="#489AA0"></path>
                    <path d="M51.4738733,52.6536202 C50.5628657,52.3331807 49.5632261,52.8083986 49.241075,53.715706 L41.3852025,75.8191833 C41.0808588,76.7325368 41.5778456,77.7192488 42.4949239,78.0219533 C43.38691,78.3165965 44.3533633,77.8570982 44.6840133,76.9812301 L52.5398858,54.8777529 C52.8620369,53.9704454 52.3844762,52.9748659 51.4738733,52.6536202" id="Fill-8" fill="#489AA0"></path>
                    <path d="M11.7318437,7.550483 C12.3073447,5.71249008 14.2697951,4.68748657 16.1152837,5.26065015 C17.9603676,5.83381373 18.9895512,7.78829349 18.4140502,9.62588335 C18.4108125,9.63636314 18.4075748,9.64643985 18.4043371,9.65691964 C17.7321098,11.5130506 16.2528859,12.9669192 14.3802816,13.612232 C14.0840322,13.6807537 13.7748319,13.6730954 13.4826295,13.5888541 C11.8702553,13.0797784 11.0762096,9.60895447 11.7318437,7.550483 Z M10.1360626,16.390181 L11.0592116,17.3015192 C16.2326503,22.3922759 23.284764,25.1327395 30.5525893,24.8767909 C31.5174237,24.818749 32.2523814,23.9928614 32.1941028,23.0319458 C32.1378478,22.1036788 31.3599906,21.3829921 30.4263191,21.394681 C25.1824604,21.5712251 20.0369469,19.9488739 15.8501971,16.7992957 C18.6006226,15.7053674 20.7468125,13.4876838 21.7432144,10.710541 C22.9124286,7.04060119 20.8730827,3.12156496 17.1881763,1.95709971 C13.5032699,0.79263445 9.56825114,2.82369725 8.39944172,6.49363707 C7.97287484,7.99385849 7.90043132,9.57146909 8.18777713,11.1035329 C5.8214237,8.83707805 4.9666711,5.42107146 5.98937935,2.31381544 C6.30545974,1.40408955 5.8214237,0.411331531 4.90839252,0.0965349355 C3.99495662,-0.21826166 2.99814997,0.263405346 2.68206958,1.17313123 C2.67195177,1.20215217 2.66264338,1.23157618 2.65414442,1.26100019 C0.663364103,7.48518589 3.96298434,14.1644361 10.1291825,16.3917933 L10.1360626,16.390181 Z" id="Fill-10" fill="#489AA0"></path>
                </g>
            </g>
        </g>
    </g>
</svg>