<?xml version="1.0" encoding="UTF-8"?>
<svg width="58px" height="50px" viewBox="0 0 58 50" version="1.1" xmlns="http://www.w3.org/2000/svg" xmlns:xlink="http://www.w3.org/1999/xlink">
    <!-- Generator: sketchtool 52.6 (67491) - http://www.bohemiancoding.com/sketch -->
    <title>E1DF7C1C-AC32-4923-A4A6-5A75597DB283</title>
    <desc>Created with sketchtool.</desc>
    <g id="flow--13.3.19" stroke="none" stroke-width="1" fill="none" fill-rule="evenodd">
        <g id="CHB---ISRAEL-7" transform="translate(-690.000000, -273.000000)" fill="#489AA0" fill-rule="nonzero">
            <g id="noun_support_2256382" transform="translate(690.000000, 273.000000)">
                <path d="M51.7857143,28.3541667 L51.7857143,22.9166667 C51.7857143,10.2601411 41.5842025,0 29,0 C16.4157975,-1.85037171e-15 6.21428571,10.2601411 6.21428571,22.9166667 L6.21428571,28.3541667 C1.54481315,30.7719017 -0.876318216,36.086733 0.352314739,41.2222775 C1.58094769,46.3578221 6.14095039,49.9832271 11.3928571,50 L12.4285714,50 C14.7166082,50 16.5714286,48.1345198 16.5714286,45.8333333 L16.5714286,31.25 C16.5714286,28.9488135 14.7166082,27.0833333 12.4285714,27.0833333 L11.3928571,27.0833333 L10.3571429,27.0833333 L10.3571429,22.9166667 C10.3571429,12.5613276 18.7038343,4.16666667 29,4.16666667 C39.2961657,4.16666667 47.6428571,12.5613276 47.6428571,22.9166667 L47.6428571,27.0833333 L46.6071429,27.0833333 L45.5714286,27.0833333 C43.2833918,27.0833333 41.4285714,28.9488135 41.4285714,31.25 L41.4285714,45.8333333 L35.2142857,45.8333333 L35.2142857,43.75 C35.2142857,42.5994068 34.2868756,41.6666667 33.1428571,41.6666667 L29,41.6666667 C27.8559816,41.6666667 26.9285714,42.5994068 26.9285714,43.75 L26.9285714,47.9166667 C26.9285714,49.0672599 27.8559816,50 29,50 L46.6071429,50 C51.8590496,49.9832271 56.4190523,46.3578221 57.6476853,41.2222775 C58.8763182,36.086733 56.4551869,30.7719017 51.7857143,28.3541667 Z M12.4285714,31.25 L12.4285714,45.8333333 L11.3928571,45.8333333 C7.38879271,45.8333333 4.14285714,42.568743 4.14285714,38.5416667 C4.14285714,34.5145904 7.38879271,31.25 11.3928571,31.25 L12.4285714,31.25 Z M46.6071429,45.8333333 L45.5714286,45.8333333 L45.5714286,31.25 L46.6071429,31.25 C50.6112073,31.25 53.8571429,34.5145904 53.8571429,38.5416667 C53.8571429,42.568743 50.6112073,45.8333333 46.6071429,45.8333333 Z" id="Shape"></path>
            </g>
        </g>
    </g>
</svg>