<?xml version="1.0" encoding="UTF-8"?>
<svg width="54px" height="47px" viewBox="0 0 54 47" version="1.1" xmlns="http://www.w3.org/2000/svg" xmlns:xlink="http://www.w3.org/1999/xlink">
    <!-- Generator: sketchtool 52.6 (67491) - http://www.bohemiancoding.com/sketch -->
    <title>111D298A-D325-4591-B2E8-C20DC8177672</title>
    <desc>Created with sketchtool.</desc>
    <defs>
        <polygon id="path-1" points="0.468848816 0.474988764 33.7765179 0.474988764 33.7765179 35.2783303 0.468848816 35.2783303"></polygon>
    </defs>
    <g id="flow--13.3.19" stroke="none" stroke-width="1" fill="none" fill-rule="evenodd">
        <g id="CHB---ISRAEL-4" transform="translate(-693.000000, -315.000000)">
            <g id="lightbulb-icon" transform="translate(694.000000, 315.000000)">
                <g id="Group-3" transform="translate(8.757895, 0.041762)">
                    <mask id="mask-2" fill="white">
                        <use xlink:href="#path-1"></use>
                    </mask>
                    <g id="Clip-2"></g>
                    <path d="M17.05496,0.474937079 C8.10329684,0.474937079 1.63668632,6.77435281 0.610917895,13.5415213 C-0.0284084211,18.0526225 1.51571789,22.4500157 4.72493895,25.7764876 C7.20178105,28.2744427 8.69336,31.5089146 9.02232842,34.9108472 C9.57681263,34.9248022 10.1154232,34.947027 10.6162653,34.9661506 C10.9474232,34.9790719 11.2785811,34.9940607 11.6097389,35.0074989 C11.2627074,31.0690719 9.41698105,27.2262629 6.53453895,24.2388472 C3.71176,21.3904652 2.55352842,17.710982 3.06039158,13.9059034 C3.96519158,8.21017303 9.57517053,2.85556629 17.0670021,2.85556629 C24.9091495,2.85556629 31.2066232,8.67740899 31.2066232,15.683364 C31.2066232,18.8842404 29.9159284,21.971409 27.4784968,24.3525551 C24.7361811,26.9910944 23.0470021,30.6555888 22.6206021,34.5402629 C22.6769811,34.5387124 22.7300758,34.533027 22.7875495,34.533027 C23.7886863,34.533027 24.5933179,34.819364 25.2063705,35.2783303 C25.4351705,31.6670719 26.8156337,28.3912517 29.2760547,26.015791 C32.2323916,23.167409 33.7765179,19.4879258 33.7765179,15.683364 C33.7639284,7.24210562 26.17576,0.474937079 17.05496,0.474937079" id="Fill-1" stroke="#FFFFFF" stroke-width="0.5" fill="#489AA0" mask="url(#mask-2)"></path>
                </g>
                <path d="M19.3120884,38.2889528 L32.4489305,38.2889528 C33.5026147,38.2889528 34.36472,37.4749079 34.36472,36.479964 C34.36472,35.4850202 33.5026147,34.6709753 32.4489305,34.6709753 L19.3120884,34.6709753 C18.2584042,34.6709753 17.3962989,35.4850202 17.3962989,36.479964 C17.3962989,37.4749079 18.2584042,38.2889528 19.3120884,38.2889528 Z" id="Stroke-4" stroke="#489AA0" stroke-width="2"></path>
                <path d="M21.5015621,41.9069303 L30.2594568,41.9069303 C31.3131411,41.9069303 32.1752463,41.0928854 32.1752463,40.0979416 C32.1752463,39.1029978 31.3131411,38.2889528 30.2594568,38.2889528 L21.5015621,38.2889528 C20.4478779,38.2889528 19.5857726,39.1029978 19.5857726,40.0979416 C19.5857726,41.0928854 20.4478779,41.9069303 21.5015621,41.9069303 Z" id="Stroke-6" stroke="#489AA0" stroke-width="2"></path>
                <path d="M22.5962989,42.6822112 C22.5962989,44.2518966 24.0670779,45.5249079 25.8805095,45.5249079 C27.6944884,45.5249079 29.16472,44.2518966 29.16472,42.6822112" id="Stroke-8" stroke="#489AA0" stroke-width="2"></path>
                <path d="M45.15784,8.00808315 L48.0320716,6.24406067" id="Stroke-10" stroke="#489AA0" stroke-width="2" stroke-linecap="round"></path>
                <path d="M48.2221179,15.2914854 L51.5364337,14.4655528" id="Stroke-12" stroke="#489AA0" stroke-width="2" stroke-linecap="round"></path>
                <path d="M6.65227789,8.00808315 L3.77804632,6.24406067" id="Stroke-14" stroke="#489AA0" stroke-width="2" stroke-linecap="round"></path>
                <path d="M3.58805474,15.2914854 L0.273738947,14.4655528" id="Stroke-16" stroke="#489AA0" stroke-width="2" stroke-linecap="round"></path>
                <path d="M23.7321979,18.1316494 C23.0490821,18.1306157 22.3637768,18.1642112 21.6839453,18.1228629 C20.5459663,18.0536045 19.8820084,17.1909753 20.4047453,16.2580539 C21.8289979,13.7182337 23.3380926,11.2197618 24.8860505,8.74506517 C25.3294189,8.03542472 26.1953558,8.12845843 26.8516505,8.45769438 C27.6267242,8.84740225 27.6677768,9.55911011 27.26984,10.2475596 C26.4865558,11.6037843 25.6813768,12.9491551 24.8581347,14.2841888 C24.3249979,15.1488854 24.5215032,15.5494472 25.6140505,15.5313573 C26.8883242,15.5106831 28.1636926,15.5117169 29.4379663,15.5313573 C30.8660505,15.5540989 31.55464,16.3898517 30.9142189,17.5346831 C29.6629347,19.7721438 28.2824716,21.9470652 26.9052926,24.1194022 C26.4838189,24.7845933 25.7870189,24.9965034 25.0185137,24.5752674 C24.2149768,24.1349079 24.0108084,23.4790202 24.4519874,22.7114921 C25.0371242,21.6938067 25.6906821,20.7102337 26.2834821,19.6961663 C27.0612926,18.3652674 26.9244505,18.1450876 25.3710189,18.1332 C24.8247453,18.1290652 24.2784716,18.1326831 23.7321979,18.1316494" id="Fill-18" stroke="#FFFFFF" stroke-width="0.5" fill="#489AA0"></path>
            </g>
        </g>
    </g>
</svg>