<?xml version="1.0" encoding="UTF-8"?>
<svg width="54px" height="55px" viewBox="0 0 54 55" version="1.1" xmlns="http://www.w3.org/2000/svg" xmlns:xlink="http://www.w3.org/1999/xlink">
    <!-- Generator: sketchtool 52.6 (67491) - http://www.bohemiancoding.com/sketch -->
    <title>A211421F-D0B3-4D70-83E7-D21B88D0EB83</title>
    <desc>Created with sketchtool.</desc>
    <defs>
        <polygon id="path-1" points="0.00036 0.338204918 41.38416 0.338204918 41.38416 54.0983607 0.00036 54.0983607"></polygon>
        <polygon id="path-3" points="0.667245686 0.279090898 42.2307 0.279090898 42.2307 13.2491393 0.667245686 13.2491393"></polygon>
    </defs>
    <g id="flow-20.3.19" stroke="none" stroke-width="1" fill="none" fill-rule="evenodd">
        <g id="CHB---ABROAD-screen-7---v2" transform="translate(-692.000000, -352.000000)">
            <g id="Group-7" transform="translate(692.000000, 352.000000)">
                <g id="Group-3" transform="translate(0.000000, 0.563525)">
                    <mask id="mask-2" fill="white">
                        <use xlink:href="#path-1"></use>
                    </mask>
                    <g id="Clip-2"></g>
                    <path d="M33.89796,54.0984508 L7.48656,54.0984508 C3.35376,54.0984508 0.00036,50.738041 0.00036,46.5986148 L0.00036,7.83804098 C0.00036,3.69861475 3.35376,0.338204918 7.48656,0.338204918 L23.23746,0.338204918 C25.27416,0.338204918 27.25056,1.17853279 28.68786,2.67795902 L39.28806,14.017877 C40.60566,15.3982869 41.32476,17.2583689 41.32476,19.177959 L41.32476,23.137959 C41.32476,24.338041 40.30686,25.3577951 39.10896,25.3577951 C37.91106,25.3577951 36.89316,24.338041 36.89316,23.137959 L36.89316,19.177959 C36.89316,18.398041 36.59346,17.6776311 36.05436,17.078041 L25.39386,5.73812295 C24.79536,5.13853279 24.01686,4.77787705 23.17806,4.77787705 L7.48656,4.77787705 C5.80986,4.77787705 4.43196,6.15828689 4.43196,7.83804098 L4.43196,46.5986148 C4.43196,48.2783689 5.80986,49.6587787 7.48656,49.6587787 L33.89796,49.6587787 C35.57466,49.6587787 36.95346,48.2783689 36.95346,46.5986148 L36.95346,46.0585328 C36.95346,44.8584508 37.97046,43.8386967 39.16836,43.8386967 C40.36626,43.8386967 41.38416,44.8584508 41.38416,46.0585328 L41.38416,46.5986148 C41.32476,50.738041 37.97046,54.0984508 33.89796,54.0984508" id="Fill-1" fill="#489AA0" mask="url(#mask-2)"></path>
                </g>
                <g id="Group-6" transform="translate(11.700000, 27.612705)">
                    <mask id="mask-4" fill="white">
                        <use xlink:href="#path-3"></use>
                    </mask>
                    <g id="Clip-5"></g>
                    <path d="M1.23696,7.96913934 C1.71576,7.60938525 2.37456,7.54897541 2.91366,7.90963115 C3.45276,8.26938525 4.23126,8.56963115 5.30856,8.62913934 C7.58556,8.68864754 11.59776,7.42905738 17.52696,0.76954918 C18.06606,0.169057377 18.96426,0.10954918 19.62306,0.648729508 C20.16216,1.12930328 20.28186,1.96872951 19.86246,2.56922131 C18.66456,4.54922131 17.52696,6.70954918 16.92846,8.14946721 L16.98786,8.08905738 C17.04726,8.08905738 17.04726,8.02864754 17.10756,8.02864754 C19.50336,6.64913934 23.15646,4.18946721 23.93586,3.16881148 C24.29406,2.68913934 24.95376,2.44930328 25.55226,2.62963115 C26.51076,2.92897541 26.86986,4.00913934 26.39016,4.78905738 C25.25346,6.70954918 24.35526,9.10881148 24.41466,9.94913934 C24.53436,9.94913934 24.71346,9.94913934 25.01316,9.82922131 C26.63046,9.40905738 27.40896,8.86897541 28.12806,8.38930328 C28.84626,7.84922131 29.68416,7.30913934 31.06296,7.48946721 C32.08086,7.60938525 33.27876,8.20897541 35.31456,9.58938525 C35.37486,9.58938525 35.37486,9.58938525 35.37486,9.64889344 C35.61336,9.82922131 37.59066,11.1492213 39.92616,9.52897541 C40.64436,9.04930328 41.60376,9.22872951 42.02226,9.94913934 C42.44166,10.6091393 42.20226,11.5089754 41.54346,11.9886475 C40.16556,12.9488934 38.78856,13.2491393 37.53036,13.2491393 C35.79336,13.2491393 34.35606,12.5891393 33.57846,12.0490574 C32.97906,11.6288934 31.30146,10.5487295 30.58236,10.4297131 C30.46356,10.4297131 30.40326,10.4297131 29.74446,10.8489754 C29.02626,11.4485656 27.82836,12.2888934 25.67196,12.7694672 C23.57586,13.3086475 22.49766,12.5891393 22.01886,11.8687295 C21.47976,11.0888115 21.29976,10.0690574 21.59946,8.68864754 C20.34216,9.52897541 19.14336,10.2493852 18.66456,10.4892213 C17.64666,11.2087295 15.55056,12.6486475 14.17266,11.3295492 C13.45446,10.6695492 13.33386,9.76881148 13.75326,8.26938525 C10.63926,10.5487295 7.76466,11.6288934 5.12946,11.5089754 C3.45276,11.4485656 2.19456,10.8489754 1.35666,10.3088934 C0.45846,9.82922131 0.45846,8.56963115 1.23696,7.96913934" id="Fill-4" fill="#489AA0" mask="url(#mask-4)"></path>
                </g>
            </g>
        </g>
    </g>
</svg>